<?xml version="1.0" encoding="UTF-8" standalone="no"?>
<svg
   version="1.1"
   width="493px"
   height="749px"
   style="shape-rendering:geometricPrecision;text-rendering:geometricPrecision;image-rendering:optimizeQuality;fill-rule:evenodd;clip-rule:evenodd"
   id="svg2766"
   sodipodi:docname="matrix-vector-multiplication-techniques-mod.svg"
   inkscape:version="1.1.2 (0a00cf5339, 2022-02-04)"
   xmlns:inkscape="http://www.inkscape.org/namespaces/inkscape"
   xmlns:sodipodi="http://sodipodi.sourceforge.net/DTD/sodipodi-0.dtd"
   xmlns="http://www.w3.org/2000/svg"
   xmlns:svg="http://www.w3.org/2000/svg">
  <defs
     id="defs2770" />
  <sodipodi:namedview
     id="namedview2768"
     pagecolor="#ffffff"
     bordercolor="#666666"
     borderopacity="1.0"
     inkscape:pageshadow="2"
     inkscape:pageopacity="0.0"
     inkscape:pagecheckerboard="0"
     showgrid="false"
     inkscape:zoom="1.5433912"
     inkscape:cx="260.4654"
     inkscape:cy="412.72751"
     inkscape:window-width="2560"
     inkscape:window-height="1371"
     inkscape:window-x="0"
     inkscape:window-y="32"
     inkscape:window-maximized="1"
     inkscape:current-layer="svg2766" />
  <g
     id="g7301">
    <g
       id="g1816">
      <path
         style="opacity:1"
         fill="#000000"
         d="M 237.5,6.5 C 269.5,6.5 301.5,6.5 333.5,6.5C 333.5,15.1667 333.5,23.8333 333.5,32.5C 301.5,32.5 269.5,32.5 237.5,32.5C 237.5,23.8333 237.5,15.1667 237.5,6.5 Z"
         id="path1814" />
    </g>
    <g
       id="g1820">
      <path
         style="opacity:1"
         fill="#91d04f"
         d="M 239.5,8.5 C 246.5,8.5 253.5,8.5 260.5,8.5C 260.5,15.8333 260.5,23.1667 260.5,30.5C 253.5,30.5 246.5,30.5 239.5,30.5C 239.5,23.1667 239.5,15.8333 239.5,8.5 Z"
         id="path1818" />
    </g>
    <g
       id="g1824">
      <path
         style="opacity:1"
         fill="#91d04f"
         d="M 262.5,8.5 C 269.833,8.5 277.167,8.5 284.5,8.5C 284.5,15.8333 284.5,23.1667 284.5,30.5C 277.167,30.5 269.833,30.5 262.5,30.5C 262.5,23.1667 262.5,15.8333 262.5,8.5 Z"
         id="path1822" />
    </g>
    <g
       id="g1828">
      <path
         style="opacity:1"
         fill="#91d04f"
         d="M 286.5,8.5 C 293.5,8.5 300.5,8.5 307.5,8.5C 307.5,15.8333 307.5,23.1667 307.5,30.5C 300.5,30.5 293.5,30.5 286.5,30.5C 286.5,23.1667 286.5,15.8333 286.5,8.5 Z"
         id="path1826" />
    </g>
    <g
       id="g1832">
      <path
         style="opacity:1"
         fill="#91d04f"
         d="M 309.5,8.5 C 316.833,8.5 324.167,8.5 331.5,8.5C 331.5,15.8333 331.5,23.1667 331.5,30.5C 324.167,30.5 316.833,30.5 309.5,30.5C 309.5,23.1667 309.5,15.8333 309.5,8.5 Z"
         id="path1830" />
    </g>
  </g>
  <g
     id="g1852">
    <path
       style="opacity:0.554"
       fill="#000000"
       d="M 280.5,34.5 C 282.394,35.0476 284.06,36.0476 285.5,37.5C 286.814,36.6872 287.981,35.6872 289,34.5C 289.833,35.3333 290.667,36.1667 291.5,37C 290.313,38.0195 289.313,39.1861 288.5,40.5C 289.5,41.8333 290.5,43.1667 291.5,44.5C 291.291,45.086 290.957,45.586 290.5,46C 288.583,45.9725 286.916,45.1392 285.5,43.5C 284.167,44.5 282.833,45.5 281.5,46.5C 280.914,46.2907 280.414,45.9574 280,45.5C 280.027,43.5826 280.861,41.916 282.5,40.5C 281.5,39.1667 280.5,37.8333 279.5,36.5C 279.863,35.8165 280.196,35.1499 280.5,34.5 Z"
       id="path1850" />
  </g>
  <g
     id="g1856">
    <path
       style="opacity:1"
       fill="#000000"
       d="M 394.5,36.5 C 426.833,36.5 459.167,36.5 491.5,36.5C 491.5,45.1667 491.5,53.8333 491.5,62.5C 459.167,62.5 426.833,62.5 394.5,62.5C 394.5,53.8333 394.5,45.1667 394.5,36.5 Z"
       id="path1854" />
  </g>
  <g
     id="g1860">
    <path
       style="opacity:1"
       fill="#dbe6f1"
       d="M 396.5,38.5 C 403.833,38.5 411.167,38.5 418.5,38.5C 418.5,45.8333 418.5,53.1667 418.5,60.5C 411.167,60.5 403.833,60.5 396.5,60.5C 396.5,53.1667 396.5,45.8333 396.5,38.5 Z"
       id="path1858" />
  </g>
  <g
     id="g1864">
    <path
       style="opacity:1"
       fill="#fefffe"
       d="M 420.5,38.5 C 427.833,38.5 435.167,38.5 442.5,38.5C 442.5,45.8333 442.5,53.1667 442.5,60.5C 435.167,60.5 427.833,60.5 420.5,60.5C 420.5,53.1667 420.5,45.8333 420.5,38.5 Z"
       id="path1862" />
  </g>
  <g
     id="g1868">
    <path
       style="opacity:1"
       fill="#fefffe"
       d="M 444.5,38.5 C 451.5,38.5 458.5,38.5 465.5,38.5C 465.5,45.8333 465.5,53.1667 465.5,60.5C 458.5,60.5 451.5,60.5 444.5,60.5C 444.5,53.1667 444.5,45.8333 444.5,38.5 Z"
       id="path1866" />
  </g>
  <g
     id="g1872">
    <path
       style="opacity:1"
       fill="#fefffe"
       d="M 467.5,38.5 C 474.833,38.5 482.167,38.5 489.5,38.5C 489.5,45.8333 489.5,53.1667 489.5,60.5C 482.167,60.5 474.833,60.5 467.5,60.5C 467.5,53.1667 467.5,45.8333 467.5,38.5 Z"
       id="path1870" />
  </g>
  <g
     id="g1904">
    <path
       style="opacity:1"
       fill="#000000"
       d="M 237.5,48.5 C 269.5,48.5 301.5,48.5 333.5,48.5C 333.5,57.1667 333.5,65.8333 333.5,74.5C 301.5,74.5 269.5,74.5 237.5,74.5C 237.5,65.8333 237.5,57.1667 237.5,48.5 Z"
       id="path1902" />
  </g>
  <g
     id="g1908">
    <path
       style="opacity:1"
       fill="#f1dcda"
       d="M 239.5,50.5 C 246.5,50.5 253.5,50.5 260.5,50.5C 260.5,57.8333 260.5,65.1667 260.5,72.5C 253.5,72.5 246.5,72.5 239.5,72.5C 239.5,65.1667 239.5,57.8333 239.5,50.5 Z"
       id="path1906" />
  </g>
  <g
     id="g1912">
    <path
       style="opacity:1"
       fill="#e5b9b7"
       d="M 262.5,50.5 C 269.833,50.5 277.167,50.5 284.5,50.5C 284.5,57.8333 284.5,65.1667 284.5,72.5C 277.167,72.5 269.833,72.5 262.5,72.5C 262.5,65.1667 262.5,57.8333 262.5,50.5 Z"
       id="path1910" />
  </g>
  <g
     id="g1916">
    <path
       style="opacity:1"
       fill="#d89693"
       d="M 286.5,50.5 C 293.5,50.5 300.5,50.5 307.5,50.5C 307.5,57.8333 307.5,65.1667 307.5,72.5C 300.5,72.5 293.5,72.5 286.5,72.5C 286.5,65.1667 286.5,57.8333 286.5,50.5 Z"
       id="path1914" />
  </g>
  <g
     id="g1920">
    <path
       style="opacity:1"
       fill="#bf504c"
       d="M 309.5,50.5 C 316.833,50.5 324.167,50.5 331.5,50.5C 331.5,57.8333 331.5,65.1667 331.5,72.5C 324.167,72.5 316.833,72.5 309.5,72.5C 309.5,65.1667 309.5,57.8333 309.5,50.5 Z"
       id="path1918" />
  </g>
  <g
     id="g1924">
    <path
       style="opacity:1"
       fill="#000000"
       d="M 394.5,65.5 C 426.833,65.5 459.167,65.5 491.5,65.5C 491.5,74.1667 491.5,82.8333 491.5,91.5C 459.167,91.5 426.833,91.5 394.5,91.5C 394.5,82.8333 394.5,74.1667 394.5,65.5 Z"
       id="path1922" />
  </g>
  <g
     id="g1928">
    <path
       style="opacity:1"
       fill="#b8cde4"
       d="M 396.5,67.5 C 403.833,67.5 411.167,67.5 418.5,67.5C 418.5,74.8333 418.5,82.1667 418.5,89.5C 411.167,89.5 403.833,89.5 396.5,89.5C 396.5,82.1667 396.5,74.8333 396.5,67.5 Z"
       id="path1926" />
  </g>
  <g
     id="g1932">
    <path
       style="opacity:1"
       fill="#fefffe"
       d="M 420.5,67.5 C 427.833,67.5 435.167,67.5 442.5,67.5C 442.5,74.8333 442.5,82.1667 442.5,89.5C 435.167,89.5 427.833,89.5 420.5,89.5C 420.5,82.1667 420.5,74.8333 420.5,67.5 Z"
       id="path1930" />
  </g>
  <g
     id="g1936">
    <path
       style="opacity:1"
       fill="#fefffe"
       d="M 444.5,67.5 C 451.5,67.5 458.5,67.5 465.5,67.5C 465.5,74.8333 465.5,82.1667 465.5,89.5C 458.5,89.5 451.5,89.5 444.5,89.5C 444.5,82.1667 444.5,74.8333 444.5,67.5 Z"
       id="path1934" />
  </g>
  <g
     id="g1940">
    <path
       style="opacity:1"
       fill="#fefffe"
       d="M 467.5,67.5 C 474.833,67.5 482.167,67.5 489.5,67.5C 489.5,74.8333 489.5,82.1667 489.5,89.5C 482.167,89.5 474.833,89.5 467.5,89.5C 467.5,82.1667 467.5,74.8333 467.5,67.5 Z"
       id="path1938" />
  </g>
  <g
     id="g1964">
    <path
       style="opacity:0.949"
       fill="#bdbdbd"
       d="M 209.5,78.5 C 214.457,81.4573 218.457,85.4573 221.5,90.5C 218.542,95.1256 214.876,99.1256 210.5,102.5C 209.534,100.604 209.201,98.604 209.5,96.5C 205.833,96.5 202.167,96.5 198.5,96.5C 198.5,92.5 198.5,88.5 198.5,84.5C 202.167,84.5 205.833,84.5 209.5,84.5C 209.5,82.5 209.5,80.5 209.5,78.5 Z"
       id="path1962" />
  </g>
  <g
     id="g1968">
    <path
       style="opacity:0.969"
       fill="#bebebe"
       d="M 364.5,78.5 C 369.282,81.4468 373.282,85.2801 376.5,90C 373.365,94.3023 369.699,98.1356 365.5,101.5C 364.548,99.9547 364.215,98.288 364.5,96.5C 360.5,96.5 356.5,96.5 352.5,96.5C 352.5,92.1667 352.5,87.8333 352.5,83.5C 356.5,83.5 360.5,83.5 364.5,83.5C 364.5,81.8333 364.5,80.1667 364.5,78.5 Z"
       id="path1966" />
  </g>
  <g
     id="g1980">
    <path
       style="opacity:0.479"
       fill="#000000"
       d="M 275.5,90.5 C 277.346,90.2222 278.68,90.8888 279.5,92.5C 278.68,94.1112 277.346,94.7778 275.5,94.5C 275.5,93.1667 275.5,91.8333 275.5,90.5 Z"
       id="path1978" />
  </g>
  <g
     id="g1984">
    <path
       style="opacity:0.479"
       fill="#000000"
       d="M 283.5,90.5 C 284.5,90.5 285.5,90.5 286.5,90.5C 286.5,91.8333 286.5,93.1667 286.5,94.5C 283.046,94.7332 282.046,93.3999 283.5,90.5 Z"
       id="path1982" />
  </g>
  <g
     id="g1988">
    <path
       style="opacity:0.516"
       fill="#000000"
       d="M 290.5,90.5 C 295.536,91.505 295.536,92.8384 290.5,94.5C 290.5,93.1667 290.5,91.8333 290.5,90.5 Z"
       id="path1986" />
  </g>
  <g
     id="g2012">
    <path
       style="opacity:1"
       fill="#000000"
       d="M 492.5,94.5 C 492.5,102.833 492.5,111.167 492.5,119.5C 460.167,119.5 427.833,119.5 395.5,119.5C 395.5,111.167 395.5,102.833 395.5,94.5C 427.833,94.5 460.167,94.5 492.5,94.5 Z"
       id="path2010" />
  </g>
  <g
     id="g2016">
    <path
       style="opacity:1"
       fill="#94b3d6"
       d="M 397.5,96.5 C 404.833,96.5 412.167,96.5 419.5,96.5C 419.5,103.5 419.5,110.5 419.5,117.5C 412.167,117.5 404.833,117.5 397.5,117.5C 397.5,110.5 397.5,103.5 397.5,96.5 Z"
       id="path2014" />
  </g>
  <g
     id="g2020">
    <path
       style="opacity:1"
       fill="#fefffe"
       d="M 421.5,96.5 C 428.5,96.5 435.5,96.5 442.5,96.5C 442.5,103.5 442.5,110.5 442.5,117.5C 435.5,117.5 428.5,117.5 421.5,117.5C 421.5,110.5 421.5,103.5 421.5,96.5 Z"
       id="path2018" />
  </g>
  <g
     id="g2024">
    <path
       style="opacity:1"
       fill="#fefffe"
       d="M 444.5,96.5 C 451.833,96.5 459.167,96.5 466.5,96.5C 466.5,103.5 466.5,110.5 466.5,117.5C 459.167,117.5 451.833,117.5 444.5,117.5C 444.5,110.5 444.5,103.5 444.5,96.5 Z"
       id="path2022" />
  </g>
  <g
     id="g2028">
    <path
       style="opacity:1"
       fill="#fefffe"
       d="M 468.5,96.5 C 475.833,96.5 483.167,96.5 490.5,96.5C 490.5,103.5 490.5,110.5 490.5,117.5C 483.167,117.5 475.833,117.5 468.5,117.5C 468.5,110.5 468.5,103.5 468.5,96.5 Z"
       id="path2026" />
  </g>
  <g
     id="g2032">
    <path
       style="opacity:1"
       fill="#000000"
       d="M 237.5,110.5 C 269.5,110.5 301.5,110.5 333.5,110.5C 333.5,119.167 333.5,127.833 333.5,136.5C 301.5,136.5 269.5,136.5 237.5,136.5C 237.5,127.833 237.5,119.167 237.5,110.5 Z"
       id="path2030" />
  </g>
  <g
     id="g2036">
    <path
       style="opacity:1"
       fill="#d8d9d8"
       d="M 239.5,112.5 C 246.5,112.5 253.5,112.5 260.5,112.5C 260.5,119.833 260.5,127.167 260.5,134.5C 253.5,134.5 246.5,134.5 239.5,134.5C 239.5,127.167 239.5,119.833 239.5,112.5 Z"
       id="path2034" />
  </g>
  <g
     id="g2040">
    <path
       style="opacity:1"
       fill="#d8d9d8"
       d="M 262.5,112.5 C 269.833,112.5 277.167,112.5 284.5,112.5C 284.5,119.833 284.5,127.167 284.5,134.5C 277.167,134.5 269.833,134.5 262.5,134.5C 262.5,127.167 262.5,119.833 262.5,112.5 Z"
       id="path2038" />
  </g>
  <g
     id="g2044">
    <path
       style="opacity:1"
       fill="#d8d9d8"
       d="M 286.5,112.5 C 293.5,112.5 300.5,112.5 307.5,112.5C 307.5,119.833 307.5,127.167 307.5,134.5C 300.5,134.5 293.5,134.5 286.5,134.5C 286.5,127.167 286.5,119.833 286.5,112.5 Z"
       id="path2042" />
  </g>
  <g
     id="g2048">
    <path
       style="opacity:1"
       fill="#d8d9d8"
       d="M 309.5,112.5 C 316.833,112.5 324.167,112.5 331.5,112.5C 331.5,119.833 331.5,127.167 331.5,134.5C 324.167,134.5 316.833,134.5 309.5,134.5C 309.5,127.167 309.5,119.833 309.5,112.5 Z"
       id="path2046" />
  </g>
  <g
     id="g7277">
    <g
       id="g1876">
      <path
         style="opacity:1"
         fill="#000000"
         d="M 18.5,43.5 C 50.5,43.5 82.5,43.5 114.5,43.5C 114.5,75.5 114.5,107.5 114.5,139.5C 82.5,139.5 50.5,139.5 18.5,139.5C 18.5,107.5 18.5,75.5 18.5,43.5 Z"
         id="path1874" />
    </g>
    <g
       id="g1884">
      <path
         style="opacity:1"
         fill="#91d04f"
         d="M 20.5,45.5 C 27.5,45.5 34.5,45.5 41.5,45.5C 41.5,52.5 41.5,59.5 41.5,66.5C 34.5,66.5 27.5,66.5 20.5,66.5C 20.5,59.5 20.5,52.5 20.5,45.5 Z"
         id="path1882" />
    </g>
    <g
       id="g1888">
      <path
         style="opacity:1"
         fill="#91d04f"
         d="M 43.5,45.5 C 50.8333,45.5 58.1667,45.5 65.5,45.5C 65.5,52.5 65.5,59.5 65.5,66.5C 58.1667,66.5 50.8333,66.5 43.5,66.5C 43.5,59.5 43.5,52.5 43.5,45.5 Z"
         id="path1886" />
    </g>
    <g
       id="g1892">
      <path
         style="opacity:1"
         fill="#91d04f"
         d="M 67.5,45.5 C 74.8333,45.5 82.1667,45.5 89.5,45.5C 89.5,52.5 89.5,59.5 89.5,66.5C 82.1667,66.5 74.8333,66.5 67.5,66.5C 67.5,59.5 67.5,52.5 67.5,45.5 Z"
         id="path1890" />
    </g>
    <g
       id="g1896">
      <path
         style="opacity:1"
         fill="#91d04f"
         d="M 91.5,45.5 C 98.5,45.5 105.5,45.5 112.5,45.5C 112.5,52.5 112.5,59.5 112.5,66.5C 105.5,66.5 98.5,66.5 91.5,66.5C 91.5,59.5 91.5,52.5 91.5,45.5 Z"
         id="path1894" />
    </g>
    <g
       id="g1944">
      <path
         style="opacity:1"
         fill="#feff00"
         d="M 20.5,68.5 C 27.5,68.5 34.5,68.5 41.5,68.5C 41.5,75.8333 41.5,83.1667 41.5,90.5C 34.5,90.5 27.5,90.5 20.5,90.5C 20.5,83.1667 20.5,75.8333 20.5,68.5 Z"
         id="path1942" />
    </g>
    <g
       id="g1948">
      <path
         style="opacity:1"
         fill="#feff00"
         d="M 43.5,68.5 C 50.8333,68.5 58.1667,68.5 65.5,68.5C 65.5,75.8333 65.5,83.1667 65.5,90.5C 58.1667,90.5 50.8333,90.5 43.5,90.5C 43.5,83.1667 43.5,75.8333 43.5,68.5 Z"
         id="path1946" />
    </g>
    <g
       id="g1952">
      <path
         style="opacity:1"
         fill="#feff00"
         d="M 67.5,68.5 C 74.8333,68.5 82.1667,68.5 89.5,68.5C 89.5,75.8333 89.5,83.1667 89.5,90.5C 82.1667,90.5 74.8333,90.5 67.5,90.5C 67.5,83.1667 67.5,75.8333 67.5,68.5 Z"
         id="path1950" />
    </g>
    <g
       id="g1956">
      <path
         style="opacity:1"
         fill="#feff00"
         d="M 91.5,68.5 C 98.5,68.5 105.5,68.5 112.5,68.5C 112.5,75.8333 112.5,83.1667 112.5,90.5C 105.5,90.5 98.5,90.5 91.5,90.5C 91.5,83.1667 91.5,75.8333 91.5,68.5 Z"
         id="path1954" />
    </g>
    <g
       id="g1992">
      <path
         style="opacity:1"
         fill="#cbc1d9"
         d="M 20.5,92.5 C 27.5,92.5 34.5,92.5 41.5,92.5C 41.5,99.5 41.5,106.5 41.5,113.5C 34.5,113.5 27.5,113.5 20.5,113.5C 20.5,106.5 20.5,99.5 20.5,92.5 Z"
         id="path1990" />
    </g>
    <g
       id="g1996">
      <path
         style="opacity:1"
         fill="#cbc1d9"
         d="M 43.5,92.5 C 50.8333,92.5 58.1667,92.5 65.5,92.5C 65.5,99.5 65.5,106.5 65.5,113.5C 58.1667,113.5 50.8333,113.5 43.5,113.5C 43.5,106.5 43.5,99.5 43.5,92.5 Z"
         id="path1994" />
    </g>
    <g
       id="g2000">
      <path
         style="opacity:1"
         fill="#cbc1d9"
         d="M 67.5,92.5 C 74.8333,92.5 82.1667,92.5 89.5,92.5C 89.5,99.5 89.5,106.5 89.5,113.5C 82.1667,113.5 74.8333,113.5 67.5,113.5C 67.5,106.5 67.5,99.5 67.5,92.5 Z"
         id="path1998" />
    </g>
    <g
       id="g2004">
      <path
         style="opacity:1"
         fill="#cbc1d9"
         d="M 91.5,92.5 C 98.5,92.5 105.5,92.5 112.5,92.5C 112.5,99.5 112.5,106.5 112.5,113.5C 105.5,113.5 98.5,113.5 91.5,113.5C 91.5,106.5 91.5,99.5 91.5,92.5 Z"
         id="path2002" />
    </g>
    <g
       id="g2052">
      <path
         style="opacity:1"
         fill="#d8d9d8"
         d="M 20.5,115.5 C 27.5,115.5 34.5,115.5 41.5,115.5C 41.5,122.833 41.5,130.167 41.5,137.5C 34.5,137.5 27.5,137.5 20.5,137.5C 20.5,130.167 20.5,122.833 20.5,115.5 Z"
         id="path2050" />
    </g>
    <g
       id="g2056">
      <path
         style="opacity:1"
         fill="#d8d9d8"
         d="M 43.5,115.5 C 50.8333,115.5 58.1667,115.5 65.5,115.5C 65.5,122.833 65.5,130.167 65.5,137.5C 58.1667,137.5 50.8333,137.5 43.5,137.5C 43.5,130.167 43.5,122.833 43.5,115.5 Z"
         id="path2054" />
    </g>
    <g
       id="g2060">
      <path
         style="opacity:1"
         fill="#d8d9d8"
         d="M 67.5,115.5 C 74.8333,115.5 82.1667,115.5 89.5,115.5C 89.5,122.833 89.5,130.167 89.5,137.5C 82.1667,137.5 74.8333,137.5 67.5,137.5C 67.5,130.167 67.5,122.833 67.5,115.5 Z"
         id="path2058" />
    </g>
    <g
       id="g2064">
      <path
         style="opacity:1"
         fill="#d8d9d8"
         d="M 91.5,115.5 C 98.5,115.5 105.5,115.5 112.5,115.5C 112.5,122.833 112.5,130.167 112.5,137.5C 105.5,137.5 98.5,137.5 91.5,137.5C 91.5,130.167 91.5,122.833 91.5,115.5 Z"
         id="path2062" />
    </g>
  </g>
  <g
     id="g7289">
    <g
       id="g1880">
      <path
         style="opacity:1"
         fill="#000000"
         d="M 152.5,43.5 C 160.833,43.5 169.167,43.5 177.5,43.5C 177.5,75.5 177.5,107.5 177.5,139.5C 169.167,139.5 160.833,139.5 152.5,139.5C 152.5,107.5 152.5,75.5 152.5,43.5 Z"
         id="path1878" />
    </g>
    <g
       id="g1900">
      <path
         style="opacity:1"
         fill="#f1dcda"
         d="M 154.5,45.5 C 161.5,45.5 168.5,45.5 175.5,45.5C 175.5,52.5 175.5,59.5 175.5,66.5C 168.5,66.5 161.5,66.5 154.5,66.5C 154.5,59.5 154.5,52.5 154.5,45.5 Z"
         id="path1898" />
    </g>
    <g
       id="g1960">
      <path
         style="opacity:1"
         fill="#e5b9b7"
         d="M 154.5,68.5 C 161.5,68.5 168.5,68.5 175.5,68.5C 175.5,75.8333 175.5,83.1667 175.5,90.5C 168.5,90.5 161.5,90.5 154.5,90.5C 154.5,83.1667 154.5,75.8333 154.5,68.5 Z"
         id="path1958" />
    </g>
    <g
       id="g2008">
      <path
         style="opacity:1"
         fill="#d89693"
         d="M 154.5,92.5 C 161.5,92.5 168.5,92.5 175.5,92.5C 175.5,99.5 175.5,106.5 175.5,113.5C 168.5,113.5 161.5,113.5 154.5,113.5C 154.5,106.5 154.5,99.5 154.5,92.5 Z"
         id="path2006" />
    </g>
    <g
       id="g2068">
      <path
         style="opacity:1"
         fill="#bf504c"
         d="M 154.5,115.5 C 161.5,115.5 168.5,115.5 175.5,115.5C 175.5,122.833 175.5,130.167 175.5,137.5C 168.5,137.5 161.5,137.5 154.5,137.5C 154.5,130.167 154.5,122.833 154.5,115.5 Z"
         id="path2066" />
    </g>
  </g>
  <g
     id="g2072">
    <path
       style="opacity:1"
       fill="#000000"
       d="M 492.5,123.5 C 492.5,131.833 492.5,140.167 492.5,148.5C 460.167,148.5 427.833,148.5 395.5,148.5C 395.5,140.167 395.5,131.833 395.5,123.5C 427.833,123.5 460.167,123.5 492.5,123.5 Z"
       id="path2070" />
  </g>
  <g
     id="g2076">
    <path
       style="opacity:1"
       fill="#4f81bd"
       d="M 397.5,125.5 C 404.833,125.5 412.167,125.5 419.5,125.5C 419.5,132.5 419.5,139.5 419.5,146.5C 412.167,146.5 404.833,146.5 397.5,146.5C 397.5,139.5 397.5,132.5 397.5,125.5 Z"
       id="path2074" />
  </g>
  <g
     id="g2080">
    <path
       style="opacity:1"
       fill="#fefffe"
       d="M 421.5,125.5 C 428.5,125.5 435.5,125.5 442.5,125.5C 442.5,132.5 442.5,139.5 442.5,146.5C 435.5,146.5 428.5,146.5 421.5,146.5C 421.5,139.5 421.5,132.5 421.5,125.5 Z"
       id="path2078" />
  </g>
  <g
     id="g2084">
    <path
       style="opacity:1"
       fill="#fefffe"
       d="M 444.5,125.5 C 451.833,125.5 459.167,125.5 466.5,125.5C 466.5,132.5 466.5,139.5 466.5,146.5C 459.167,146.5 451.833,146.5 444.5,146.5C 444.5,139.5 444.5,132.5 444.5,125.5 Z"
       id="path2082" />
  </g>
  <g
     id="g2088">
    <path
       style="opacity:1"
       fill="#fefffe"
       d="M 468.5,125.5 C 475.833,125.5 483.167,125.5 490.5,125.5C 490.5,132.5 490.5,139.5 490.5,146.5C 483.167,146.5 475.833,146.5 468.5,146.5C 468.5,139.5 468.5,132.5 468.5,125.5 Z"
       id="path2086" />
  </g>
  <g
     id="g2092">
    <path
       style="opacity:0.554"
       fill="#000000"
       d="M 280.5,138.5 C 282.394,139.048 284.06,140.048 285.5,141.5C 286.814,140.687 287.981,139.687 289,138.5C 289.833,139.333 290.667,140.167 291.5,141C 290.313,142.019 289.313,143.186 288.5,144.5C 289.5,145.833 290.5,147.167 291.5,148.5C 291.291,149.086 290.957,149.586 290.5,150C 288.583,149.973 286.916,149.139 285.5,147.5C 284.167,148.5 282.833,149.5 281.5,150.5C 280.914,150.291 280.414,149.957 280,149.5C 280.027,147.583 280.861,145.916 282.5,144.5C 281.5,143.167 280.5,141.833 279.5,140.5C 279.863,139.817 280.196,139.15 280.5,138.5 Z"
       id="path2090" />
  </g>
  <g
     id="g2096">
    <path
       style="opacity:1"
       fill="#000000"
       d="M 237.5,152.5 C 269.5,152.5 301.5,152.5 333.5,152.5C 333.5,161.167 333.5,169.833 333.5,178.5C 301.5,178.5 269.5,178.5 237.5,178.5C 237.5,169.833 237.5,161.167 237.5,152.5 Z"
       id="path2094" />
  </g>
  <g
     id="g2100">
    <path
       style="opacity:1"
       fill="#f1dcda"
       d="M 239.5,154.5 C 246.5,154.5 253.5,154.5 260.5,154.5C 260.5,161.833 260.5,169.167 260.5,176.5C 253.5,176.5 246.5,176.5 239.5,176.5C 239.5,169.167 239.5,161.833 239.5,154.5 Z"
       id="path2098" />
  </g>
  <g
     id="g2104">
    <path
       style="opacity:1"
       fill="#e5b9b7"
       d="M 262.5,154.5 C 269.833,154.5 277.167,154.5 284.5,154.5C 284.5,161.833 284.5,169.167 284.5,176.5C 277.167,176.5 269.833,176.5 262.5,176.5C 262.5,169.167 262.5,161.833 262.5,154.5 Z"
       id="path2102" />
  </g>
  <g
     id="g2108">
    <path
       style="opacity:1"
       fill="#d89693"
       d="M 286.5,154.5 C 293.5,154.5 300.5,154.5 307.5,154.5C 307.5,161.833 307.5,169.167 307.5,176.5C 300.5,176.5 293.5,176.5 286.5,176.5C 286.5,169.167 286.5,161.833 286.5,154.5 Z"
       id="path2106" />
  </g>
  <g
     id="g2112">
    <path
       style="opacity:1"
       fill="#bf504c"
       d="M 309.5,154.5 C 316.833,154.5 324.167,154.5 331.5,154.5C 331.5,161.833 331.5,169.167 331.5,176.5C 324.167,176.5 316.833,176.5 309.5,176.5C 309.5,169.167 309.5,161.833 309.5,154.5 Z"
       id="path2110" />
  </g>
  <g
     id="g2152">
    <path
       style="opacity:1"
       fill="#000000"
       d="M 237.5,260.5 C 269.5,260.5 301.5,260.5 333.5,260.5C 333.5,268.833 333.5,277.167 333.5,285.5C 301.5,285.5 269.5,285.5 237.5,285.5C 237.5,277.167 237.5,268.833 237.5,260.5 Z"
       id="path2150" />
  </g>
  <g
     id="g2156">
    <path
       style="opacity:1"
       fill="#91d04f"
       d="M 239.5,262.5 C 246.5,262.5 253.5,262.5 260.5,262.5C 260.5,269.5 260.5,276.5 260.5,283.5C 253.5,283.5 246.5,283.5 239.5,283.5C 239.5,276.5 239.5,269.5 239.5,262.5 Z"
       id="path2154" />
  </g>
  <g
     id="g2160">
    <path
       style="opacity:1"
       fill="#91d04f"
       d="M 262.5,262.5 C 269.833,262.5 277.167,262.5 284.5,262.5C 284.5,269.5 284.5,276.5 284.5,283.5C 277.167,283.5 269.833,283.5 262.5,283.5C 262.5,276.5 262.5,269.5 262.5,262.5 Z"
       id="path2158" />
  </g>
  <g
     id="g2164">
    <path
       style="opacity:1"
       fill="#91d04f"
       d="M 286.5,262.5 C 293.5,262.5 300.5,262.5 307.5,262.5C 307.5,269.5 307.5,276.5 307.5,283.5C 300.5,283.5 293.5,283.5 286.5,283.5C 286.5,276.5 286.5,269.5 286.5,262.5 Z"
       id="path2162" />
  </g>
  <g
     id="g2168">
    <path
       style="opacity:1"
       fill="#91d04f"
       d="M 309.5,262.5 C 316.833,262.5 324.167,262.5 331.5,262.5C 331.5,269.5 331.5,276.5 331.5,283.5C 324.167,283.5 316.833,283.5 309.5,283.5C 309.5,276.5 309.5,269.5 309.5,262.5 Z"
       id="path2166" />
  </g>
  <g
     id="g2180">
    <path
       style="opacity:0.554"
       fill="#000000"
       d="M 280.5,288.5 C 282.394,289.048 284.06,290.048 285.5,291.5C 286.814,290.687 287.981,289.687 289,288.5C 289.833,289.333 290.667,290.167 291.5,291C 290.313,292.019 289.313,293.186 288.5,294.5C 289.5,295.833 290.5,297.167 291.5,298.5C 291.291,299.086 290.957,299.586 290.5,300C 288.583,299.973 286.916,299.139 285.5,297.5C 284.167,298.5 282.833,299.5 281.5,300.5C 280.914,300.291 280.414,299.957 280,299.5C 280.027,297.583 280.861,295.916 282.5,294.5C 281.5,293.167 280.5,291.833 279.5,290.5C 279.863,289.817 280.196,289.15 280.5,288.5 Z"
       id="path2178" />
  </g>
  <g
     id="g2184">
    <path
       style="opacity:1"
       fill="#000000"
       d="M 237.5,302.5 C 269.5,302.5 301.5,302.5 333.5,302.5C 333.5,311.167 333.5,319.833 333.5,328.5C 301.5,328.5 269.5,328.5 237.5,328.5C 237.5,319.833 237.5,311.167 237.5,302.5 Z"
       id="path2182" />
  </g>
  <g
     id="g2188">
    <path
       style="opacity:1"
       fill="#000000"
       d="M 18.5,303.5 C 50.5,303.5 82.5,303.5 114.5,303.5C 114.5,335.5 114.5,367.5 114.5,399.5C 82.5,399.5 50.5,399.5 18.5,399.5C 18.5,367.5 18.5,335.5 18.5,303.5 Z"
       id="path2186" />
  </g>
  <g
     id="g2192">
    <path
       style="opacity:1"
       fill="#000000"
       d="M 152.5,303.5 C 160.833,303.5 169.167,303.5 177.5,303.5C 177.5,335.5 177.5,367.5 177.5,399.5C 169.167,399.5 160.833,399.5 152.5,399.5C 152.5,367.5 152.5,335.5 152.5,303.5 Z"
       id="path2190" />
  </g>
  <g
     id="g2196">
    <path
       style="opacity:1"
       fill="#f1dcda"
       d="M 239.5,304.5 C 246.5,304.5 253.5,304.5 260.5,304.5C 260.5,311.833 260.5,319.167 260.5,326.5C 253.5,326.5 246.5,326.5 239.5,326.5C 239.5,319.167 239.5,311.833 239.5,304.5 Z"
       id="path2194" />
  </g>
  <g
     id="g2200">
    <path
       style="opacity:1"
       fill="#e5b9b7"
       d="M 262.5,304.5 C 269.833,304.5 277.167,304.5 284.5,304.5C 284.5,311.833 284.5,319.167 284.5,326.5C 277.167,326.5 269.833,326.5 262.5,326.5C 262.5,319.167 262.5,311.833 262.5,304.5 Z"
       id="path2198" />
  </g>
  <g
     id="g2204">
    <path
       style="opacity:1"
       fill="#d89693"
       d="M 286.5,304.5 C 293.5,304.5 300.5,304.5 307.5,304.5C 307.5,311.833 307.5,319.167 307.5,326.5C 300.5,326.5 293.5,326.5 286.5,326.5C 286.5,319.167 286.5,311.833 286.5,304.5 Z"
       id="path2202" />
  </g>
  <g
     id="g2208">
    <path
       style="opacity:1"
       fill="#bf504c"
       d="M 309.5,304.5 C 316.833,304.5 324.167,304.5 331.5,304.5C 331.5,311.833 331.5,319.167 331.5,326.5C 324.167,326.5 316.833,326.5 309.5,326.5C 309.5,319.167 309.5,311.833 309.5,304.5 Z"
       id="path2206" />
  </g>
  <g
     id="g2212">
    <path
       style="opacity:1"
       fill="#91d04f"
       d="M 20.5,305.5 C 27.5,305.5 34.5,305.5 41.5,305.5C 41.5,312.5 41.5,319.5 41.5,326.5C 34.5,326.5 27.5,326.5 20.5,326.5C 20.5,319.5 20.5,312.5 20.5,305.5 Z"
       id="path2210" />
  </g>
  <g
     id="g2216">
    <path
       style="opacity:1"
       fill="#feff00"
       d="M 43.5,305.5 C 50.8333,305.5 58.1667,305.5 65.5,305.5C 65.5,312.5 65.5,319.5 65.5,326.5C 58.1667,326.5 50.8333,326.5 43.5,326.5C 43.5,319.5 43.5,312.5 43.5,305.5 Z"
       id="path2214" />
  </g>
  <g
     id="g2220">
    <path
       style="opacity:1"
       fill="#cbc1d9"
       d="M 67.5,305.5 C 74.8333,305.5 82.1667,305.5 89.5,305.5C 89.5,312.5 89.5,319.5 89.5,326.5C 82.1667,326.5 74.8333,326.5 67.5,326.5C 67.5,319.5 67.5,312.5 67.5,305.5 Z"
       id="path2218" />
  </g>
  <g
     id="g2224">
    <path
       style="opacity:1"
       fill="#d8d9d8"
       d="M 91.5,305.5 C 98.5,305.5 105.5,305.5 112.5,305.5C 112.5,312.5 112.5,319.5 112.5,326.5C 105.5,326.5 98.5,326.5 91.5,326.5C 91.5,319.5 91.5,312.5 91.5,305.5 Z"
       id="path2222" />
  </g>
  <g
     id="g2228">
    <path
       style="opacity:1"
       fill="#f1dcda"
       d="M 154.5,305.5 C 161.5,305.5 168.5,305.5 175.5,305.5C 175.5,312.5 175.5,319.5 175.5,326.5C 168.5,326.5 161.5,326.5 154.5,326.5C 154.5,319.5 154.5,312.5 154.5,305.5 Z"
       id="path2226" />
  </g>
  <g
     id="g2240">
    <path
       style="opacity:1"
       fill="#d8d9d8"
       d="M 20.5,328.5 C 27.5,328.5 34.5,328.5 41.5,328.5C 41.5,335.833 41.5,343.167 41.5,350.5C 34.5,350.5 27.5,350.5 20.5,350.5C 20.5,343.167 20.5,335.833 20.5,328.5 Z"
       id="path2238" />
  </g>
  <g
     id="g2244">
    <path
       style="opacity:1"
       fill="#91d04f"
       d="M 43.5,328.5 C 50.8333,328.5 58.1667,328.5 65.5,328.5C 65.5,335.833 65.5,343.167 65.5,350.5C 58.1667,350.5 50.8333,350.5 43.5,350.5C 43.5,343.167 43.5,335.833 43.5,328.5 Z"
       id="path2242" />
  </g>
  <g
     id="g2248">
    <path
       style="opacity:1"
       fill="#feff00"
       d="M 67.5,328.5 C 74.8333,328.5 82.1667,328.5 89.5,328.5C 89.5,335.833 89.5,343.167 89.5,350.5C 82.1667,350.5 74.8333,350.5 67.5,350.5C 67.5,343.167 67.5,335.833 67.5,328.5 Z"
       id="path2246" />
  </g>
  <g
     id="g2252">
    <path
       style="opacity:1"
       fill="#cbc1d9"
       d="M 91.5,328.5 C 98.5,328.5 105.5,328.5 112.5,328.5C 112.5,335.833 112.5,343.167 112.5,350.5C 105.5,350.5 98.5,350.5 91.5,350.5C 91.5,343.167 91.5,335.833 91.5,328.5 Z"
       id="path2250" />
  </g>
  <g
     id="g2256">
    <path
       style="opacity:1"
       fill="#e5b9b7"
       d="M 154.5,328.5 C 161.5,328.5 168.5,328.5 175.5,328.5C 175.5,335.833 175.5,343.167 175.5,350.5C 168.5,350.5 161.5,350.5 154.5,350.5C 154.5,343.167 154.5,335.833 154.5,328.5 Z"
       id="path2254" />
  </g>
  <g
     id="g2260">
    <path
       style="opacity:1"
       fill="#000000"
       d="M 394.5,336.5 C 426.833,336.5 459.167,336.5 491.5,336.5C 491.5,345.167 491.5,353.833 491.5,362.5C 459.167,362.5 426.833,362.5 394.5,362.5C 394.5,353.833 394.5,345.167 394.5,336.5 Z"
       id="path2258" />
  </g>
  <g
     id="g2264">
    <path
       style="opacity:0.96"
       fill="#bebebe"
       d="M 364.5,337.5 C 368.812,341.146 372.812,345.146 376.5,349.5C 372.849,353.652 369.016,357.652 365,361.5C 364.505,359.527 364.338,357.527 364.5,355.5C 360.5,355.5 356.5,355.5 352.5,355.5C 352.5,351.5 352.5,347.5 352.5,343.5C 356.5,343.5 360.5,343.5 364.5,343.5C 364.5,341.5 364.5,339.5 364.5,337.5 Z"
       id="path2262" />
  </g>
  <g
     id="g2268">
    <path
       style="opacity:0.949"
       fill="#bdbdbd"
       d="M 209.5,338.5 C 214.457,341.457 218.457,345.457 221.5,350.5C 218.542,355.126 214.876,359.126 210.5,362.5C 209.534,360.604 209.201,358.604 209.5,356.5C 205.833,356.5 202.167,356.5 198.5,356.5C 198.5,352.5 198.5,348.5 198.5,344.5C 202.167,344.5 205.833,344.5 209.5,344.5C 209.5,342.5 209.5,340.5 209.5,338.5 Z"
       id="path2266" />
  </g>
  <g
     id="g2272">
    <path
       style="opacity:1"
       fill="#dbe6f1"
       d="M 396.5,338.5 C 403.833,338.5 411.167,338.5 418.5,338.5C 418.5,345.833 418.5,353.167 418.5,360.5C 411.167,360.5 403.833,360.5 396.5,360.5C 396.5,353.167 396.5,345.833 396.5,338.5 Z"
       id="path2270" />
  </g>
  <g
     id="g2276">
    <path
       style="opacity:1"
       fill="#b8cde4"
       d="M 420.5,338.5 C 427.833,338.5 435.167,338.5 442.5,338.5C 442.5,345.833 442.5,353.167 442.5,360.5C 435.167,360.5 427.833,360.5 420.5,360.5C 420.5,353.167 420.5,345.833 420.5,338.5 Z"
       id="path2274" />
  </g>
  <g
     id="g2280">
    <path
       style="opacity:1"
       fill="#94b3d6"
       d="M 444.5,338.5 C 451.5,338.5 458.5,338.5 465.5,338.5C 465.5,345.833 465.5,353.167 465.5,360.5C 458.5,360.5 451.5,360.5 444.5,360.5C 444.5,353.167 444.5,345.833 444.5,338.5 Z"
       id="path2278" />
  </g>
  <g
     id="g2284">
    <path
       style="opacity:1"
       fill="#4f81bd"
       d="M 467.5,338.5 C 474.833,338.5 482.167,338.5 489.5,338.5C 489.5,345.833 489.5,353.167 489.5,360.5C 482.167,360.5 474.833,360.5 467.5,360.5C 467.5,353.167 467.5,345.833 467.5,338.5 Z"
       id="path2282" />
  </g>
  <g
     id="g2292">
    <path
       style="opacity:0.645"
       fill="#000000"
       d="M 258.5,346.5 C 259.5,346.5 260.5,346.5 261.5,346.5C 261.5,348.167 261.5,349.833 261.5,351.5C 263.167,351.5 264.833,351.5 266.5,351.5C 266.5,352.5 266.5,353.5 266.5,354.5C 264.833,354.5 263.167,354.5 261.5,354.5C 261.5,356.167 261.5,357.833 261.5,359.5C 260.5,359.5 259.5,359.5 258.5,359.5C 258.5,357.833 258.5,356.167 258.5,354.5C 256.833,354.5 255.167,354.5 253.5,354.5C 253.5,353.5 253.5,352.5 253.5,351.5C 255.167,351.5 256.833,351.5 258.5,351.5C 258.5,349.833 258.5,348.167 258.5,346.5 Z"
       id="path2290" />
  </g>
  <g
     id="g2296">
    <path
       style="opacity:0.645"
       fill="#000000"
       d="M 308.5,346.5 C 309.5,346.5 310.5,346.5 311.5,346.5C 311.5,348.167 311.5,349.833 311.5,351.5C 313.167,351.5 314.833,351.5 316.5,351.5C 316.5,352.5 316.5,353.5 316.5,354.5C 314.833,354.5 313.167,354.5 311.5,354.5C 311.5,356.167 311.5,357.833 311.5,359.5C 310.5,359.5 309.5,359.5 308.5,359.5C 308.5,357.833 308.5,356.167 308.5,354.5C 306.833,354.5 305.167,354.5 303.5,354.5C 303.5,353.5 303.5,352.5 303.5,351.5C 305.167,351.5 306.833,351.5 308.5,351.5C 308.5,349.833 308.5,348.167 308.5,346.5 Z"
       id="path2294" />
  </g>
  <g
     id="g2304">
    <path
       style="opacity:1"
       fill="#cbc1d9"
       d="M 20.5,352.5 C 27.5,352.5 34.5,352.5 41.5,352.5C 41.5,359.5 41.5,366.5 41.5,373.5C 34.5,373.5 27.5,373.5 20.5,373.5C 20.5,366.5 20.5,359.5 20.5,352.5 Z"
       id="path2302" />
  </g>
  <g
     id="g2308">
    <path
       style="opacity:1"
       fill="#d8d9d8"
       d="M 43.5,352.5 C 50.8333,352.5 58.1667,352.5 65.5,352.5C 65.5,359.5 65.5,366.5 65.5,373.5C 58.1667,373.5 50.8333,373.5 43.5,373.5C 43.5,366.5 43.5,359.5 43.5,352.5 Z"
       id="path2306" />
  </g>
  <g
     id="g2312">
    <path
       style="opacity:1"
       fill="#91d04f"
       d="M 67.5,352.5 C 74.8333,352.5 82.1667,352.5 89.5,352.5C 89.5,359.5 89.5,366.5 89.5,373.5C 82.1667,373.5 74.8333,373.5 67.5,373.5C 67.5,366.5 67.5,359.5 67.5,352.5 Z"
       id="path2310" />
  </g>
  <g
     id="g2316">
    <path
       style="opacity:1"
       fill="#feff00"
       d="M 91.5,352.5 C 98.5,352.5 105.5,352.5 112.5,352.5C 112.5,359.5 112.5,366.5 112.5,373.5C 105.5,373.5 98.5,373.5 91.5,373.5C 91.5,366.5 91.5,359.5 91.5,352.5 Z"
       id="path2314" />
  </g>
  <g
     id="g2320">
    <path
       style="opacity:1"
       fill="#d89693"
       d="M 154.5,352.5 C 161.5,352.5 168.5,352.5 175.5,352.5C 175.5,359.5 175.5,366.5 175.5,373.5C 168.5,373.5 161.5,373.5 154.5,373.5C 154.5,366.5 154.5,359.5 154.5,352.5 Z"
       id="path2318" />
  </g>
  <g
     id="g2324">
    <path
       style="opacity:0.479"
       fill="#000000"
       d="M 276.5,352.5 C 278.346,352.222 279.68,352.889 280.5,354.5C 279.68,356.111 278.346,356.778 276.5,356.5C 276.5,355.167 276.5,353.833 276.5,352.5 Z"
       id="path2322" />
  </g>
  <g
     id="g2328">
    <path
       style="opacity:0.479"
       fill="#000000"
       d="M 284.5,352.5 C 285.5,352.5 286.5,352.5 287.5,352.5C 287.5,353.833 287.5,355.167 287.5,356.5C 284.046,356.733 283.046,355.4 284.5,352.5 Z"
       id="path2326" />
  </g>
  <g
     id="g2332">
    <path
       style="opacity:0.516"
       fill="#000000"
       d="M 291.5,352.5 C 296.536,353.505 296.536,354.838 291.5,356.5C 291.5,355.167 291.5,353.833 291.5,352.5 Z"
       id="path2330" />
  </g>
  <g
     id="g2336">
    <path
       style="opacity:1"
       fill="#000000"
       d="M 237.5,374.5 C 269.5,374.5 301.5,374.5 333.5,374.5C 333.5,382.833 333.5,391.167 333.5,399.5C 301.5,399.5 269.5,399.5 237.5,399.5C 237.5,391.167 237.5,382.833 237.5,374.5 Z"
       id="path2334" />
  </g>
  <g
     id="g2340">
    <path
       style="opacity:1"
       fill="#feff00"
       d="M 20.5,375.5 C 27.5,375.5 34.5,375.5 41.5,375.5C 41.5,382.833 41.5,390.167 41.5,397.5C 34.5,397.5 27.5,397.5 20.5,397.5C 20.5,390.167 20.5,382.833 20.5,375.5 Z"
       id="path2338" />
  </g>
  <g
     id="g2344">
    <path
       style="opacity:1"
       fill="#cbc1d9"
       d="M 43.5,375.5 C 50.8333,375.5 58.1667,375.5 65.5,375.5C 65.5,382.833 65.5,390.167 65.5,397.5C 58.1667,397.5 50.8333,397.5 43.5,397.5C 43.5,390.167 43.5,382.833 43.5,375.5 Z"
       id="path2342" />
  </g>
  <g
     id="g2348">
    <path
       style="opacity:1"
       fill="#d8d9d8"
       d="M 67.5,375.5 C 74.8333,375.5 82.1667,375.5 89.5,375.5C 89.5,382.833 89.5,390.167 89.5,397.5C 82.1667,397.5 74.8333,397.5 67.5,397.5C 67.5,390.167 67.5,382.833 67.5,375.5 Z"
       id="path2346" />
  </g>
  <g
     id="g2352">
    <path
       style="opacity:1"
       fill="#91d04f"
       d="M 91.5,375.5 C 98.5,375.5 105.5,375.5 112.5,375.5C 112.5,382.833 112.5,390.167 112.5,397.5C 105.5,397.5 98.5,397.5 91.5,397.5C 91.5,390.167 91.5,382.833 91.5,375.5 Z"
       id="path2350" />
  </g>
  <g
     id="g2356">
    <path
       style="opacity:1"
       fill="#bf504c"
       d="M 154.5,375.5 C 161.5,375.5 168.5,375.5 175.5,375.5C 175.5,382.833 175.5,390.167 175.5,397.5C 168.5,397.5 161.5,397.5 154.5,397.5C 154.5,390.167 154.5,382.833 154.5,375.5 Z"
       id="path2354" />
  </g>
  <g
     id="g2360">
    <path
       style="opacity:1"
       fill="#d8d9d8"
       d="M 239.5,376.5 C 246.5,376.5 253.5,376.5 260.5,376.5C 260.5,383.5 260.5,390.5 260.5,397.5C 253.5,397.5 246.5,397.5 239.5,397.5C 239.5,390.5 239.5,383.5 239.5,376.5 Z"
       id="path2358" />
  </g>
  <g
     id="g2364">
    <path
       style="opacity:1"
       fill="#d8d9d8"
       d="M 262.5,376.5 C 269.833,376.5 277.167,376.5 284.5,376.5C 284.5,383.5 284.5,390.5 284.5,397.5C 277.167,397.5 269.833,397.5 262.5,397.5C 262.5,390.5 262.5,383.5 262.5,376.5 Z"
       id="path2362" />
  </g>
  <g
     id="g2368">
    <path
       style="opacity:1"
       fill="#d8d9d8"
       d="M 286.5,376.5 C 293.5,376.5 300.5,376.5 307.5,376.5C 307.5,383.5 307.5,390.5 307.5,397.5C 300.5,397.5 293.5,397.5 286.5,397.5C 286.5,390.5 286.5,383.5 286.5,376.5 Z"
       id="path2366" />
  </g>
  <g
     id="g2372">
    <path
       style="opacity:1"
       fill="#d8d9d8"
       d="M 309.5,376.5 C 316.833,376.5 324.167,376.5 331.5,376.5C 331.5,383.5 331.5,390.5 331.5,397.5C 324.167,397.5 316.833,397.5 309.5,397.5C 309.5,390.5 309.5,383.5 309.5,376.5 Z"
       id="path2370" />
  </g>
  <g
     id="g2376">
    <path
       style="opacity:0.554"
       fill="#000000"
       d="M 280.5,402.5 C 282.394,403.048 284.06,404.048 285.5,405.5C 286.814,404.687 287.981,403.687 289,402.5C 289.833,403.333 290.667,404.167 291.5,405C 290.313,406.019 289.313,407.186 288.5,408.5C 289.5,409.833 290.5,411.167 291.5,412.5C 291.291,413.086 290.957,413.586 290.5,414C 288.583,413.973 286.916,413.139 285.5,411.5C 284.167,412.5 282.833,413.5 281.5,414.5C 280.914,414.291 280.414,413.957 280,413.5C 280.027,411.583 280.861,409.916 282.5,408.5C 281.5,407.167 280.5,405.833 279.5,404.5C 279.863,403.817 280.196,403.15 280.5,402.5 Z"
       id="path2374" />
  </g>
  <g
     id="g2380">
    <path
       style="opacity:1"
       fill="#000000"
       d="M 237.5,416.5 C 269.5,416.5 301.5,416.5 333.5,416.5C 333.5,424.833 333.5,433.167 333.5,441.5C 301.5,441.5 269.5,441.5 237.5,441.5C 237.5,433.167 237.5,424.833 237.5,416.5 Z"
       id="path2378" />
  </g>
  <g
     id="g2384">
    <path
       style="opacity:1"
       fill="#bf504c"
       d="M 239.5,418.5 C 246.5,418.5 253.5,418.5 260.5,418.5C 260.5,425.5 260.5,432.5 260.5,439.5C 253.5,439.5 246.5,439.5 239.5,439.5C 239.5,432.5 239.5,425.5 239.5,418.5 Z"
       id="path2382" />
  </g>
  <g
     id="g2388">
    <path
       style="opacity:1"
       fill="#d89693"
       d="M 262.5,418.5 C 269.833,418.5 277.167,418.5 284.5,418.5C 284.5,425.5 284.5,432.5 284.5,439.5C 277.167,439.5 269.833,439.5 262.5,439.5C 262.5,432.5 262.5,425.5 262.5,418.5 Z"
       id="path2386" />
  </g>
  <g
     id="g2392">
    <path
       style="opacity:1"
       fill="#e5b9b7"
       d="M 286.5,418.5 C 293.5,418.5 300.5,418.5 307.5,418.5C 307.5,425.5 307.5,432.5 307.5,439.5C 300.5,439.5 293.5,439.5 286.5,439.5C 286.5,432.5 286.5,425.5 286.5,418.5 Z"
       id="path2390" />
  </g>
  <g
     id="g2396">
    <path
       style="opacity:1"
       fill="#f1dcda"
       d="M 309.5,418.5 C 316.833,418.5 324.167,418.5 331.5,418.5C 331.5,425.5 331.5,432.5 331.5,439.5C 324.167,439.5 316.833,439.5 309.5,439.5C 309.5,432.5 309.5,425.5 309.5,418.5 Z"
       id="path2394" />
  </g>
  <g
     id="g2448">
    <path
       style="opacity:1"
       fill="#000000"
       d="M 237.5,530.5 C 269.5,530.5 301.5,530.5 333.5,530.5C 333.5,538.833 333.5,547.167 333.5,555.5C 301.5,555.5 269.5,555.5 237.5,555.5C 237.5,547.167 237.5,538.833 237.5,530.5 Z"
       id="path2446" />
  </g>
  <g
     id="g2452">
    <path
       style="opacity:1"
       fill="#91d04f"
       d="M 239.5,532.5 C 246.5,532.5 253.5,532.5 260.5,532.5C 260.5,539.5 260.5,546.5 260.5,553.5C 253.5,553.5 246.5,553.5 239.5,553.5C 239.5,546.5 239.5,539.5 239.5,532.5 Z"
       id="path2450" />
  </g>
  <g
     id="g2456">
    <path
       style="opacity:1"
       fill="#91d04f"
       d="M 262.5,532.5 C 269.833,532.5 277.167,532.5 284.5,532.5C 284.5,539.5 284.5,546.5 284.5,553.5C 277.167,553.5 269.833,553.5 262.5,553.5C 262.5,546.5 262.5,539.5 262.5,532.5 Z"
       id="path2454" />
  </g>
  <g
     id="g2460">
    <path
       style="opacity:1"
       fill="#91d04f"
       d="M 286.5,532.5 C 293.5,532.5 300.5,532.5 307.5,532.5C 307.5,539.5 307.5,546.5 307.5,553.5C 300.5,553.5 293.5,553.5 286.5,553.5C 286.5,546.5 286.5,539.5 286.5,532.5 Z"
       id="path2458" />
  </g>
  <g
     id="g2464">
    <path
       style="opacity:1"
       fill="#91d04f"
       d="M 309.5,532.5 C 316.833,532.5 324.167,532.5 331.5,532.5C 331.5,539.5 331.5,546.5 331.5,553.5C 324.167,553.5 316.833,553.5 309.5,553.5C 309.5,546.5 309.5,539.5 309.5,532.5 Z"
       id="path2462" />
  </g>
  <g
     id="g2472">
    <path
       style="opacity:0.554"
       fill="#000000"
       d="M 280.5,558.5 C 282.394,559.048 284.06,560.048 285.5,561.5C 286.814,560.687 287.981,559.687 289,558.5C 289.833,559.333 290.667,560.167 291.5,561C 290.313,562.019 289.313,563.186 288.5,564.5C 289.5,565.833 290.5,567.167 291.5,568.5C 291.291,569.086 290.957,569.586 290.5,570C 288.583,569.973 286.916,569.139 285.5,567.5C 284.167,568.5 282.833,569.5 281.5,570.5C 280.914,570.291 280.414,569.957 280,569.5C 280.027,567.583 280.861,565.916 282.5,564.5C 281.5,563.167 280.5,561.833 279.5,560.5C 279.863,559.817 280.196,559.15 280.5,558.5 Z"
       id="path2470" />
  </g>
  <g
     id="g2480">
    <path
       style="opacity:1"
       fill="#000000"
       d="M 237.5,572.5 C 269.5,572.5 301.5,572.5 333.5,572.5C 333.5,581.167 333.5,589.833 333.5,598.5C 301.5,598.5 269.5,598.5 237.5,598.5C 237.5,589.833 237.5,581.167 237.5,572.5 Z"
       id="path2478" />
  </g>
  <g
     id="g2484">
    <path
       style="opacity:1"
       fill="#f1dcda"
       d="M 239.5,574.5 C 246.5,574.5 253.5,574.5 260.5,574.5C 260.5,581.833 260.5,589.167 260.5,596.5C 253.5,596.5 246.5,596.5 239.5,596.5C 239.5,589.167 239.5,581.833 239.5,574.5 Z"
       id="path2482" />
  </g>
  <g
     id="g2488">
    <path
       style="opacity:1"
       fill="#e5b9b7"
       d="M 262.5,574.5 C 269.833,574.5 277.167,574.5 284.5,574.5C 284.5,581.833 284.5,589.167 284.5,596.5C 277.167,596.5 269.833,596.5 262.5,596.5C 262.5,589.167 262.5,581.833 262.5,574.5 Z"
       id="path2486" />
  </g>
  <g
     id="g2492">
    <path
       style="opacity:1"
       fill="#d89693"
       d="M 286.5,574.5 C 293.5,574.5 300.5,574.5 307.5,574.5C 307.5,581.833 307.5,589.167 307.5,596.5C 300.5,596.5 293.5,596.5 286.5,596.5C 286.5,589.167 286.5,581.833 286.5,574.5 Z"
       id="path2490" />
  </g>
  <g
     id="g2496">
    <path
       style="opacity:1"
       fill="#bf504c"
       d="M 309.5,574.5 C 316.833,574.5 324.167,574.5 331.5,574.5C 331.5,581.833 331.5,589.167 331.5,596.5C 324.167,596.5 316.833,596.5 309.5,596.5C 309.5,589.167 309.5,581.833 309.5,574.5 Z"
       id="path2494" />
  </g>
  <g
     id="g2500">
    <path
       style="opacity:1"
       fill="#000000"
       d="M 394.5,576.5 C 426.5,576.5 458.5,576.5 490.5,576.5C 490.5,585.167 490.5,593.833 490.5,602.5C 458.5,602.5 426.5,602.5 394.5,602.5C 394.5,593.833 394.5,585.167 394.5,576.5 Z"
       id="path2498" />
  </g>
  <g
     id="g2504">
    <path
       style="opacity:1"
       fill="#d8d9d8"
       d="M 396.5,578.5 C 403.5,578.5 410.5,578.5 417.5,578.5C 417.5,585.833 417.5,593.167 417.5,600.5C 410.5,600.5 403.5,600.5 396.5,600.5C 396.5,593.167 396.5,585.833 396.5,578.5 Z"
       id="path2502" />
  </g>
  <g
     id="g2508">
    <path
       style="opacity:1"
       fill="#bebfbe"
       d="M 419.5,578.5 C 426.833,578.5 434.167,578.5 441.5,578.5C 441.5,585.833 441.5,593.167 441.5,600.5C 434.167,600.5 426.833,600.5 419.5,600.5C 419.5,593.167 419.5,585.833 419.5,578.5 Z"
       id="path2506" />
  </g>
  <g
     id="g2512">
    <path
       style="opacity:1"
       fill="#7e7f7e"
       d="M 443.5,578.5 C 450.5,578.5 457.5,578.5 464.5,578.5C 464.5,585.833 464.5,593.167 464.5,600.5C 457.5,600.5 450.5,600.5 443.5,600.5C 443.5,593.167 443.5,585.833 443.5,578.5 Z"
       id="path2510" />
  </g>
  <g
     id="g2516">
    <path
       style="opacity:1"
       fill="#585958"
       d="M 466.5,578.5 C 473.833,578.5 481.167,578.5 488.5,578.5C 488.5,585.833 488.5,593.167 488.5,600.5C 481.167,600.5 473.833,600.5 466.5,600.5C 466.5,593.167 466.5,585.833 466.5,578.5 Z"
       id="path2514" />
  </g>
  <g
     id="g2520">
    <path
       style="opacity:1"
       fill="#000000"
       d="M 18.5,585.5 C 50.5,585.5 82.5,585.5 114.5,585.5C 114.5,601.833 114.5,618.167 114.5,634.5C 82.5,634.5 50.5,634.5 18.5,634.5C 18.5,618.167 18.5,601.833 18.5,585.5 Z"
       id="path2518" />
  </g>
  <g
     id="g2524">
    <path
       style="opacity:1"
       fill="#000000"
       d="M 152.5,585.5 C 160.833,585.5 169.167,585.5 177.5,585.5C 177.5,617.5 177.5,649.5 177.5,681.5C 169.167,681.5 160.833,681.5 152.5,681.5C 152.5,649.5 152.5,617.5 152.5,585.5 Z"
       id="path2522" />
  </g>
  <g
     id="g2528">
    <path
       style="opacity:1"
       fill="#91d04f"
       d="M 20.5,587.5 C 27.5,587.5 34.5,587.5 41.5,587.5C 41.5,594.833 41.5,602.167 41.5,609.5C 34.5,609.5 27.5,609.5 20.5,609.5C 20.5,602.167 20.5,594.833 20.5,587.5 Z"
       id="path2526" />
  </g>
  <g
     id="g2532">
    <path
       style="opacity:1"
       fill="#feff00"
       d="M 43.5,587.5 C 50.8333,587.5 58.1667,587.5 65.5,587.5C 65.5,594.833 65.5,602.167 65.5,609.5C 58.1667,609.5 50.8333,609.5 43.5,609.5C 43.5,602.167 43.5,594.833 43.5,587.5 Z"
       id="path2530" />
  </g>
  <g
     id="g2536">
    <path
       style="opacity:1"
       fill="#91d04f"
       d="M 67.5,587.5 C 74.8333,587.5 82.1667,587.5 89.5,587.5C 89.5,594.833 89.5,602.167 89.5,609.5C 82.1667,609.5 74.8333,609.5 67.5,609.5C 67.5,602.167 67.5,594.833 67.5,587.5 Z"
       id="path2534" />
  </g>
  <g
     id="g2540">
    <path
       style="opacity:1"
       fill="#feff00"
       d="M 91.5,587.5 C 98.5,587.5 105.5,587.5 112.5,587.5C 112.5,594.833 112.5,602.167 112.5,609.5C 105.5,609.5 98.5,609.5 91.5,609.5C 91.5,602.167 91.5,594.833 91.5,587.5 Z"
       id="path2538" />
  </g>
  <g
     id="g2544">
    <path
       style="opacity:1"
       fill="#f1dcda"
       d="M 154.5,587.5 C 161.5,587.5 168.5,587.5 175.5,587.5C 175.5,594.833 175.5,602.167 175.5,609.5C 168.5,609.5 161.5,609.5 154.5,609.5C 154.5,602.167 154.5,594.833 154.5,587.5 Z"
       id="path2542" />
  </g>
  <g
     id="g2548">
    <path
       style="opacity:0.645"
       fill="#000000"
       d="M 283.5,602.5 C 284.5,602.5 285.5,602.5 286.5,602.5C 286.5,604.167 286.5,605.833 286.5,607.5C 288.167,607.5 289.833,607.5 291.5,607.5C 291.5,608.5 291.5,609.5 291.5,610.5C 289.833,610.5 288.167,610.5 286.5,610.5C 286.5,612.167 286.5,613.833 286.5,615.5C 285.5,615.5 284.5,615.5 283.5,615.5C 283.5,613.833 283.5,612.167 283.5,610.5C 281.833,610.5 280.167,610.5 278.5,610.5C 278.5,609.5 278.5,608.5 278.5,607.5C 280.167,607.5 281.833,607.5 283.5,607.5C 283.5,605.833 283.5,604.167 283.5,602.5 Z"
       id="path2546" />
  </g>
  <g
     id="g2552">
    <path
       style="opacity:0.645"
       fill="#000000"
       d="M 440.5,604.5 C 441.5,604.5 442.5,604.5 443.5,604.5C 443.5,606.167 443.5,607.833 443.5,609.5C 445.167,609.5 446.833,609.5 448.5,609.5C 448.5,610.5 448.5,611.5 448.5,612.5C 446.833,612.5 445.167,612.5 443.5,612.5C 443.5,614.167 443.5,615.833 443.5,617.5C 442.5,617.5 441.5,617.5 440.5,617.5C 440.5,615.833 440.5,614.167 440.5,612.5C 438.833,612.5 437.167,612.5 435.5,612.5C 435.5,611.5 435.5,610.5 435.5,609.5C 437.167,609.5 438.833,609.5 440.5,609.5C 440.5,607.833 440.5,606.167 440.5,604.5 Z"
       id="path2550" />
  </g>
  <g
     id="g2556">
    <path
       style="opacity:1"
       fill="#feff00"
       d="M 20.5,611.5 C 27.5,611.5 34.5,611.5 41.5,611.5C 41.5,618.5 41.5,625.5 41.5,632.5C 34.5,632.5 27.5,632.5 20.5,632.5C 20.5,625.5 20.5,618.5 20.5,611.5 Z"
       id="path2554" />
  </g>
  <g
     id="g2560">
    <path
       style="opacity:1"
       fill="#91d04f"
       d="M 43.5,611.5 C 50.8333,611.5 58.1667,611.5 65.5,611.5C 65.5,618.5 65.5,625.5 65.5,632.5C 58.1667,632.5 50.8333,632.5 43.5,632.5C 43.5,625.5 43.5,618.5 43.5,611.5 Z"
       id="path2558" />
  </g>
  <g
     id="g2564">
    <path
       style="opacity:1"
       fill="#feff00"
       d="M 67.5,611.5 C 74.8333,611.5 82.1667,611.5 89.5,611.5C 89.5,618.5 89.5,625.5 89.5,632.5C 82.1667,632.5 74.8333,632.5 67.5,632.5C 67.5,625.5 67.5,618.5 67.5,611.5 Z"
       id="path2562" />
  </g>
  <g
     id="g2568">
    <path
       style="opacity:1"
       fill="#91d04f"
       d="M 91.5,611.5 C 98.5,611.5 105.5,611.5 112.5,611.5C 112.5,618.5 112.5,625.5 112.5,632.5C 105.5,632.5 98.5,632.5 91.5,632.5C 91.5,625.5 91.5,618.5 91.5,611.5 Z"
       id="path2566" />
  </g>
  <g
     id="g2572">
    <path
       style="opacity:1"
       fill="#e5b9b7"
       d="M 154.5,611.5 C 161.5,611.5 168.5,611.5 175.5,611.5C 175.5,618.5 175.5,625.5 175.5,632.5C 168.5,632.5 161.5,632.5 154.5,632.5C 154.5,625.5 154.5,618.5 154.5,611.5 Z"
       id="path2570" />
  </g>
  <g
     id="g2576">
    <path
       style="opacity:1"
       fill="#000000"
       d="M 237.5,619.5 C 269.5,619.5 301.5,619.5 333.5,619.5C 333.5,628.167 333.5,636.833 333.5,645.5C 301.5,645.5 269.5,645.5 237.5,645.5C 237.5,636.833 237.5,628.167 237.5,619.5 Z"
       id="path2574" />
  </g>
  <g
     id="g2580">
    <path
       style="opacity:1"
       fill="#000000"
       d="M 394.5,619.5 C 426.5,619.5 458.5,619.5 490.5,619.5C 490.5,627.833 490.5,636.167 490.5,644.5C 458.5,644.5 426.5,644.5 394.5,644.5C 394.5,636.167 394.5,627.833 394.5,619.5 Z"
       id="path2578" />
  </g>
  <g
     id="g2584">
    <path
       style="opacity:0.969"
       fill="#bebebe"
       d="M 364.5,620.5 C 369.282,623.447 373.282,627.28 376.5,632C 373.365,636.302 369.699,640.136 365.5,643.5C 364.548,641.955 364.215,640.288 364.5,638.5C 360.5,638.5 356.5,638.5 352.5,638.5C 352.5,634.167 352.5,629.833 352.5,625.5C 356.5,625.5 360.5,625.5 364.5,625.5C 364.5,623.833 364.5,622.167 364.5,620.5 Z"
       id="path2582" />
  </g>
  <g
     id="g2588">
    <path
       style="opacity:0.967"
       fill="#bebebe"
       d="M 209.5,621.5 C 214.282,624.447 218.282,628.28 221.5,633C 218.365,637.302 214.699,641.136 210.5,644.5C 209.548,642.955 209.215,641.288 209.5,639.5C 205.833,639.5 202.167,639.5 198.5,639.5C 198.5,635.167 198.5,630.833 198.5,626.5C 202.167,626.5 205.833,626.5 209.5,626.5C 209.5,624.833 209.5,623.167 209.5,621.5 Z"
       id="path2586" />
  </g>
  <g
     id="g2592">
    <path
       style="opacity:1"
       fill="#feff00"
       d="M 239.5,621.5 C 246.5,621.5 253.5,621.5 260.5,621.5C 260.5,628.833 260.5,636.167 260.5,643.5C 253.5,643.5 246.5,643.5 239.5,643.5C 239.5,636.167 239.5,628.833 239.5,621.5 Z"
       id="path2590" />
  </g>
  <g
     id="g2596">
    <path
       style="opacity:1"
       fill="#feff00"
       d="M 262.5,621.5 C 269.833,621.5 277.167,621.5 284.5,621.5C 284.5,628.833 284.5,636.167 284.5,643.5C 277.167,643.5 269.833,643.5 262.5,643.5C 262.5,636.167 262.5,628.833 262.5,621.5 Z"
       id="path2594" />
  </g>
  <g
     id="g2600">
    <path
       style="opacity:1"
       fill="#feff00"
       d="M 286.5,621.5 C 293.5,621.5 300.5,621.5 307.5,621.5C 307.5,628.833 307.5,636.167 307.5,643.5C 300.5,643.5 293.5,643.5 286.5,643.5C 286.5,636.167 286.5,628.833 286.5,621.5 Z"
       id="path2598" />
  </g>
  <g
     id="g2604">
    <path
       style="opacity:1"
       fill="#feff00"
       d="M 309.5,621.5 C 316.833,621.5 324.167,621.5 331.5,621.5C 331.5,628.833 331.5,636.167 331.5,643.5C 324.167,643.5 316.833,643.5 309.5,643.5C 309.5,636.167 309.5,628.833 309.5,621.5 Z"
       id="path2602" />
  </g>
  <g
     id="g2608">
    <path
       style="opacity:1"
       fill="#7e7f7e"
       d="M 396.5,621.5 C 403.5,621.5 410.5,621.5 417.5,621.5C 417.5,628.5 417.5,635.5 417.5,642.5C 410.5,642.5 403.5,642.5 396.5,642.5C 396.5,635.5 396.5,628.5 396.5,621.5 Z"
       id="path2606" />
  </g>
  <g
     id="g2612">
    <path
       style="opacity:1"
       fill="#585958"
       d="M 419.5,621.5 C 426.833,621.5 434.167,621.5 441.5,621.5C 441.5,628.5 441.5,635.5 441.5,642.5C 434.167,642.5 426.833,642.5 419.5,642.5C 419.5,635.5 419.5,628.5 419.5,621.5 Z"
       id="path2610" />
  </g>
  <g
     id="g2616">
    <path
       style="opacity:1"
       fill="#d8d9d8"
       d="M 443.5,621.5 C 450.5,621.5 457.5,621.5 464.5,621.5C 464.5,628.5 464.5,635.5 464.5,642.5C 457.5,642.5 450.5,642.5 443.5,642.5C 443.5,635.5 443.5,628.5 443.5,621.5 Z"
       id="path2614" />
  </g>
  <g
     id="g2620">
    <path
       style="opacity:1"
       fill="#a5a6a5"
       d="M 466.5,621.5 C 473.833,621.5 481.167,621.5 488.5,621.5C 488.5,628.5 488.5,635.5 488.5,642.5C 481.167,642.5 473.833,642.5 466.5,642.5C 466.5,635.5 466.5,628.5 466.5,621.5 Z"
       id="path2618" />
  </g>
  <g
     id="g2632">
    <path
       style="opacity:1"
       fill="#d89693"
       d="M 154.5,634.5 C 161.5,634.5 168.5,634.5 175.5,634.5C 175.5,641.833 175.5,649.167 175.5,656.5C 168.5,656.5 161.5,656.5 154.5,656.5C 154.5,649.167 154.5,641.833 154.5,634.5 Z"
       id="path2630" />
  </g>
  <g
     id="g2636">
    <path
       style="opacity:0.554"
       fill="#000000"
       d="M 280.5,647.5 C 282.394,648.048 284.06,649.048 285.5,650.5C 286.814,649.687 287.981,648.687 289,647.5C 289.833,648.333 290.667,649.167 291.5,650C 290.313,651.019 289.313,652.186 288.5,653.5C 289.5,654.833 290.5,656.167 291.5,657.5C 291.291,658.086 290.957,658.586 290.5,659C 288.583,658.973 286.916,658.139 285.5,656.5C 284.167,657.5 282.833,658.5 281.5,659.5C 280.914,659.291 280.414,658.957 280,658.5C 280.027,656.583 280.861,654.916 282.5,653.5C 281.5,652.167 280.5,650.833 279.5,649.5C 279.863,648.817 280.196,648.15 280.5,647.5 Z"
       id="path2634" />
  </g>
  <g
     id="g2640">
    <path
       style="opacity:0.621"
       fill="#000000"
       d="M 436.5,649.5 C 440.833,649.5 445.167,649.5 449.5,649.5C 449.5,650.5 449.5,651.5 449.5,652.5C 445.167,652.5 440.833,652.5 436.5,652.5C 436.5,651.5 436.5,650.5 436.5,649.5 Z"
       id="path2638" />
  </g>
  <g
     id="g2644">
    <path
       style="opacity:0.621"
       fill="#000000"
       d="M 436.5,654.5 C 440.833,654.5 445.167,654.5 449.5,654.5C 449.5,655.5 449.5,656.5 449.5,657.5C 445.167,657.5 440.833,657.5 436.5,657.5C 436.5,656.5 436.5,655.5 436.5,654.5 Z"
       id="path2642" />
  </g>
  <g
     id="g2648">
    <path
       style="opacity:1"
       fill="#bf504c"
       d="M 154.5,658.5 C 161.5,658.5 168.5,658.5 175.5,658.5C 175.5,665.5 175.5,672.5 175.5,679.5C 168.5,679.5 161.5,679.5 154.5,679.5C 154.5,672.5 154.5,665.5 154.5,658.5 Z"
       id="path2646" />
  </g>
  <g
     id="g2652">
    <path
       style="opacity:1"
       fill="#000000"
       d="M 237.5,661.5 C 269.5,661.5 301.5,661.5 333.5,661.5C 333.5,670.167 333.5,678.833 333.5,687.5C 301.5,687.5 269.5,687.5 237.5,687.5C 237.5,678.833 237.5,670.167 237.5,661.5 Z"
       id="path2650" />
  </g>
  <g
     id="g2656">
    <path
       style="opacity:1"
       fill="#e5b9b7"
       d="M 239.5,663.5 C 246.5,663.5 253.5,663.5 260.5,663.5C 260.5,670.833 260.5,678.167 260.5,685.5C 253.5,685.5 246.5,685.5 239.5,685.5C 239.5,678.167 239.5,670.833 239.5,663.5 Z"
       id="path2654" />
  </g>
  <g
     id="g2660">
    <path
       style="opacity:1"
       fill="#d89693"
       d="M 262.5,663.5 C 269.833,663.5 277.167,663.5 284.5,663.5C 284.5,670.833 284.5,678.167 284.5,685.5C 277.167,685.5 269.833,685.5 262.5,685.5C 262.5,678.167 262.5,670.833 262.5,663.5 Z"
       id="path2658" />
  </g>
  <g
     id="g2664">
    <path
       style="opacity:1"
       fill="#bf504c"
       d="M 286.5,663.5 C 293.5,663.5 300.5,663.5 307.5,663.5C 307.5,670.833 307.5,678.167 307.5,685.5C 300.5,685.5 293.5,685.5 286.5,685.5C 286.5,678.167 286.5,670.833 286.5,663.5 Z"
       id="path2662" />
  </g>
  <g
     id="g2668">
    <path
       style="opacity:1"
       fill="#f1dcda"
       d="M 309.5,663.5 C 316.833,663.5 324.167,663.5 331.5,663.5C 331.5,670.833 331.5,678.167 331.5,685.5C 324.167,685.5 316.833,685.5 309.5,685.5C 309.5,678.167 309.5,670.833 309.5,663.5 Z"
       id="path2666" />
  </g>
  <g
     id="g2672">
    <path
       style="opacity:1"
       fill="#000000"
       d="M 394.5,665.5 C 426.5,665.5 458.5,665.5 490.5,665.5C 490.5,673.833 490.5,682.167 490.5,690.5C 458.5,690.5 426.5,690.5 394.5,690.5C 394.5,682.167 394.5,673.833 394.5,665.5 Z"
       id="path2670" />
  </g>
  <g
     id="g2676">
    <path
       style="opacity:1"
       fill="#dbe6f1"
       d="M 396.5,667.5 C 403.5,667.5 410.5,667.5 417.5,667.5C 417.5,674.5 417.5,681.5 417.5,688.5C 410.5,688.5 403.5,688.5 396.5,688.5C 396.5,681.5 396.5,674.5 396.5,667.5 Z"
       id="path2674" />
  </g>
  <g
     id="g2680">
    <path
       style="opacity:1"
       fill="#b8cde4"
       d="M 419.5,667.5 C 426.833,667.5 434.167,667.5 441.5,667.5C 441.5,674.5 441.5,681.5 441.5,688.5C 434.167,688.5 426.833,688.5 419.5,688.5C 419.5,681.5 419.5,674.5 419.5,667.5 Z"
       id="path2678" />
  </g>
  <g
     id="g2684">
    <path
       style="opacity:1"
       fill="#fefffe"
       d="M 443.5,667.5 C 450.5,667.5 457.5,667.5 464.5,667.5C 464.5,674.5 464.5,681.5 464.5,688.5C 457.5,688.5 450.5,688.5 443.5,688.5C 443.5,681.5 443.5,674.5 443.5,667.5 Z"
       id="path2682" />
  </g>
  <g
     id="g2688">
    <path
       style="opacity:1"
       fill="#fefffe"
       d="M 466.5,667.5 C 473.833,667.5 481.167,667.5 488.5,667.5C 488.5,674.5 488.5,681.5 488.5,688.5C 481.167,688.5 473.833,688.5 466.5,688.5C 466.5,681.5 466.5,674.5 466.5,667.5 Z"
       id="path2686" />
  </g>
  <g
     id="g2692">
    <path
       style="opacity:0.621"
       fill="#000000"
       d="M 278.5,692.5 C 282.833,692.5 287.167,692.5 291.5,692.5C 291.5,693.5 291.5,694.5 291.5,695.5C 287.167,695.5 282.833,695.5 278.5,695.5C 278.5,694.5 278.5,693.5 278.5,692.5 Z"
       id="path2690" />
  </g>
  <g
     id="g2696">
    <path
       style="opacity:0.621"
       fill="#000000"
       d="M 278.5,697.5 C 282.833,697.5 287.167,697.5 291.5,697.5C 291.5,698.5 291.5,699.5 291.5,700.5C 287.167,700.5 282.833,700.5 278.5,700.5C 278.5,699.5 278.5,698.5 278.5,697.5 Z"
       id="path2694" />
  </g>
  <g
     id="g2708">
    <path
       style="opacity:1"
       fill="#000000"
       d="M 237.5,707.5 C 269.5,707.5 301.5,707.5 333.5,707.5C 333.5,716.167 333.5,724.833 333.5,733.5C 301.5,733.5 269.5,733.5 237.5,733.5C 237.5,724.833 237.5,716.167 237.5,707.5 Z"
       id="path2706" />
  </g>
  <g
     id="g2720">
    <path
       style="opacity:1"
       fill="#d8d9d8"
       d="M 239.5,709.5 C 246.5,709.5 253.5,709.5 260.5,709.5C 260.5,716.833 260.5,724.167 260.5,731.5C 253.5,731.5 246.5,731.5 239.5,731.5C 239.5,724.167 239.5,716.833 239.5,709.5 Z"
       id="path2718" />
  </g>
  <g
     id="g2724">
    <path
       style="opacity:1"
       fill="#bebfbe"
       d="M 262.5,709.5 C 269.833,709.5 277.167,709.5 284.5,709.5C 284.5,716.833 284.5,724.167 284.5,731.5C 277.167,731.5 269.833,731.5 262.5,731.5C 262.5,724.167 262.5,716.833 262.5,709.5 Z"
       id="path2722" />
  </g>
  <g
     id="g2728">
    <path
       style="opacity:1"
       fill="#7e7f7e"
       d="M 286.5,709.5 C 293.5,709.5 300.5,709.5 307.5,709.5C 307.5,716.833 307.5,724.167 307.5,731.5C 300.5,731.5 293.5,731.5 286.5,731.5C 286.5,724.167 286.5,716.833 286.5,709.5 Z"
       id="path2726" />
  </g>
  <g
     id="g2732">
    <path
       style="opacity:1"
       fill="#585958"
       d="M 309.5,709.5 C 316.833,709.5 324.167,709.5 331.5,709.5C 331.5,716.833 331.5,724.167 331.5,731.5C 324.167,731.5 316.833,731.5 309.5,731.5C 309.5,724.167 309.5,716.833 309.5,709.5 Z"
       id="path2730" />
  </g>
</svg>
