<?xml version="1.0" encoding="UTF-8" standalone="no"?>
<!-- Created with Inkscape (http://www.inkscape.org/) -->

<svg
   width="127.54791mm"
   height="50.289581mm"
   viewBox="0 0 127.54791 50.289581"
   version="1.1"
   id="svg9184"
   inkscape:version="1.1.2 (0a00cf5339, 2022-02-04)"
   sodipodi:docname="matmul-diagonal.svg"
   xmlns:inkscape="http://www.inkscape.org/namespaces/inkscape"
   xmlns:sodipodi="http://sodipodi.sourceforge.net/DTD/sodipodi-0.dtd"
   xmlns="http://www.w3.org/2000/svg"
   xmlns:svg="http://www.w3.org/2000/svg">
  <sodipodi:namedview
     id="namedview9186"
     pagecolor="#ffffff"
     bordercolor="#666666"
     borderopacity="1.0"
     inkscape:pageshadow="2"
     inkscape:pageopacity="0.0"
     inkscape:pagecheckerboard="0"
     inkscape:document-units="mm"
     showgrid="false"
     fit-margin-top="1.2"
     fit-margin-left="1.2"
     fit-margin-right="1.2"
     fit-margin-bottom="1.2"
     inkscape:zoom="0.64052329"
     inkscape:cx="237.30597"
     inkscape:cy="508.95886"
     inkscape:window-width="2560"
     inkscape:window-height="1371"
     inkscape:window-x="0"
     inkscape:window-y="32"
     inkscape:window-maximized="1"
     inkscape:current-layer="layer1" />
  <defs
     id="defs9181" />
  <g
     inkscape:label="Layer 1"
     inkscape:groupmode="layer"
     id="layer1"
     transform="translate(-41.972914,-13.684137)">
    <g
       id="g2152"
       style="clip-rule:evenodd;fill-rule:evenodd;image-rendering:optimizeQuality;shape-rendering:geometricPrecision;text-rendering:geometricPrecision"
       transform="matrix(0.26458333,0,0,0.26458333,38.278122,-54.03982)">
      <path
         style="opacity:1"
         fill="#000000"
         d="m 237.5,260.5 c 32,0 64,0 96,0 0,8.333 0,16.667 0,25 -32,0 -64,0 -96,0 0,-8.333 0,-16.667 0,-25 z"
         id="path2150" />
    </g>
    <g
       id="g2156"
       style="clip-rule:evenodd;fill-rule:evenodd;image-rendering:optimizeQuality;shape-rendering:geometricPrecision;text-rendering:geometricPrecision"
       transform="matrix(0.26458333,0,0,0.26458333,38.278122,-54.03982)">
      <path
         style="opacity:1"
         fill="#91d04f"
         d="m 239.5,262.5 c 7,0 14,0 21,0 0,7 0,14 0,21 -7,0 -14,0 -21,0 0,-7 0,-14 0,-21 z"
         id="path2154" />
    </g>
    <g
       id="g2160"
       style="clip-rule:evenodd;fill-rule:evenodd;image-rendering:optimizeQuality;shape-rendering:geometricPrecision;text-rendering:geometricPrecision"
       transform="matrix(0.26458333,0,0,0.26458333,38.278122,-54.03982)">
      <path
         style="opacity:1"
         fill="#91d04f"
         d="m 262.5,262.5 c 7.333,0 14.667,0 22,0 0,7 0,14 0,21 -7.333,0 -14.667,0 -22,0 0,-7 0,-14 0,-21 z"
         id="path2158" />
    </g>
    <g
       id="g2164"
       style="clip-rule:evenodd;fill-rule:evenodd;image-rendering:optimizeQuality;shape-rendering:geometricPrecision;text-rendering:geometricPrecision"
       transform="matrix(0.26458333,0,0,0.26458333,38.278122,-54.03982)">
      <path
         style="opacity:1"
         fill="#91d04f"
         d="m 286.5,262.5 c 7,0 14,0 21,0 0,7 0,14 0,21 -7,0 -14,0 -21,0 0,-7 0,-14 0,-21 z"
         id="path2162" />
    </g>
    <g
       id="g2168"
       style="clip-rule:evenodd;fill-rule:evenodd;image-rendering:optimizeQuality;shape-rendering:geometricPrecision;text-rendering:geometricPrecision"
       transform="matrix(0.26458333,0,0,0.26458333,38.278122,-54.03982)">
      <path
         style="opacity:1"
         fill="#91d04f"
         d="m 309.5,262.5 c 7.333,0 14.667,0 22,0 0,7 0,14 0,21 -7.333,0 -14.667,0 -22,0 0,-7 0,-14 0,-21 z"
         id="path2166" />
    </g>
    <g
       id="g2180"
       style="clip-rule:evenodd;fill-rule:evenodd;image-rendering:optimizeQuality;shape-rendering:geometricPrecision;text-rendering:geometricPrecision"
       transform="matrix(0.26458333,0,0,0.26458333,38.278122,-54.03982)">
      <path
         style="opacity:0.554"
         fill="#000000"
         d="m 280.5,288.5 c 1.894,0.548 3.56,1.548 5,3 1.314,-0.813 2.481,-1.813 3.5,-3 0.833,0.833 1.667,1.667 2.5,2.5 -1.187,1.019 -2.187,2.186 -3,3.5 1,1.333 2,2.667 3,4 -0.209,0.586 -0.543,1.086 -1,1.5 -1.917,-0.027 -3.584,-0.861 -5,-2.5 -1.333,1 -2.667,2 -4,3 -0.586,-0.209 -1.086,-0.543 -1.5,-1 0.027,-1.917 0.861,-3.584 2.5,-5 -1,-1.333 -2,-2.667 -3,-4 0.363,-0.683 0.696,-1.35 1,-2 z"
         id="path2178" />
    </g>
    <g
       id="g2184"
       style="clip-rule:evenodd;fill-rule:evenodd;image-rendering:optimizeQuality;shape-rendering:geometricPrecision;text-rendering:geometricPrecision"
       transform="matrix(0.26458333,0,0,0.26458333,38.278122,-54.03982)">
      <path
         style="opacity:1"
         fill="#000000"
         d="m 237.5,302.5 c 32,0 64,0 96,0 0,8.667 0,17.333 0,26 -32,0 -64,0 -96,0 0,-8.667 0,-17.333 0,-26 z"
         id="path2182" />
    </g>
    <g
       id="g2188"
       style="clip-rule:evenodd;fill-rule:evenodd;image-rendering:optimizeQuality;shape-rendering:geometricPrecision;text-rendering:geometricPrecision"
       transform="matrix(0.26458333,0,0,0.26458333,38.278122,-54.03982)">
      <path
         style="opacity:1"
         fill="#000000"
         d="m 18.5,303.5 c 32,0 64,0 96,0 0,32 0,64 0,96 -32,0 -64,0 -96,0 0,-32 0,-64 0,-96 z"
         id="path2186" />
    </g>
    <g
       id="g2192"
       style="clip-rule:evenodd;fill-rule:evenodd;image-rendering:optimizeQuality;shape-rendering:geometricPrecision;text-rendering:geometricPrecision"
       transform="matrix(0.26458333,0,0,0.26458333,38.278122,-54.03982)">
      <path
         style="opacity:1"
         fill="#000000"
         d="m 152.5,303.5 c 8.333,0 16.667,0 25,0 0,32 0,64 0,96 -8.333,0 -16.667,0 -25,0 0,-32 0,-64 0,-96 z"
         id="path2190" />
    </g>
    <g
       id="g2196"
       style="clip-rule:evenodd;fill-rule:evenodd;image-rendering:optimizeQuality;shape-rendering:geometricPrecision;text-rendering:geometricPrecision"
       transform="matrix(0.26458333,0,0,0.26458333,38.278122,-54.03982)">
      <path
         style="opacity:1"
         fill="#f1dcda"
         d="m 239.5,304.5 c 7,0 14,0 21,0 0,7.333 0,14.667 0,22 -7,0 -14,0 -21,0 0,-7.333 0,-14.667 0,-22 z"
         id="path2194" />
    </g>
    <g
       id="g2200"
       style="clip-rule:evenodd;fill-rule:evenodd;image-rendering:optimizeQuality;shape-rendering:geometricPrecision;text-rendering:geometricPrecision"
       transform="matrix(0.26458333,0,0,0.26458333,38.278122,-54.03982)">
      <path
         style="opacity:1"
         fill="#e5b9b7"
         d="m 262.5,304.5 c 7.333,0 14.667,0 22,0 0,7.333 0,14.667 0,22 -7.333,0 -14.667,0 -22,0 0,-7.333 0,-14.667 0,-22 z"
         id="path2198" />
    </g>
    <g
       id="g2204"
       style="clip-rule:evenodd;fill-rule:evenodd;image-rendering:optimizeQuality;shape-rendering:geometricPrecision;text-rendering:geometricPrecision"
       transform="matrix(0.26458333,0,0,0.26458333,38.278122,-54.03982)">
      <path
         style="opacity:1"
         fill="#d89693"
         d="m 286.5,304.5 c 7,0 14,0 21,0 0,7.333 0,14.667 0,22 -7,0 -14,0 -21,0 0,-7.333 0,-14.667 0,-22 z"
         id="path2202" />
    </g>
    <g
       id="g2208"
       style="clip-rule:evenodd;fill-rule:evenodd;image-rendering:optimizeQuality;shape-rendering:geometricPrecision;text-rendering:geometricPrecision"
       transform="matrix(0.26458333,0,0,0.26458333,38.278122,-54.03982)">
      <path
         style="opacity:1"
         fill="#bf504c"
         d="m 309.5,304.5 c 7.333,0 14.667,0 22,0 0,7.333 0,14.667 0,22 -7.333,0 -14.667,0 -22,0 0,-7.333 0,-14.667 0,-22 z"
         id="path2206" />
    </g>
    <g
       id="g2212"
       style="clip-rule:evenodd;fill-rule:evenodd;image-rendering:optimizeQuality;shape-rendering:geometricPrecision;text-rendering:geometricPrecision"
       transform="matrix(0.26458333,0,0,0.26458333,38.278122,-54.03982)">
      <path
         style="opacity:1"
         fill="#91d04f"
         d="m 20.5,305.5 c 7,0 14,0 21,0 0,7 0,14 0,21 -7,0 -14,0 -21,0 0,-7 0,-14 0,-21 z"
         id="path2210" />
    </g>
    <g
       id="g2216"
       style="clip-rule:evenodd;fill-rule:evenodd;image-rendering:optimizeQuality;shape-rendering:geometricPrecision;text-rendering:geometricPrecision"
       transform="matrix(0.26458333,0,0,0.26458333,38.278122,-54.03982)">
      <path
         style="opacity:1"
         fill="#feff00"
         d="m 43.5,305.5 c 7.3333,0 14.6667,0 22,0 0,7 0,14 0,21 -7.3333,0 -14.6667,0 -22,0 0,-7 0,-14 0,-21 z"
         id="path2214" />
    </g>
    <g
       id="g2220"
       style="clip-rule:evenodd;fill-rule:evenodd;image-rendering:optimizeQuality;shape-rendering:geometricPrecision;text-rendering:geometricPrecision"
       transform="matrix(0.26458333,0,0,0.26458333,38.278122,-54.03982)">
      <path
         style="opacity:1"
         fill="#cbc1d9"
         d="m 67.5,305.5 c 7.3333,0 14.6667,0 22,0 0,7 0,14 0,21 -7.3333,0 -14.6667,0 -22,0 0,-7 0,-14 0,-21 z"
         id="path2218" />
    </g>
    <g
       id="g2224"
       style="clip-rule:evenodd;fill-rule:evenodd;image-rendering:optimizeQuality;shape-rendering:geometricPrecision;text-rendering:geometricPrecision"
       transform="matrix(0.26458333,0,0,0.26458333,38.278122,-54.03982)">
      <path
         style="opacity:1"
         fill="#d8d9d8"
         d="m 91.5,305.5 c 7,0 14,0 21,0 0,7 0,14 0,21 -7,0 -14,0 -21,0 0,-7 0,-14 0,-21 z"
         id="path2222" />
    </g>
    <g
       id="g2228"
       style="clip-rule:evenodd;fill-rule:evenodd;image-rendering:optimizeQuality;shape-rendering:geometricPrecision;text-rendering:geometricPrecision"
       transform="matrix(0.26458333,0,0,0.26458333,38.278122,-54.03982)">
      <path
         style="opacity:1"
         fill="#f1dcda"
         d="m 154.5,305.5 c 7,0 14,0 21,0 0,7 0,14 0,21 -7,0 -14,0 -21,0 0,-7 0,-14 0,-21 z"
         id="path2226" />
    </g>
    <g
       id="g2240"
       style="clip-rule:evenodd;fill-rule:evenodd;image-rendering:optimizeQuality;shape-rendering:geometricPrecision;text-rendering:geometricPrecision"
       transform="matrix(0.26458333,0,0,0.26458333,38.278122,-54.03982)">
      <path
         style="opacity:1"
         fill="#d8d9d8"
         d="m 20.5,328.5 c 7,0 14,0 21,0 0,7.333 0,14.667 0,22 -7,0 -14,0 -21,0 0,-7.333 0,-14.667 0,-22 z"
         id="path2238" />
    </g>
    <g
       id="g2244"
       style="clip-rule:evenodd;fill-rule:evenodd;image-rendering:optimizeQuality;shape-rendering:geometricPrecision;text-rendering:geometricPrecision"
       transform="matrix(0.26458333,0,0,0.26458333,38.278122,-54.03982)">
      <path
         style="opacity:1"
         fill="#91d04f"
         d="m 43.5,328.5 c 7.3333,0 14.6667,0 22,0 0,7.333 0,14.667 0,22 -7.3333,0 -14.6667,0 -22,0 0,-7.333 0,-14.667 0,-22 z"
         id="path2242" />
    </g>
    <g
       id="g2248"
       style="clip-rule:evenodd;fill-rule:evenodd;image-rendering:optimizeQuality;shape-rendering:geometricPrecision;text-rendering:geometricPrecision"
       transform="matrix(0.26458333,0,0,0.26458333,38.278122,-54.03982)">
      <path
         style="opacity:1"
         fill="#feff00"
         d="m 67.5,328.5 c 7.3333,0 14.6667,0 22,0 0,7.333 0,14.667 0,22 -7.3333,0 -14.6667,0 -22,0 0,-7.333 0,-14.667 0,-22 z"
         id="path2246" />
    </g>
    <g
       id="g2252"
       style="clip-rule:evenodd;fill-rule:evenodd;image-rendering:optimizeQuality;shape-rendering:geometricPrecision;text-rendering:geometricPrecision"
       transform="matrix(0.26458333,0,0,0.26458333,38.278122,-54.03982)">
      <path
         style="opacity:1"
         fill="#cbc1d9"
         d="m 91.5,328.5 c 7,0 14,0 21,0 0,7.333 0,14.667 0,22 -7,0 -14,0 -21,0 0,-7.333 0,-14.667 0,-22 z"
         id="path2250" />
    </g>
    <g
       id="g2256"
       style="clip-rule:evenodd;fill-rule:evenodd;image-rendering:optimizeQuality;shape-rendering:geometricPrecision;text-rendering:geometricPrecision"
       transform="matrix(0.26458333,0,0,0.26458333,38.278122,-54.03982)">
      <path
         style="opacity:1"
         fill="#e5b9b7"
         d="m 154.5,328.5 c 7,0 14,0 21,0 0,7.333 0,14.667 0,22 -7,0 -14,0 -21,0 0,-7.333 0,-14.667 0,-22 z"
         id="path2254" />
    </g>
    <g
       id="g2260"
       style="clip-rule:evenodd;fill-rule:evenodd;image-rendering:optimizeQuality;shape-rendering:geometricPrecision;text-rendering:geometricPrecision"
       transform="matrix(0.26458333,0,0,0.26458333,38.278122,-54.03982)">
      <path
         style="opacity:1"
         fill="#000000"
         d="m 394.5,336.5 c 32.333,0 64.667,0 97,0 0,8.667 0,17.333 0,26 -32.333,0 -64.667,0 -97,0 0,-8.667 0,-17.333 0,-26 z"
         id="path2258" />
    </g>
    <g
       id="g2264"
       style="clip-rule:evenodd;fill-rule:evenodd;image-rendering:optimizeQuality;shape-rendering:geometricPrecision;text-rendering:geometricPrecision"
       transform="matrix(0.26458333,0,0,0.26458333,38.278122,-54.03982)">
      <path
         style="opacity:0.96"
         fill="#bebebe"
         d="m 364.5,337.5 c 4.312,3.646 8.312,7.646 12,12 -3.651,4.152 -7.484,8.152 -11.5,12 -0.495,-1.973 -0.662,-3.973 -0.5,-6 -4,0 -8,0 -12,0 0,-4 0,-8 0,-12 4,0 8,0 12,0 0,-2 0,-4 0,-6 z"
         id="path2262" />
    </g>
    <g
       id="g2268"
       style="clip-rule:evenodd;fill-rule:evenodd;image-rendering:optimizeQuality;shape-rendering:geometricPrecision;text-rendering:geometricPrecision"
       transform="matrix(0.26458333,0,0,0.26458333,38.278122,-54.03982)">
      <path
         style="opacity:0.949"
         fill="#bdbdbd"
         d="m 209.5,338.5 c 4.957,2.957 8.957,6.957 12,12 -2.958,4.626 -6.624,8.626 -11,12 -0.966,-1.896 -1.299,-3.896 -1,-6 -3.667,0 -7.333,0 -11,0 0,-4 0,-8 0,-12 3.667,0 7.333,0 11,0 0,-2 0,-4 0,-6 z"
         id="path2266" />
    </g>
    <g
       id="g2272"
       style="clip-rule:evenodd;fill-rule:evenodd;image-rendering:optimizeQuality;shape-rendering:geometricPrecision;text-rendering:geometricPrecision"
       transform="matrix(0.26458333,0,0,0.26458333,38.278122,-54.03982)">
      <path
         style="opacity:1"
         fill="#dbe6f1"
         d="m 396.5,338.5 c 7.333,0 14.667,0 22,0 0,7.333 0,14.667 0,22 -7.333,0 -14.667,0 -22,0 0,-7.333 0,-14.667 0,-22 z"
         id="path2270" />
    </g>
    <g
       id="g2276"
       style="clip-rule:evenodd;fill-rule:evenodd;image-rendering:optimizeQuality;shape-rendering:geometricPrecision;text-rendering:geometricPrecision"
       transform="matrix(0.26458333,0,0,0.26458333,38.278122,-54.03982)">
      <path
         style="opacity:1"
         fill="#b8cde4"
         d="m 420.5,338.5 c 7.333,0 14.667,0 22,0 0,7.333 0,14.667 0,22 -7.333,0 -14.667,0 -22,0 0,-7.333 0,-14.667 0,-22 z"
         id="path2274" />
    </g>
    <g
       id="g2280"
       style="clip-rule:evenodd;fill-rule:evenodd;image-rendering:optimizeQuality;shape-rendering:geometricPrecision;text-rendering:geometricPrecision"
       transform="matrix(0.26458333,0,0,0.26458333,38.278122,-54.03982)">
      <path
         style="opacity:1"
         fill="#94b3d6"
         d="m 444.5,338.5 c 7,0 14,0 21,0 0,7.333 0,14.667 0,22 -7,0 -14,0 -21,0 0,-7.333 0,-14.667 0,-22 z"
         id="path2278" />
    </g>
    <g
       id="g2284"
       style="clip-rule:evenodd;fill-rule:evenodd;image-rendering:optimizeQuality;shape-rendering:geometricPrecision;text-rendering:geometricPrecision"
       transform="matrix(0.26458333,0,0,0.26458333,38.278122,-54.03982)">
      <path
         style="opacity:1"
         fill="#4f81bd"
         d="m 467.5,338.5 c 7.333,0 14.667,0 22,0 0,7.333 0,14.667 0,22 -7.333,0 -14.667,0 -22,0 0,-7.333 0,-14.667 0,-22 z"
         id="path2282" />
    </g>
    <g
       id="g2292"
       style="clip-rule:evenodd;fill-rule:evenodd;image-rendering:optimizeQuality;shape-rendering:geometricPrecision;text-rendering:geometricPrecision"
       transform="matrix(0.26458333,0,0,0.26458333,38.278122,-54.03982)">
      <path
         style="opacity:0.645"
         fill="#000000"
         d="m 258.5,346.5 c 1,0 2,0 3,0 0,1.667 0,3.333 0,5 1.667,0 3.333,0 5,0 0,1 0,2 0,3 -1.667,0 -3.333,0 -5,0 0,1.667 0,3.333 0,5 -1,0 -2,0 -3,0 0,-1.667 0,-3.333 0,-5 -1.667,0 -3.333,0 -5,0 0,-1 0,-2 0,-3 1.667,0 3.333,0 5,0 0,-1.667 0,-3.333 0,-5 z"
         id="path2290" />
    </g>
    <g
       id="g2296"
       style="clip-rule:evenodd;fill-rule:evenodd;image-rendering:optimizeQuality;shape-rendering:geometricPrecision;text-rendering:geometricPrecision"
       transform="matrix(0.26458333,0,0,0.26458333,38.278122,-54.03982)">
      <path
         style="opacity:0.645"
         fill="#000000"
         d="m 308.5,346.5 c 1,0 2,0 3,0 0,1.667 0,3.333 0,5 1.667,0 3.333,0 5,0 0,1 0,2 0,3 -1.667,0 -3.333,0 -5,0 0,1.667 0,3.333 0,5 -1,0 -2,0 -3,0 0,-1.667 0,-3.333 0,-5 -1.667,0 -3.333,0 -5,0 0,-1 0,-2 0,-3 1.667,0 3.333,0 5,0 0,-1.667 0,-3.333 0,-5 z"
         id="path2294" />
    </g>
    <g
       id="g2304"
       style="clip-rule:evenodd;fill-rule:evenodd;image-rendering:optimizeQuality;shape-rendering:geometricPrecision;text-rendering:geometricPrecision"
       transform="matrix(0.26458333,0,0,0.26458333,38.278122,-54.03982)">
      <path
         style="opacity:1"
         fill="#cbc1d9"
         d="m 20.5,352.5 c 7,0 14,0 21,0 0,7 0,14 0,21 -7,0 -14,0 -21,0 0,-7 0,-14 0,-21 z"
         id="path2302" />
    </g>
    <g
       id="g2308"
       style="clip-rule:evenodd;fill-rule:evenodd;image-rendering:optimizeQuality;shape-rendering:geometricPrecision;text-rendering:geometricPrecision"
       transform="matrix(0.26458333,0,0,0.26458333,38.278122,-54.03982)">
      <path
         style="opacity:1"
         fill="#d8d9d8"
         d="m 43.5,352.5 c 7.3333,0 14.6667,0 22,0 0,7 0,14 0,21 -7.3333,0 -14.6667,0 -22,0 0,-7 0,-14 0,-21 z"
         id="path2306" />
    </g>
    <g
       id="g2312"
       style="clip-rule:evenodd;fill-rule:evenodd;image-rendering:optimizeQuality;shape-rendering:geometricPrecision;text-rendering:geometricPrecision"
       transform="matrix(0.26458333,0,0,0.26458333,38.278122,-54.03982)">
      <path
         style="opacity:1"
         fill="#91d04f"
         d="m 67.5,352.5 c 7.3333,0 14.6667,0 22,0 0,7 0,14 0,21 -7.3333,0 -14.6667,0 -22,0 0,-7 0,-14 0,-21 z"
         id="path2310" />
    </g>
    <g
       id="g2316"
       style="clip-rule:evenodd;fill-rule:evenodd;image-rendering:optimizeQuality;shape-rendering:geometricPrecision;text-rendering:geometricPrecision"
       transform="matrix(0.26458333,0,0,0.26458333,38.278122,-54.03982)">
      <path
         style="opacity:1"
         fill="#feff00"
         d="m 91.5,352.5 c 7,0 14,0 21,0 0,7 0,14 0,21 -7,0 -14,0 -21,0 0,-7 0,-14 0,-21 z"
         id="path2314" />
    </g>
    <g
       id="g2320"
       style="clip-rule:evenodd;fill-rule:evenodd;image-rendering:optimizeQuality;shape-rendering:geometricPrecision;text-rendering:geometricPrecision"
       transform="matrix(0.26458333,0,0,0.26458333,38.278122,-54.03982)">
      <path
         style="opacity:1"
         fill="#d89693"
         d="m 154.5,352.5 c 7,0 14,0 21,0 0,7 0,14 0,21 -7,0 -14,0 -21,0 0,-7 0,-14 0,-21 z"
         id="path2318" />
    </g>
    <g
       id="g2324"
       style="clip-rule:evenodd;fill-rule:evenodd;image-rendering:optimizeQuality;shape-rendering:geometricPrecision;text-rendering:geometricPrecision"
       transform="matrix(0.26458333,0,0,0.26458333,38.278122,-54.03982)">
      <path
         style="opacity:0.479"
         fill="#000000"
         d="m 276.5,352.5 c 1.846,-0.278 3.18,0.389 4,2 -0.82,1.611 -2.154,2.278 -4,2 0,-1.333 0,-2.667 0,-4 z"
         id="path2322" />
    </g>
    <g
       id="g2328"
       style="clip-rule:evenodd;fill-rule:evenodd;image-rendering:optimizeQuality;shape-rendering:geometricPrecision;text-rendering:geometricPrecision"
       transform="matrix(0.26458333,0,0,0.26458333,38.278122,-54.03982)">
      <path
         style="opacity:0.479"
         fill="#000000"
         d="m 284.5,352.5 c 1,0 2,0 3,0 0,1.333 0,2.667 0,4 -3.454,0.233 -4.454,-1.1 -3,-4 z"
         id="path2326" />
    </g>
    <g
       id="g2332"
       style="clip-rule:evenodd;fill-rule:evenodd;image-rendering:optimizeQuality;shape-rendering:geometricPrecision;text-rendering:geometricPrecision"
       transform="matrix(0.26458333,0,0,0.26458333,38.278122,-54.03982)">
      <path
         style="opacity:0.516"
         fill="#000000"
         d="m 291.5,352.5 c 5.036,1.005 5.036,2.338 0,4 0,-1.333 0,-2.667 0,-4 z"
         id="path2330" />
    </g>
    <g
       id="g2336"
       style="clip-rule:evenodd;fill-rule:evenodd;image-rendering:optimizeQuality;shape-rendering:geometricPrecision;text-rendering:geometricPrecision"
       transform="matrix(0.26458333,0,0,0.26458333,38.278122,-54.03982)">
      <path
         style="opacity:1"
         fill="#000000"
         d="m 237.5,374.5 c 32,0 64,0 96,0 0,8.333 0,16.667 0,25 -32,0 -64,0 -96,0 0,-8.333 0,-16.667 0,-25 z"
         id="path2334" />
    </g>
    <g
       id="g2340"
       style="clip-rule:evenodd;fill-rule:evenodd;image-rendering:optimizeQuality;shape-rendering:geometricPrecision;text-rendering:geometricPrecision"
       transform="matrix(0.26458333,0,0,0.26458333,38.278122,-54.03982)">
      <path
         style="opacity:1"
         fill="#feff00"
         d="m 20.5,375.5 c 7,0 14,0 21,0 0,7.333 0,14.667 0,22 -7,0 -14,0 -21,0 0,-7.333 0,-14.667 0,-22 z"
         id="path2338" />
    </g>
    <g
       id="g2344"
       style="clip-rule:evenodd;fill-rule:evenodd;image-rendering:optimizeQuality;shape-rendering:geometricPrecision;text-rendering:geometricPrecision"
       transform="matrix(0.26458333,0,0,0.26458333,38.278122,-54.03982)">
      <path
         style="opacity:1"
         fill="#cbc1d9"
         d="m 43.5,375.5 c 7.3333,0 14.6667,0 22,0 0,7.333 0,14.667 0,22 -7.3333,0 -14.6667,0 -22,0 0,-7.333 0,-14.667 0,-22 z"
         id="path2342" />
    </g>
    <g
       id="g2348"
       style="clip-rule:evenodd;fill-rule:evenodd;image-rendering:optimizeQuality;shape-rendering:geometricPrecision;text-rendering:geometricPrecision"
       transform="matrix(0.26458333,0,0,0.26458333,38.278122,-54.03982)">
      <path
         style="opacity:1"
         fill="#d8d9d8"
         d="m 67.5,375.5 c 7.3333,0 14.6667,0 22,0 0,7.333 0,14.667 0,22 -7.3333,0 -14.6667,0 -22,0 0,-7.333 0,-14.667 0,-22 z"
         id="path2346" />
    </g>
    <g
       id="g2352"
       style="clip-rule:evenodd;fill-rule:evenodd;image-rendering:optimizeQuality;shape-rendering:geometricPrecision;text-rendering:geometricPrecision"
       transform="matrix(0.26458333,0,0,0.26458333,38.278122,-54.03982)">
      <path
         style="opacity:1"
         fill="#91d04f"
         d="m 91.5,375.5 c 7,0 14,0 21,0 0,7.333 0,14.667 0,22 -7,0 -14,0 -21,0 0,-7.333 0,-14.667 0,-22 z"
         id="path2350" />
    </g>
    <g
       id="g2356"
       style="clip-rule:evenodd;fill-rule:evenodd;image-rendering:optimizeQuality;shape-rendering:geometricPrecision;text-rendering:geometricPrecision"
       transform="matrix(0.26458333,0,0,0.26458333,38.278122,-54.03982)">
      <path
         style="opacity:1"
         fill="#bf504c"
         d="m 154.5,375.5 c 7,0 14,0 21,0 0,7.333 0,14.667 0,22 -7,0 -14,0 -21,0 0,-7.333 0,-14.667 0,-22 z"
         id="path2354" />
    </g>
    <g
       id="g2360"
       style="clip-rule:evenodd;fill-rule:evenodd;image-rendering:optimizeQuality;shape-rendering:geometricPrecision;text-rendering:geometricPrecision"
       transform="matrix(0.26458333,0,0,0.26458333,38.278122,-54.03982)">
      <path
         style="opacity:1"
         fill="#d8d9d8"
         d="m 239.5,376.5 c 7,0 14,0 21,0 0,7 0,14 0,21 -7,0 -14,0 -21,0 0,-7 0,-14 0,-21 z"
         id="path2358" />
    </g>
    <g
       id="g2364"
       style="clip-rule:evenodd;fill-rule:evenodd;image-rendering:optimizeQuality;shape-rendering:geometricPrecision;text-rendering:geometricPrecision"
       transform="matrix(0.26458333,0,0,0.26458333,38.278122,-54.03982)">
      <path
         style="opacity:1"
         fill="#d8d9d8"
         d="m 262.5,376.5 c 7.333,0 14.667,0 22,0 0,7 0,14 0,21 -7.333,0 -14.667,0 -22,0 0,-7 0,-14 0,-21 z"
         id="path2362" />
    </g>
    <g
       id="g2368"
       style="clip-rule:evenodd;fill-rule:evenodd;image-rendering:optimizeQuality;shape-rendering:geometricPrecision;text-rendering:geometricPrecision"
       transform="matrix(0.26458333,0,0,0.26458333,38.278122,-54.03982)">
      <path
         style="opacity:1"
         fill="#d8d9d8"
         d="m 286.5,376.5 c 7,0 14,0 21,0 0,7 0,14 0,21 -7,0 -14,0 -21,0 0,-7 0,-14 0,-21 z"
         id="path2366" />
    </g>
    <g
       id="g2372"
       style="clip-rule:evenodd;fill-rule:evenodd;image-rendering:optimizeQuality;shape-rendering:geometricPrecision;text-rendering:geometricPrecision"
       transform="matrix(0.26458333,0,0,0.26458333,38.278122,-54.03982)">
      <path
         style="opacity:1"
         fill="#d8d9d8"
         d="m 309.5,376.5 c 7.333,0 14.667,0 22,0 0,7 0,14 0,21 -7.333,0 -14.667,0 -22,0 0,-7 0,-14 0,-21 z"
         id="path2370" />
    </g>
    <g
       id="g2376"
       style="clip-rule:evenodd;fill-rule:evenodd;image-rendering:optimizeQuality;shape-rendering:geometricPrecision;text-rendering:geometricPrecision"
       transform="matrix(0.26458333,0,0,0.26458333,38.278122,-54.03982)">
      <path
         style="opacity:0.554"
         fill="#000000"
         d="m 280.5,402.5 c 1.894,0.548 3.56,1.548 5,3 1.314,-0.813 2.481,-1.813 3.5,-3 0.833,0.833 1.667,1.667 2.5,2.5 -1.187,1.019 -2.187,2.186 -3,3.5 1,1.333 2,2.667 3,4 -0.209,0.586 -0.543,1.086 -1,1.5 -1.917,-0.027 -3.584,-0.861 -5,-2.5 -1.333,1 -2.667,2 -4,3 -0.586,-0.209 -1.086,-0.543 -1.5,-1 0.027,-1.917 0.861,-3.584 2.5,-5 -1,-1.333 -2,-2.667 -3,-4 0.363,-0.683 0.696,-1.35 1,-2 z"
         id="path2374" />
    </g>
    <g
       id="g2380"
       style="clip-rule:evenodd;fill-rule:evenodd;image-rendering:optimizeQuality;shape-rendering:geometricPrecision;text-rendering:geometricPrecision"
       transform="matrix(0.26458333,0,0,0.26458333,38.278122,-54.03982)">
      <path
         style="opacity:1"
         fill="#000000"
         d="m 237.5,416.5 c 32,0 64,0 96,0 0,8.333 0,16.667 0,25 -32,0 -64,0 -96,0 0,-8.333 0,-16.667 0,-25 z"
         id="path2378" />
    </g>
    <g
       id="g2384"
       style="clip-rule:evenodd;fill-rule:evenodd;image-rendering:optimizeQuality;shape-rendering:geometricPrecision;text-rendering:geometricPrecision"
       transform="matrix(0.26458333,0,0,0.26458333,38.278122,-54.03982)">
      <path
         style="opacity:1"
         fill="#bf504c"
         d="m 239.5,418.5 c 7,0 14,0 21,0 0,7 0,14 0,21 -7,0 -14,0 -21,0 0,-7 0,-14 0,-21 z"
         id="path2382" />
    </g>
    <g
       id="g2388"
       style="clip-rule:evenodd;fill-rule:evenodd;image-rendering:optimizeQuality;shape-rendering:geometricPrecision;text-rendering:geometricPrecision"
       transform="matrix(0.26458333,0,0,0.26458333,38.278122,-54.03982)">
      <path
         style="opacity:1"
         fill="#d89693"
         d="m 262.5,418.5 c 7.333,0 14.667,0 22,0 0,7 0,14 0,21 -7.333,0 -14.667,0 -22,0 0,-7 0,-14 0,-21 z"
         id="path2386" />
    </g>
    <g
       id="g2392"
       style="clip-rule:evenodd;fill-rule:evenodd;image-rendering:optimizeQuality;shape-rendering:geometricPrecision;text-rendering:geometricPrecision"
       transform="matrix(0.26458333,0,0,0.26458333,38.278122,-54.03982)">
      <path
         style="opacity:1"
         fill="#e5b9b7"
         d="m 286.5,418.5 c 7,0 14,0 21,0 0,7 0,14 0,21 -7,0 -14,0 -21,0 0,-7 0,-14 0,-21 z"
         id="path2390" />
    </g>
    <g
       id="g2396"
       style="clip-rule:evenodd;fill-rule:evenodd;image-rendering:optimizeQuality;shape-rendering:geometricPrecision;text-rendering:geometricPrecision"
       transform="matrix(0.26458333,0,0,0.26458333,38.278122,-54.03982)">
      <path
         style="opacity:1"
         fill="#f1dcda"
         d="m 309.5,418.5 c 7.333,0 14.667,0 22,0 0,7 0,14 0,21 -7.333,0 -14.667,0 -22,0 0,-7 0,-14 0,-21 z"
         id="path2394" />
    </g>
  </g>
</svg>
