<?xml version="1.0" encoding="UTF-8"?>
<!DOCTYPE svg PUBLIC "-//W3C//DTD SVG 1.1//EN" "http://www.w3.org/Graphics/SVG/1.1/DTD/svg11.dtd">
<svg xmlns="http://www.w3.org/2000/svg" version="1.1" width="493px" height="749px" style="shape-rendering:geometricPrecision; text-rendering:geometricPrecision; image-rendering:optimizeQuality; fill-rule:evenodd; clip-rule:evenodd" xmlns:xlink="http://www.w3.org/1999/xlink">
<g><path style="opacity:1" fill="#000000" d="M 237.5,6.5 C 269.5,6.5 301.5,6.5 333.5,6.5C 333.5,15.1667 333.5,23.8333 333.5,32.5C 301.5,32.5 269.5,32.5 237.5,32.5C 237.5,23.8333 237.5,15.1667 237.5,6.5 Z"/></g>
<g><path style="opacity:1" fill="#91d04f" d="M 239.5,8.5 C 246.5,8.5 253.5,8.5 260.5,8.5C 260.5,15.8333 260.5,23.1667 260.5,30.5C 253.5,30.5 246.5,30.5 239.5,30.5C 239.5,23.1667 239.5,15.8333 239.5,8.5 Z"/></g>
<g><path style="opacity:1" fill="#91d04f" d="M 262.5,8.5 C 269.833,8.5 277.167,8.5 284.5,8.5C 284.5,15.8333 284.5,23.1667 284.5,30.5C 277.167,30.5 269.833,30.5 262.5,30.5C 262.5,23.1667 262.5,15.8333 262.5,8.5 Z"/></g>
<g><path style="opacity:1" fill="#91d04f" d="M 286.5,8.5 C 293.5,8.5 300.5,8.5 307.5,8.5C 307.5,15.8333 307.5,23.1667 307.5,30.5C 300.5,30.5 293.5,30.5 286.5,30.5C 286.5,23.1667 286.5,15.8333 286.5,8.5 Z"/></g>
<g><path style="opacity:1" fill="#91d04f" d="M 309.5,8.5 C 316.833,8.5 324.167,8.5 331.5,8.5C 331.5,15.8333 331.5,23.1667 331.5,30.5C 324.167,30.5 316.833,30.5 309.5,30.5C 309.5,23.1667 309.5,15.8333 309.5,8.5 Z"/></g>
<g><path style="opacity:0.826" fill="#7a7a7a" d="M 444.5,17.5 C 443.055,20.9365 442.055,24.6032 441.5,28.5C 439.833,28.5 438.167,28.5 436.5,28.5C 435.143,19.2037 433.81,19.2037 432.5,28.5C 430.712,28.7852 429.045,28.4519 427.5,27.5C 426.023,22.5919 425.023,17.5919 424.5,12.5C 425.833,12.5 427.167,12.5 428.5,12.5C 429.155,23.5589 430.321,23.8923 432,13.5C 433.667,12.1667 435.333,12.1667 437,13.5C 438.679,23.8923 439.845,23.5589 440.5,12.5C 441.833,12.5 443.167,12.5 444.5,12.5C 444.5,14.1667 444.5,15.8333 444.5,17.5 Z"/></g>
<g><path style="opacity:0.826" fill="#7a7a7a" d="M 56.5,13.5 C 57.8333,13.5 59.1667,13.5 60.5,13.5C 61.1546,24.5589 62.3213,24.8923 64,14.5C 65.6667,13.1667 67.3333,13.1667 69,14.5C 70.6787,24.8923 71.8454,24.5589 72.5,13.5C 73.8333,13.5 75.1667,13.5 76.5,13.5C 75.8183,18.8933 74.8183,24.2266 73.5,29.5C 71.8333,29.5 70.1667,29.5 68.5,29.5C 67.1429,20.2037 65.8096,20.2037 64.5,29.5C 62.712,29.7852 61.0453,29.4519 59.5,28.5C 58.0228,23.5919 57.0228,18.5919 56.5,13.5 Z"/></g>
<g><path style="opacity:0.804" fill="#7b7b7b" d="M 444.5,17.5 C 448.038,17.2153 449.871,18.882 450,22.5C 451.02,21.1095 451.853,19.6095 452.5,18C 453.944,17.2195 455.277,17.3861 456.5,18.5C 451.577,31.9414 447.577,31.6081 444.5,17.5 Z"/></g>
<g><path style="opacity:0.804" fill="#7b7b7b" d="M 156.5,18.5 C 160.038,18.2153 161.871,19.882 162,23.5C 163.02,22.1095 163.853,20.6095 164.5,19C 165.944,18.2195 167.277,18.3861 168.5,19.5C 163.577,32.9414 159.577,32.6081 156.5,18.5 Z"/></g>
<g><path style="opacity:0.554" fill="#000000" d="M 280.5,34.5 C 282.394,35.0476 284.06,36.0476 285.5,37.5C 286.814,36.6872 287.981,35.6872 289,34.5C 289.833,35.3333 290.667,36.1667 291.5,37C 290.313,38.0195 289.313,39.1861 288.5,40.5C 289.5,41.8333 290.5,43.1667 291.5,44.5C 291.291,45.086 290.957,45.586 290.5,46C 288.583,45.9725 286.916,45.1392 285.5,43.5C 284.167,44.5 282.833,45.5 281.5,46.5C 280.914,46.2907 280.414,45.9574 280,45.5C 280.027,43.5826 280.861,41.916 282.5,40.5C 281.5,39.1667 280.5,37.8333 279.5,36.5C 279.863,35.8165 280.196,35.1499 280.5,34.5 Z"/></g>
<g><path style="opacity:1" fill="#000000" d="M 394.5,36.5 C 426.833,36.5 459.167,36.5 491.5,36.5C 491.5,45.1667 491.5,53.8333 491.5,62.5C 459.167,62.5 426.833,62.5 394.5,62.5C 394.5,53.8333 394.5,45.1667 394.5,36.5 Z"/></g>
<g><path style="opacity:1" fill="#dbe6f1" d="M 396.5,38.5 C 403.833,38.5 411.167,38.5 418.5,38.5C 418.5,45.8333 418.5,53.1667 418.5,60.5C 411.167,60.5 403.833,60.5 396.5,60.5C 396.5,53.1667 396.5,45.8333 396.5,38.5 Z"/></g>
<g><path style="opacity:1" fill="#fefffe" d="M 420.5,38.5 C 427.833,38.5 435.167,38.5 442.5,38.5C 442.5,45.8333 442.5,53.1667 442.5,60.5C 435.167,60.5 427.833,60.5 420.5,60.5C 420.5,53.1667 420.5,45.8333 420.5,38.5 Z"/></g>
<g><path style="opacity:1" fill="#fefffe" d="M 444.5,38.5 C 451.5,38.5 458.5,38.5 465.5,38.5C 465.5,45.8333 465.5,53.1667 465.5,60.5C 458.5,60.5 451.5,60.5 444.5,60.5C 444.5,53.1667 444.5,45.8333 444.5,38.5 Z"/></g>
<g><path style="opacity:1" fill="#fefffe" d="M 467.5,38.5 C 474.833,38.5 482.167,38.5 489.5,38.5C 489.5,45.8333 489.5,53.1667 489.5,60.5C 482.167,60.5 474.833,60.5 467.5,60.5C 467.5,53.1667 467.5,45.8333 467.5,38.5 Z"/></g>
<g><path style="opacity:1" fill="#000000" d="M 18.5,43.5 C 50.5,43.5 82.5,43.5 114.5,43.5C 114.5,75.5 114.5,107.5 114.5,139.5C 82.5,139.5 50.5,139.5 18.5,139.5C 18.5,107.5 18.5,75.5 18.5,43.5 Z"/></g>
<g><path style="opacity:1" fill="#000000" d="M 152.5,43.5 C 160.833,43.5 169.167,43.5 177.5,43.5C 177.5,75.5 177.5,107.5 177.5,139.5C 169.167,139.5 160.833,139.5 152.5,139.5C 152.5,107.5 152.5,75.5 152.5,43.5 Z"/></g>
<g><path style="opacity:1" fill="#91d04f" d="M 20.5,45.5 C 27.5,45.5 34.5,45.5 41.5,45.5C 41.5,52.5 41.5,59.5 41.5,66.5C 34.5,66.5 27.5,66.5 20.5,66.5C 20.5,59.5 20.5,52.5 20.5,45.5 Z"/></g>
<g><path style="opacity:1" fill="#91d04f" d="M 43.5,45.5 C 50.8333,45.5 58.1667,45.5 65.5,45.5C 65.5,52.5 65.5,59.5 65.5,66.5C 58.1667,66.5 50.8333,66.5 43.5,66.5C 43.5,59.5 43.5,52.5 43.5,45.5 Z"/></g>
<g><path style="opacity:1" fill="#91d04f" d="M 67.5,45.5 C 74.8333,45.5 82.1667,45.5 89.5,45.5C 89.5,52.5 89.5,59.5 89.5,66.5C 82.1667,66.5 74.8333,66.5 67.5,66.5C 67.5,59.5 67.5,52.5 67.5,45.5 Z"/></g>
<g><path style="opacity:1" fill="#91d04f" d="M 91.5,45.5 C 98.5,45.5 105.5,45.5 112.5,45.5C 112.5,52.5 112.5,59.5 112.5,66.5C 105.5,66.5 98.5,66.5 91.5,66.5C 91.5,59.5 91.5,52.5 91.5,45.5 Z"/></g>
<g><path style="opacity:1" fill="#f1dcda" d="M 154.5,45.5 C 161.5,45.5 168.5,45.5 175.5,45.5C 175.5,52.5 175.5,59.5 175.5,66.5C 168.5,66.5 161.5,66.5 154.5,66.5C 154.5,59.5 154.5,52.5 154.5,45.5 Z"/></g>
<g><path style="opacity:1" fill="#000000" d="M 237.5,48.5 C 269.5,48.5 301.5,48.5 333.5,48.5C 333.5,57.1667 333.5,65.8333 333.5,74.5C 301.5,74.5 269.5,74.5 237.5,74.5C 237.5,65.8333 237.5,57.1667 237.5,48.5 Z"/></g>
<g><path style="opacity:1" fill="#f1dcda" d="M 239.5,50.5 C 246.5,50.5 253.5,50.5 260.5,50.5C 260.5,57.8333 260.5,65.1667 260.5,72.5C 253.5,72.5 246.5,72.5 239.5,72.5C 239.5,65.1667 239.5,57.8333 239.5,50.5 Z"/></g>
<g><path style="opacity:1" fill="#e5b9b7" d="M 262.5,50.5 C 269.833,50.5 277.167,50.5 284.5,50.5C 284.5,57.8333 284.5,65.1667 284.5,72.5C 277.167,72.5 269.833,72.5 262.5,72.5C 262.5,65.1667 262.5,57.8333 262.5,50.5 Z"/></g>
<g><path style="opacity:1" fill="#d89693" d="M 286.5,50.5 C 293.5,50.5 300.5,50.5 307.5,50.5C 307.5,57.8333 307.5,65.1667 307.5,72.5C 300.5,72.5 293.5,72.5 286.5,72.5C 286.5,65.1667 286.5,57.8333 286.5,50.5 Z"/></g>
<g><path style="opacity:1" fill="#bf504c" d="M 309.5,50.5 C 316.833,50.5 324.167,50.5 331.5,50.5C 331.5,57.8333 331.5,65.1667 331.5,72.5C 324.167,72.5 316.833,72.5 309.5,72.5C 309.5,65.1667 309.5,57.8333 309.5,50.5 Z"/></g>
<g><path style="opacity:1" fill="#000000" d="M 394.5,65.5 C 426.833,65.5 459.167,65.5 491.5,65.5C 491.5,74.1667 491.5,82.8333 491.5,91.5C 459.167,91.5 426.833,91.5 394.5,91.5C 394.5,82.8333 394.5,74.1667 394.5,65.5 Z"/></g>
<g><path style="opacity:1" fill="#b8cde4" d="M 396.5,67.5 C 403.833,67.5 411.167,67.5 418.5,67.5C 418.5,74.8333 418.5,82.1667 418.5,89.5C 411.167,89.5 403.833,89.5 396.5,89.5C 396.5,82.1667 396.5,74.8333 396.5,67.5 Z"/></g>
<g><path style="opacity:1" fill="#fefffe" d="M 420.5,67.5 C 427.833,67.5 435.167,67.5 442.5,67.5C 442.5,74.8333 442.5,82.1667 442.5,89.5C 435.167,89.5 427.833,89.5 420.5,89.5C 420.5,82.1667 420.5,74.8333 420.5,67.5 Z"/></g>
<g><path style="opacity:1" fill="#fefffe" d="M 444.5,67.5 C 451.5,67.5 458.5,67.5 465.5,67.5C 465.5,74.8333 465.5,82.1667 465.5,89.5C 458.5,89.5 451.5,89.5 444.5,89.5C 444.5,82.1667 444.5,74.8333 444.5,67.5 Z"/></g>
<g><path style="opacity:1" fill="#fefffe" d="M 467.5,67.5 C 474.833,67.5 482.167,67.5 489.5,67.5C 489.5,74.8333 489.5,82.1667 489.5,89.5C 482.167,89.5 474.833,89.5 467.5,89.5C 467.5,82.1667 467.5,74.8333 467.5,67.5 Z"/></g>
<g><path style="opacity:1" fill="#feff00" d="M 20.5,68.5 C 27.5,68.5 34.5,68.5 41.5,68.5C 41.5,75.8333 41.5,83.1667 41.5,90.5C 34.5,90.5 27.5,90.5 20.5,90.5C 20.5,83.1667 20.5,75.8333 20.5,68.5 Z"/></g>
<g><path style="opacity:1" fill="#feff00" d="M 43.5,68.5 C 50.8333,68.5 58.1667,68.5 65.5,68.5C 65.5,75.8333 65.5,83.1667 65.5,90.5C 58.1667,90.5 50.8333,90.5 43.5,90.5C 43.5,83.1667 43.5,75.8333 43.5,68.5 Z"/></g>
<g><path style="opacity:1" fill="#feff00" d="M 67.5,68.5 C 74.8333,68.5 82.1667,68.5 89.5,68.5C 89.5,75.8333 89.5,83.1667 89.5,90.5C 82.1667,90.5 74.8333,90.5 67.5,90.5C 67.5,83.1667 67.5,75.8333 67.5,68.5 Z"/></g>
<g><path style="opacity:1" fill="#feff00" d="M 91.5,68.5 C 98.5,68.5 105.5,68.5 112.5,68.5C 112.5,75.8333 112.5,83.1667 112.5,90.5C 105.5,90.5 98.5,90.5 91.5,90.5C 91.5,83.1667 91.5,75.8333 91.5,68.5 Z"/></g>
<g><path style="opacity:1" fill="#e5b9b7" d="M 154.5,68.5 C 161.5,68.5 168.5,68.5 175.5,68.5C 175.5,75.8333 175.5,83.1667 175.5,90.5C 168.5,90.5 161.5,90.5 154.5,90.5C 154.5,83.1667 154.5,75.8333 154.5,68.5 Z"/></g>
<g><path style="opacity:0.949" fill="#bdbdbd" d="M 209.5,78.5 C 214.457,81.4573 218.457,85.4573 221.5,90.5C 218.542,95.1256 214.876,99.1256 210.5,102.5C 209.534,100.604 209.201,98.604 209.5,96.5C 205.833,96.5 202.167,96.5 198.5,96.5C 198.5,92.5 198.5,88.5 198.5,84.5C 202.167,84.5 205.833,84.5 209.5,84.5C 209.5,82.5 209.5,80.5 209.5,78.5 Z"/></g>
<g><path style="opacity:0.969" fill="#bebebe" d="M 364.5,78.5 C 369.282,81.4468 373.282,85.2801 376.5,90C 373.365,94.3023 369.699,98.1356 365.5,101.5C 364.548,99.9547 364.215,98.288 364.5,96.5C 360.5,96.5 356.5,96.5 352.5,96.5C 352.5,92.1667 352.5,87.8333 352.5,83.5C 356.5,83.5 360.5,83.5 364.5,83.5C 364.5,81.8333 364.5,80.1667 364.5,78.5 Z"/></g>
<g><path style="opacity:0.582" fill="#000000" d="M 129.5,81.5 C 142.982,81.7815 146.815,88.1148 141,100.5C 133.977,105.165 127.977,104.165 123,97.5C 120.632,90.2957 122.798,84.9624 129.5,81.5 Z M 132.5,83.5 C 137.81,84.1429 140.81,87.1429 141.5,92.5C 139.304,100.514 134.637,102.514 127.5,98.5C 124.26,95.2061 123.76,91.5394 126,87.5C 127.792,85.372 129.958,84.0387 132.5,83.5 Z"/></g>
<g><path style="opacity:0.447" fill="#000000" d="M 131.5,87.5 C 133.711,87.9668 135.711,88.9668 137.5,90.5C 136.289,91.7202 136.289,92.8869 137.5,94C 136.747,95.487 135.914,95.6537 135,94.5C 134.612,95.428 133.945,96.0946 133,96.5C 131.674,95.0274 130.174,94.194 128.5,94C 131.028,92.6841 131.028,91.5174 128.5,90.5C 129.993,89.8589 130.993,88.8589 131.5,87.5 Z"/></g>
<g><path style="opacity:0.479" fill="#000000" d="M 275.5,90.5 C 277.346,90.2222 278.68,90.8888 279.5,92.5C 278.68,94.1112 277.346,94.7778 275.5,94.5C 275.5,93.1667 275.5,91.8333 275.5,90.5 Z"/></g>
<g><path style="opacity:0.479" fill="#000000" d="M 283.5,90.5 C 284.5,90.5 285.5,90.5 286.5,90.5C 286.5,91.8333 286.5,93.1667 286.5,94.5C 283.046,94.7332 282.046,93.3999 283.5,90.5 Z"/></g>
<g><path style="opacity:0.516" fill="#000000" d="M 290.5,90.5 C 295.536,91.505 295.536,92.8384 290.5,94.5C 290.5,93.1667 290.5,91.8333 290.5,90.5 Z"/></g>
<g><path style="opacity:1" fill="#cbc1d9" d="M 20.5,92.5 C 27.5,92.5 34.5,92.5 41.5,92.5C 41.5,99.5 41.5,106.5 41.5,113.5C 34.5,113.5 27.5,113.5 20.5,113.5C 20.5,106.5 20.5,99.5 20.5,92.5 Z"/></g>
<g><path style="opacity:1" fill="#cbc1d9" d="M 43.5,92.5 C 50.8333,92.5 58.1667,92.5 65.5,92.5C 65.5,99.5 65.5,106.5 65.5,113.5C 58.1667,113.5 50.8333,113.5 43.5,113.5C 43.5,106.5 43.5,99.5 43.5,92.5 Z"/></g>
<g><path style="opacity:1" fill="#cbc1d9" d="M 67.5,92.5 C 74.8333,92.5 82.1667,92.5 89.5,92.5C 89.5,99.5 89.5,106.5 89.5,113.5C 82.1667,113.5 74.8333,113.5 67.5,113.5C 67.5,106.5 67.5,99.5 67.5,92.5 Z"/></g>
<g><path style="opacity:1" fill="#cbc1d9" d="M 91.5,92.5 C 98.5,92.5 105.5,92.5 112.5,92.5C 112.5,99.5 112.5,106.5 112.5,113.5C 105.5,113.5 98.5,113.5 91.5,113.5C 91.5,106.5 91.5,99.5 91.5,92.5 Z"/></g>
<g><path style="opacity:1" fill="#d89693" d="M 154.5,92.5 C 161.5,92.5 168.5,92.5 175.5,92.5C 175.5,99.5 175.5,106.5 175.5,113.5C 168.5,113.5 161.5,113.5 154.5,113.5C 154.5,106.5 154.5,99.5 154.5,92.5 Z"/></g>
<g><path style="opacity:1" fill="#000000" d="M 492.5,94.5 C 492.5,102.833 492.5,111.167 492.5,119.5C 460.167,119.5 427.833,119.5 395.5,119.5C 395.5,111.167 395.5,102.833 395.5,94.5C 427.833,94.5 460.167,94.5 492.5,94.5 Z"/></g>
<g><path style="opacity:1" fill="#94b3d6" d="M 397.5,96.5 C 404.833,96.5 412.167,96.5 419.5,96.5C 419.5,103.5 419.5,110.5 419.5,117.5C 412.167,117.5 404.833,117.5 397.5,117.5C 397.5,110.5 397.5,103.5 397.5,96.5 Z"/></g>
<g><path style="opacity:1" fill="#fefffe" d="M 421.5,96.5 C 428.5,96.5 435.5,96.5 442.5,96.5C 442.5,103.5 442.5,110.5 442.5,117.5C 435.5,117.5 428.5,117.5 421.5,117.5C 421.5,110.5 421.5,103.5 421.5,96.5 Z"/></g>
<g><path style="opacity:1" fill="#fefffe" d="M 444.5,96.5 C 451.833,96.5 459.167,96.5 466.5,96.5C 466.5,103.5 466.5,110.5 466.5,117.5C 459.167,117.5 451.833,117.5 444.5,117.5C 444.5,110.5 444.5,103.5 444.5,96.5 Z"/></g>
<g><path style="opacity:1" fill="#fefffe" d="M 468.5,96.5 C 475.833,96.5 483.167,96.5 490.5,96.5C 490.5,103.5 490.5,110.5 490.5,117.5C 483.167,117.5 475.833,117.5 468.5,117.5C 468.5,110.5 468.5,103.5 468.5,96.5 Z"/></g>
<g><path style="opacity:1" fill="#000000" d="M 237.5,110.5 C 269.5,110.5 301.5,110.5 333.5,110.5C 333.5,119.167 333.5,127.833 333.5,136.5C 301.5,136.5 269.5,136.5 237.5,136.5C 237.5,127.833 237.5,119.167 237.5,110.5 Z"/></g>
<g><path style="opacity:1" fill="#d8d9d8" d="M 239.5,112.5 C 246.5,112.5 253.5,112.5 260.5,112.5C 260.5,119.833 260.5,127.167 260.5,134.5C 253.5,134.5 246.5,134.5 239.5,134.5C 239.5,127.167 239.5,119.833 239.5,112.5 Z"/></g>
<g><path style="opacity:1" fill="#d8d9d8" d="M 262.5,112.5 C 269.833,112.5 277.167,112.5 284.5,112.5C 284.5,119.833 284.5,127.167 284.5,134.5C 277.167,134.5 269.833,134.5 262.5,134.5C 262.5,127.167 262.5,119.833 262.5,112.5 Z"/></g>
<g><path style="opacity:1" fill="#d8d9d8" d="M 286.5,112.5 C 293.5,112.5 300.5,112.5 307.5,112.5C 307.5,119.833 307.5,127.167 307.5,134.5C 300.5,134.5 293.5,134.5 286.5,134.5C 286.5,127.167 286.5,119.833 286.5,112.5 Z"/></g>
<g><path style="opacity:1" fill="#d8d9d8" d="M 309.5,112.5 C 316.833,112.5 324.167,112.5 331.5,112.5C 331.5,119.833 331.5,127.167 331.5,134.5C 324.167,134.5 316.833,134.5 309.5,134.5C 309.5,127.167 309.5,119.833 309.5,112.5 Z"/></g>
<g><path style="opacity:1" fill="#d8d9d8" d="M 20.5,115.5 C 27.5,115.5 34.5,115.5 41.5,115.5C 41.5,122.833 41.5,130.167 41.5,137.5C 34.5,137.5 27.5,137.5 20.5,137.5C 20.5,130.167 20.5,122.833 20.5,115.5 Z"/></g>
<g><path style="opacity:1" fill="#d8d9d8" d="M 43.5,115.5 C 50.8333,115.5 58.1667,115.5 65.5,115.5C 65.5,122.833 65.5,130.167 65.5,137.5C 58.1667,137.5 50.8333,137.5 43.5,137.5C 43.5,130.167 43.5,122.833 43.5,115.5 Z"/></g>
<g><path style="opacity:1" fill="#d8d9d8" d="M 67.5,115.5 C 74.8333,115.5 82.1667,115.5 89.5,115.5C 89.5,122.833 89.5,130.167 89.5,137.5C 82.1667,137.5 74.8333,137.5 67.5,137.5C 67.5,130.167 67.5,122.833 67.5,115.5 Z"/></g>
<g><path style="opacity:1" fill="#d8d9d8" d="M 91.5,115.5 C 98.5,115.5 105.5,115.5 112.5,115.5C 112.5,122.833 112.5,130.167 112.5,137.5C 105.5,137.5 98.5,137.5 91.5,137.5C 91.5,130.167 91.5,122.833 91.5,115.5 Z"/></g>
<g><path style="opacity:1" fill="#bf504c" d="M 154.5,115.5 C 161.5,115.5 168.5,115.5 175.5,115.5C 175.5,122.833 175.5,130.167 175.5,137.5C 168.5,137.5 161.5,137.5 154.5,137.5C 154.5,130.167 154.5,122.833 154.5,115.5 Z"/></g>
<g><path style="opacity:1" fill="#000000" d="M 492.5,123.5 C 492.5,131.833 492.5,140.167 492.5,148.5C 460.167,148.5 427.833,148.5 395.5,148.5C 395.5,140.167 395.5,131.833 395.5,123.5C 427.833,123.5 460.167,123.5 492.5,123.5 Z"/></g>
<g><path style="opacity:1" fill="#4f81bd" d="M 397.5,125.5 C 404.833,125.5 412.167,125.5 419.5,125.5C 419.5,132.5 419.5,139.5 419.5,146.5C 412.167,146.5 404.833,146.5 397.5,146.5C 397.5,139.5 397.5,132.5 397.5,125.5 Z"/></g>
<g><path style="opacity:1" fill="#fefffe" d="M 421.5,125.5 C 428.5,125.5 435.5,125.5 442.5,125.5C 442.5,132.5 442.5,139.5 442.5,146.5C 435.5,146.5 428.5,146.5 421.5,146.5C 421.5,139.5 421.5,132.5 421.5,125.5 Z"/></g>
<g><path style="opacity:1" fill="#fefffe" d="M 444.5,125.5 C 451.833,125.5 459.167,125.5 466.5,125.5C 466.5,132.5 466.5,139.5 466.5,146.5C 459.167,146.5 451.833,146.5 444.5,146.5C 444.5,139.5 444.5,132.5 444.5,125.5 Z"/></g>
<g><path style="opacity:1" fill="#fefffe" d="M 468.5,125.5 C 475.833,125.5 483.167,125.5 490.5,125.5C 490.5,132.5 490.5,139.5 490.5,146.5C 483.167,146.5 475.833,146.5 468.5,146.5C 468.5,139.5 468.5,132.5 468.5,125.5 Z"/></g>
<g><path style="opacity:0.554" fill="#000000" d="M 280.5,138.5 C 282.394,139.048 284.06,140.048 285.5,141.5C 286.814,140.687 287.981,139.687 289,138.5C 289.833,139.333 290.667,140.167 291.5,141C 290.313,142.019 289.313,143.186 288.5,144.5C 289.5,145.833 290.5,147.167 291.5,148.5C 291.291,149.086 290.957,149.586 290.5,150C 288.583,149.973 286.916,149.139 285.5,147.5C 284.167,148.5 282.833,149.5 281.5,150.5C 280.914,150.291 280.414,149.957 280,149.5C 280.027,147.583 280.861,145.916 282.5,144.5C 281.5,143.167 280.5,141.833 279.5,140.5C 279.863,139.817 280.196,139.15 280.5,138.5 Z"/></g>
<g><path style="opacity:1" fill="#000000" d="M 237.5,152.5 C 269.5,152.5 301.5,152.5 333.5,152.5C 333.5,161.167 333.5,169.833 333.5,178.5C 301.5,178.5 269.5,178.5 237.5,178.5C 237.5,169.833 237.5,161.167 237.5,152.5 Z"/></g>
<g><path style="opacity:1" fill="#f1dcda" d="M 239.5,154.5 C 246.5,154.5 253.5,154.5 260.5,154.5C 260.5,161.833 260.5,169.167 260.5,176.5C 253.5,176.5 246.5,176.5 239.5,176.5C 239.5,169.167 239.5,161.833 239.5,154.5 Z"/></g>
<g><path style="opacity:1" fill="#e5b9b7" d="M 262.5,154.5 C 269.833,154.5 277.167,154.5 284.5,154.5C 284.5,161.833 284.5,169.167 284.5,176.5C 277.167,176.5 269.833,176.5 262.5,176.5C 262.5,169.167 262.5,161.833 262.5,154.5 Z"/></g>
<g><path style="opacity:1" fill="#d89693" d="M 286.5,154.5 C 293.5,154.5 300.5,154.5 307.5,154.5C 307.5,161.833 307.5,169.167 307.5,176.5C 300.5,176.5 293.5,176.5 286.5,176.5C 286.5,169.167 286.5,161.833 286.5,154.5 Z"/></g>
<g><path style="opacity:1" fill="#bf504c" d="M 309.5,154.5 C 316.833,154.5 324.167,154.5 331.5,154.5C 331.5,161.833 331.5,169.167 331.5,176.5C 324.167,176.5 316.833,176.5 309.5,176.5C 309.5,169.167 309.5,161.833 309.5,154.5 Z"/></g>
<g><path style="opacity:0.694" fill="#000000" d="M 19.5,166.5 C 20.675,166.281 21.675,166.614 22.5,167.5C 18.5794,175.183 18.5794,182.85 22.5,190.5C 19.7521,191.644 17.9187,190.644 17,187.5C 14.4487,180.051 15.282,173.051 19.5,166.5 Z"/></g>
<g><path style="opacity:0.69" fill="#000000" d="M 36.5,166.5 C 37.9778,166.238 39.3112,166.571 40.5,167.5C 43.8581,173.292 44.6914,179.292 43,185.5C 42.2054,188.115 40.7054,190.115 38.5,191.5C 37.8333,191.333 37.1667,191.167 36.5,191C 40.4707,182.839 40.4707,174.673 36.5,166.5 Z"/></g>
<g><path style="opacity:0.721" fill="#000000" d="M 52.5,167.5 C 54.1992,167.34 55.8659,167.506 57.5,168C 59.4579,170.748 61.2912,173.582 63,176.5C 63.498,173.518 63.6646,170.518 63.5,167.5C 65.1667,167.5 66.8333,167.5 68.5,167.5C 68.5,173.5 68.5,179.5 68.5,185.5C 66.396,185.799 64.396,185.466 62.5,184.5C 58.3745,175.01 56.7079,175.344 57.5,185.5C 55.8333,185.5 54.1667,185.5 52.5,185.5C 52.5,179.5 52.5,173.5 52.5,167.5 Z"/></g>
<g><path style="opacity:0.544" fill="#000000" d="M 84.5,167.5 C 86.1667,167.5 87.8333,167.5 89.5,167.5C 89.5,168.833 89.5,170.167 89.5,171.5C 87.8333,171.5 86.1667,171.5 84.5,171.5C 84.5,170.167 84.5,168.833 84.5,167.5 Z"/></g>
<g><path style="opacity:0.708" fill="#000000" d="M 26.5,171.5 C 29.4822,171.104 32.1489,171.771 34.5,173.5C 35.1347,177.367 35.8013,181.2 36.5,185C 33.4748,185.361 30.4748,185.861 27.5,186.5C 23.3299,185.444 22.1632,183.111 24,179.5C 26.045,178.113 28.2117,176.946 30.5,176C 28.2028,175.982 25.8695,176.149 23.5,176.5C 23.31,174.041 24.31,172.374 26.5,171.5 Z M 27.5,180.5 C 28.675,180.281 29.675,180.614 30.5,181.5C 28.9483,182.798 27.9483,182.465 27.5,180.5 Z"/></g>
<g><path style="opacity:0.708" fill="#000000" d="M 73.5,171.5 C 76.4822,171.104 79.1489,171.771 81.5,173.5C 82.1347,177.367 82.8013,181.2 83.5,185C 80.4748,185.361 77.4748,185.861 74.5,186.5C 70.3299,185.444 69.1632,183.111 71,179.5C 73.045,178.113 75.2117,176.946 77.5,176C 75.2028,175.982 72.8695,176.149 70.5,176.5C 70.31,174.041 71.31,172.374 73.5,171.5 Z M 74.5,180.5 C 75.675,180.281 76.675,180.614 77.5,181.5C 75.9483,182.798 74.9483,182.465 74.5,180.5 Z"/></g>
<g><path style="opacity:0.729" fill="#000000" d="M 109.5,171.5 C 115.615,171.384 118.282,174.384 117.5,180.5C 113.689,180.596 113.689,181.262 117.5,182.5C 114.148,187.465 110.315,187.799 106,183.5C 103.845,178.47 105.012,174.47 109.5,171.5 Z M 110.5,175.5 C 111.756,175.461 112.756,175.961 113.5,177C 112.167,177.667 110.833,177.667 109.5,177C 110.056,176.617 110.389,176.117 110.5,175.5 Z M 109.5,181.5 C 110.601,180.402 111.934,180.235 113.5,181C 112.318,182.768 110.985,182.935 109.5,181.5 Z"/></g>
<g><path style="opacity:0.684" fill="#000000" d="M 84.5,172.5 C 86.1667,172.5 87.8333,172.5 89.5,172.5C 89.5,176.833 89.5,181.167 89.5,185.5C 87.8333,185.5 86.1667,185.5 84.5,185.5C 84.5,181.167 84.5,176.833 84.5,172.5 Z"/></g>
<g><path style="opacity:0.748" fill="#000000" d="M 90.5,172.5 C 92.1667,172.5 93.8333,172.5 95.5,172.5C 96.4196,180.271 97.753,180.271 99.5,172.5C 101.288,172.215 102.955,172.548 104.5,173.5C 99.1013,189.662 94.4346,189.329 90.5,172.5 Z"/></g>
<g><path style="opacity:1" fill="#000000" d="M 237.5,260.5 C 269.5,260.5 301.5,260.5 333.5,260.5C 333.5,268.833 333.5,277.167 333.5,285.5C 301.5,285.5 269.5,285.5 237.5,285.5C 237.5,277.167 237.5,268.833 237.5,260.5 Z"/></g>
<g><path style="opacity:1" fill="#91d04f" d="M 239.5,262.5 C 246.5,262.5 253.5,262.5 260.5,262.5C 260.5,269.5 260.5,276.5 260.5,283.5C 253.5,283.5 246.5,283.5 239.5,283.5C 239.5,276.5 239.5,269.5 239.5,262.5 Z"/></g>
<g><path style="opacity:1" fill="#91d04f" d="M 262.5,262.5 C 269.833,262.5 277.167,262.5 284.5,262.5C 284.5,269.5 284.5,276.5 284.5,283.5C 277.167,283.5 269.833,283.5 262.5,283.5C 262.5,276.5 262.5,269.5 262.5,262.5 Z"/></g>
<g><path style="opacity:1" fill="#91d04f" d="M 286.5,262.5 C 293.5,262.5 300.5,262.5 307.5,262.5C 307.5,269.5 307.5,276.5 307.5,283.5C 300.5,283.5 293.5,283.5 286.5,283.5C 286.5,276.5 286.5,269.5 286.5,262.5 Z"/></g>
<g><path style="opacity:1" fill="#91d04f" d="M 309.5,262.5 C 316.833,262.5 324.167,262.5 331.5,262.5C 331.5,269.5 331.5,276.5 331.5,283.5C 324.167,283.5 316.833,283.5 309.5,283.5C 309.5,276.5 309.5,269.5 309.5,262.5 Z"/></g>
<g><path style="opacity:0.826" fill="#7a7a7a" d="M 56.5,274.5 C 57.8333,274.5 59.1667,274.5 60.5,274.5C 61.1546,285.559 62.3213,285.892 64,275.5C 65.6667,274.167 67.3333,274.167 69,275.5C 70.6787,285.892 71.8454,285.559 72.5,274.5C 73.8333,274.5 75.1667,274.5 76.5,274.5C 75.8183,279.893 74.8183,285.227 73.5,290.5C 71.8333,290.5 70.1667,290.5 68.5,290.5C 67.1429,281.204 65.8096,281.204 64.5,290.5C 62.712,290.785 61.0453,290.452 59.5,289.5C 58.0228,284.592 57.0228,279.592 56.5,274.5 Z"/></g>
<g><path style="opacity:0.804" fill="#7b7b7b" d="M 156.5,279.5 C 160.038,279.215 161.871,280.882 162,284.5C 163.02,283.109 163.853,281.609 164.5,280C 165.944,279.219 167.277,279.386 168.5,280.5C 163.577,293.941 159.577,293.608 156.5,279.5 Z"/></g>
<g><path style="opacity:0.554" fill="#000000" d="M 280.5,288.5 C 282.394,289.048 284.06,290.048 285.5,291.5C 286.814,290.687 287.981,289.687 289,288.5C 289.833,289.333 290.667,290.167 291.5,291C 290.313,292.019 289.313,293.186 288.5,294.5C 289.5,295.833 290.5,297.167 291.5,298.5C 291.291,299.086 290.957,299.586 290.5,300C 288.583,299.973 286.916,299.139 285.5,297.5C 284.167,298.5 282.833,299.5 281.5,300.5C 280.914,300.291 280.414,299.957 280,299.5C 280.027,297.583 280.861,295.916 282.5,294.5C 281.5,293.167 280.5,291.833 279.5,290.5C 279.863,289.817 280.196,289.15 280.5,288.5 Z"/></g>
<g><path style="opacity:1" fill="#000000" d="M 237.5,302.5 C 269.5,302.5 301.5,302.5 333.5,302.5C 333.5,311.167 333.5,319.833 333.5,328.5C 301.5,328.5 269.5,328.5 237.5,328.5C 237.5,319.833 237.5,311.167 237.5,302.5 Z"/></g>
<g><path style="opacity:1" fill="#000000" d="M 18.5,303.5 C 50.5,303.5 82.5,303.5 114.5,303.5C 114.5,335.5 114.5,367.5 114.5,399.5C 82.5,399.5 50.5,399.5 18.5,399.5C 18.5,367.5 18.5,335.5 18.5,303.5 Z"/></g>
<g><path style="opacity:1" fill="#000000" d="M 152.5,303.5 C 160.833,303.5 169.167,303.5 177.5,303.5C 177.5,335.5 177.5,367.5 177.5,399.5C 169.167,399.5 160.833,399.5 152.5,399.5C 152.5,367.5 152.5,335.5 152.5,303.5 Z"/></g>
<g><path style="opacity:1" fill="#f1dcda" d="M 239.5,304.5 C 246.5,304.5 253.5,304.5 260.5,304.5C 260.5,311.833 260.5,319.167 260.5,326.5C 253.5,326.5 246.5,326.5 239.5,326.5C 239.5,319.167 239.5,311.833 239.5,304.5 Z"/></g>
<g><path style="opacity:1" fill="#e5b9b7" d="M 262.5,304.5 C 269.833,304.5 277.167,304.5 284.5,304.5C 284.5,311.833 284.5,319.167 284.5,326.5C 277.167,326.5 269.833,326.5 262.5,326.5C 262.5,319.167 262.5,311.833 262.5,304.5 Z"/></g>
<g><path style="opacity:1" fill="#d89693" d="M 286.5,304.5 C 293.5,304.5 300.5,304.5 307.5,304.5C 307.5,311.833 307.5,319.167 307.5,326.5C 300.5,326.5 293.5,326.5 286.5,326.5C 286.5,319.167 286.5,311.833 286.5,304.5 Z"/></g>
<g><path style="opacity:1" fill="#bf504c" d="M 309.5,304.5 C 316.833,304.5 324.167,304.5 331.5,304.5C 331.5,311.833 331.5,319.167 331.5,326.5C 324.167,326.5 316.833,326.5 309.5,326.5C 309.5,319.167 309.5,311.833 309.5,304.5 Z"/></g>
<g><path style="opacity:1" fill="#91d04f" d="M 20.5,305.5 C 27.5,305.5 34.5,305.5 41.5,305.5C 41.5,312.5 41.5,319.5 41.5,326.5C 34.5,326.5 27.5,326.5 20.5,326.5C 20.5,319.5 20.5,312.5 20.5,305.5 Z"/></g>
<g><path style="opacity:1" fill="#feff00" d="M 43.5,305.5 C 50.8333,305.5 58.1667,305.5 65.5,305.5C 65.5,312.5 65.5,319.5 65.5,326.5C 58.1667,326.5 50.8333,326.5 43.5,326.5C 43.5,319.5 43.5,312.5 43.5,305.5 Z"/></g>
<g><path style="opacity:1" fill="#cbc1d9" d="M 67.5,305.5 C 74.8333,305.5 82.1667,305.5 89.5,305.5C 89.5,312.5 89.5,319.5 89.5,326.5C 82.1667,326.5 74.8333,326.5 67.5,326.5C 67.5,319.5 67.5,312.5 67.5,305.5 Z"/></g>
<g><path style="opacity:1" fill="#d8d9d8" d="M 91.5,305.5 C 98.5,305.5 105.5,305.5 112.5,305.5C 112.5,312.5 112.5,319.5 112.5,326.5C 105.5,326.5 98.5,326.5 91.5,326.5C 91.5,319.5 91.5,312.5 91.5,305.5 Z"/></g>
<g><path style="opacity:1" fill="#f1dcda" d="M 154.5,305.5 C 161.5,305.5 168.5,305.5 175.5,305.5C 175.5,312.5 175.5,319.5 175.5,326.5C 168.5,326.5 161.5,326.5 154.5,326.5C 154.5,319.5 154.5,312.5 154.5,305.5 Z"/></g>
<g><path style="opacity:0.826" fill="#7a7a7a" d="M 444.5,313.5 C 443.055,316.937 442.055,320.603 441.5,324.5C 439.833,324.5 438.167,324.5 436.5,324.5C 435.143,315.204 433.81,315.204 432.5,324.5C 430.712,324.785 429.045,324.452 427.5,323.5C 426.023,318.592 425.023,313.592 424.5,308.5C 425.833,308.5 427.167,308.5 428.5,308.5C 429.155,319.559 430.321,319.892 432,309.5C 433.667,308.167 435.333,308.167 437,309.5C 438.679,319.892 439.845,319.559 440.5,308.5C 441.833,308.5 443.167,308.5 444.5,308.5C 444.5,310.167 444.5,311.833 444.5,313.5 Z"/></g>
<g><path style="opacity:0.804" fill="#7b7b7b" d="M 444.5,313.5 C 448.038,313.215 449.871,314.882 450,318.5C 451.02,317.109 451.853,315.609 452.5,314C 453.944,313.219 455.277,313.386 456.5,314.5C 451.577,327.941 447.577,327.608 444.5,313.5 Z"/></g>
<g><path style="opacity:1" fill="#d8d9d8" d="M 20.5,328.5 C 27.5,328.5 34.5,328.5 41.5,328.5C 41.5,335.833 41.5,343.167 41.5,350.5C 34.5,350.5 27.5,350.5 20.5,350.5C 20.5,343.167 20.5,335.833 20.5,328.5 Z"/></g>
<g><path style="opacity:1" fill="#91d04f" d="M 43.5,328.5 C 50.8333,328.5 58.1667,328.5 65.5,328.5C 65.5,335.833 65.5,343.167 65.5,350.5C 58.1667,350.5 50.8333,350.5 43.5,350.5C 43.5,343.167 43.5,335.833 43.5,328.5 Z"/></g>
<g><path style="opacity:1" fill="#feff00" d="M 67.5,328.5 C 74.8333,328.5 82.1667,328.5 89.5,328.5C 89.5,335.833 89.5,343.167 89.5,350.5C 82.1667,350.5 74.8333,350.5 67.5,350.5C 67.5,343.167 67.5,335.833 67.5,328.5 Z"/></g>
<g><path style="opacity:1" fill="#cbc1d9" d="M 91.5,328.5 C 98.5,328.5 105.5,328.5 112.5,328.5C 112.5,335.833 112.5,343.167 112.5,350.5C 105.5,350.5 98.5,350.5 91.5,350.5C 91.5,343.167 91.5,335.833 91.5,328.5 Z"/></g>
<g><path style="opacity:1" fill="#e5b9b7" d="M 154.5,328.5 C 161.5,328.5 168.5,328.5 175.5,328.5C 175.5,335.833 175.5,343.167 175.5,350.5C 168.5,350.5 161.5,350.5 154.5,350.5C 154.5,343.167 154.5,335.833 154.5,328.5 Z"/></g>
<g><path style="opacity:1" fill="#000000" d="M 394.5,336.5 C 426.833,336.5 459.167,336.5 491.5,336.5C 491.5,345.167 491.5,353.833 491.5,362.5C 459.167,362.5 426.833,362.5 394.5,362.5C 394.5,353.833 394.5,345.167 394.5,336.5 Z"/></g>
<g><path style="opacity:0.96" fill="#bebebe" d="M 364.5,337.5 C 368.812,341.146 372.812,345.146 376.5,349.5C 372.849,353.652 369.016,357.652 365,361.5C 364.505,359.527 364.338,357.527 364.5,355.5C 360.5,355.5 356.5,355.5 352.5,355.5C 352.5,351.5 352.5,347.5 352.5,343.5C 356.5,343.5 360.5,343.5 364.5,343.5C 364.5,341.5 364.5,339.5 364.5,337.5 Z"/></g>
<g><path style="opacity:0.949" fill="#bdbdbd" d="M 209.5,338.5 C 214.457,341.457 218.457,345.457 221.5,350.5C 218.542,355.126 214.876,359.126 210.5,362.5C 209.534,360.604 209.201,358.604 209.5,356.5C 205.833,356.5 202.167,356.5 198.5,356.5C 198.5,352.5 198.5,348.5 198.5,344.5C 202.167,344.5 205.833,344.5 209.5,344.5C 209.5,342.5 209.5,340.5 209.5,338.5 Z"/></g>
<g><path style="opacity:1" fill="#dbe6f1" d="M 396.5,338.5 C 403.833,338.5 411.167,338.5 418.5,338.5C 418.5,345.833 418.5,353.167 418.5,360.5C 411.167,360.5 403.833,360.5 396.5,360.5C 396.5,353.167 396.5,345.833 396.5,338.5 Z"/></g>
<g><path style="opacity:1" fill="#b8cde4" d="M 420.5,338.5 C 427.833,338.5 435.167,338.5 442.5,338.5C 442.5,345.833 442.5,353.167 442.5,360.5C 435.167,360.5 427.833,360.5 420.5,360.5C 420.5,353.167 420.5,345.833 420.5,338.5 Z"/></g>
<g><path style="opacity:1" fill="#94b3d6" d="M 444.5,338.5 C 451.5,338.5 458.5,338.5 465.5,338.5C 465.5,345.833 465.5,353.167 465.5,360.5C 458.5,360.5 451.5,360.5 444.5,360.5C 444.5,353.167 444.5,345.833 444.5,338.5 Z"/></g>
<g><path style="opacity:1" fill="#4f81bd" d="M 467.5,338.5 C 474.833,338.5 482.167,338.5 489.5,338.5C 489.5,345.833 489.5,353.167 489.5,360.5C 482.167,360.5 474.833,360.5 467.5,360.5C 467.5,353.167 467.5,345.833 467.5,338.5 Z"/></g>
<g><path style="opacity:0.582" fill="#000000" d="M 129.5,341.5 C 142.982,341.781 146.815,348.115 141,360.5C 133.977,365.165 127.977,364.165 123,357.5C 120.632,350.296 122.798,344.962 129.5,341.5 Z M 132.5,343.5 C 137.81,344.143 140.81,347.143 141.5,352.5C 139.304,360.514 134.637,362.514 127.5,358.5C 124.26,355.206 123.76,351.539 126,347.5C 127.792,345.372 129.958,344.039 132.5,343.5 Z"/></g>
<g><path style="opacity:0.645" fill="#000000" d="M 258.5,346.5 C 259.5,346.5 260.5,346.5 261.5,346.5C 261.5,348.167 261.5,349.833 261.5,351.5C 263.167,351.5 264.833,351.5 266.5,351.5C 266.5,352.5 266.5,353.5 266.5,354.5C 264.833,354.5 263.167,354.5 261.5,354.5C 261.5,356.167 261.5,357.833 261.5,359.5C 260.5,359.5 259.5,359.5 258.5,359.5C 258.5,357.833 258.5,356.167 258.5,354.5C 256.833,354.5 255.167,354.5 253.5,354.5C 253.5,353.5 253.5,352.5 253.5,351.5C 255.167,351.5 256.833,351.5 258.5,351.5C 258.5,349.833 258.5,348.167 258.5,346.5 Z"/></g>
<g><path style="opacity:0.645" fill="#000000" d="M 308.5,346.5 C 309.5,346.5 310.5,346.5 311.5,346.5C 311.5,348.167 311.5,349.833 311.5,351.5C 313.167,351.5 314.833,351.5 316.5,351.5C 316.5,352.5 316.5,353.5 316.5,354.5C 314.833,354.5 313.167,354.5 311.5,354.5C 311.5,356.167 311.5,357.833 311.5,359.5C 310.5,359.5 309.5,359.5 308.5,359.5C 308.5,357.833 308.5,356.167 308.5,354.5C 306.833,354.5 305.167,354.5 303.5,354.5C 303.5,353.5 303.5,352.5 303.5,351.5C 305.167,351.5 306.833,351.5 308.5,351.5C 308.5,349.833 308.5,348.167 308.5,346.5 Z"/></g>
<g><path style="opacity:0.447" fill="#000000" d="M 131.5,347.5 C 133.711,347.967 135.711,348.967 137.5,350.5C 136.289,351.72 136.289,352.887 137.5,354C 136.747,355.487 135.914,355.654 135,354.5C 134.612,355.428 133.945,356.095 133,356.5C 131.674,355.027 130.174,354.194 128.5,354C 131.028,352.684 131.028,351.517 128.5,350.5C 129.993,349.859 130.993,348.859 131.5,347.5 Z"/></g>
<g><path style="opacity:1" fill="#cbc1d9" d="M 20.5,352.5 C 27.5,352.5 34.5,352.5 41.5,352.5C 41.5,359.5 41.5,366.5 41.5,373.5C 34.5,373.5 27.5,373.5 20.5,373.5C 20.5,366.5 20.5,359.5 20.5,352.5 Z"/></g>
<g><path style="opacity:1" fill="#d8d9d8" d="M 43.5,352.5 C 50.8333,352.5 58.1667,352.5 65.5,352.5C 65.5,359.5 65.5,366.5 65.5,373.5C 58.1667,373.5 50.8333,373.5 43.5,373.5C 43.5,366.5 43.5,359.5 43.5,352.5 Z"/></g>
<g><path style="opacity:1" fill="#91d04f" d="M 67.5,352.5 C 74.8333,352.5 82.1667,352.5 89.5,352.5C 89.5,359.5 89.5,366.5 89.5,373.5C 82.1667,373.5 74.8333,373.5 67.5,373.5C 67.5,366.5 67.5,359.5 67.5,352.5 Z"/></g>
<g><path style="opacity:1" fill="#feff00" d="M 91.5,352.5 C 98.5,352.5 105.5,352.5 112.5,352.5C 112.5,359.5 112.5,366.5 112.5,373.5C 105.5,373.5 98.5,373.5 91.5,373.5C 91.5,366.5 91.5,359.5 91.5,352.5 Z"/></g>
<g><path style="opacity:1" fill="#d89693" d="M 154.5,352.5 C 161.5,352.5 168.5,352.5 175.5,352.5C 175.5,359.5 175.5,366.5 175.5,373.5C 168.5,373.5 161.5,373.5 154.5,373.5C 154.5,366.5 154.5,359.5 154.5,352.5 Z"/></g>
<g><path style="opacity:0.479" fill="#000000" d="M 276.5,352.5 C 278.346,352.222 279.68,352.889 280.5,354.5C 279.68,356.111 278.346,356.778 276.5,356.5C 276.5,355.167 276.5,353.833 276.5,352.5 Z"/></g>
<g><path style="opacity:0.479" fill="#000000" d="M 284.5,352.5 C 285.5,352.5 286.5,352.5 287.5,352.5C 287.5,353.833 287.5,355.167 287.5,356.5C 284.046,356.733 283.046,355.4 284.5,352.5 Z"/></g>
<g><path style="opacity:0.516" fill="#000000" d="M 291.5,352.5 C 296.536,353.505 296.536,354.838 291.5,356.5C 291.5,355.167 291.5,353.833 291.5,352.5 Z"/></g>
<g><path style="opacity:1" fill="#000000" d="M 237.5,374.5 C 269.5,374.5 301.5,374.5 333.5,374.5C 333.5,382.833 333.5,391.167 333.5,399.5C 301.5,399.5 269.5,399.5 237.5,399.5C 237.5,391.167 237.5,382.833 237.5,374.5 Z"/></g>
<g><path style="opacity:1" fill="#feff00" d="M 20.5,375.5 C 27.5,375.5 34.5,375.5 41.5,375.5C 41.5,382.833 41.5,390.167 41.5,397.5C 34.5,397.5 27.5,397.5 20.5,397.5C 20.5,390.167 20.5,382.833 20.5,375.5 Z"/></g>
<g><path style="opacity:1" fill="#cbc1d9" d="M 43.5,375.5 C 50.8333,375.5 58.1667,375.5 65.5,375.5C 65.5,382.833 65.5,390.167 65.5,397.5C 58.1667,397.5 50.8333,397.5 43.5,397.5C 43.5,390.167 43.5,382.833 43.5,375.5 Z"/></g>
<g><path style="opacity:1" fill="#d8d9d8" d="M 67.5,375.5 C 74.8333,375.5 82.1667,375.5 89.5,375.5C 89.5,382.833 89.5,390.167 89.5,397.5C 82.1667,397.5 74.8333,397.5 67.5,397.5C 67.5,390.167 67.5,382.833 67.5,375.5 Z"/></g>
<g><path style="opacity:1" fill="#91d04f" d="M 91.5,375.5 C 98.5,375.5 105.5,375.5 112.5,375.5C 112.5,382.833 112.5,390.167 112.5,397.5C 105.5,397.5 98.5,397.5 91.5,397.5C 91.5,390.167 91.5,382.833 91.5,375.5 Z"/></g>
<g><path style="opacity:1" fill="#bf504c" d="M 154.5,375.5 C 161.5,375.5 168.5,375.5 175.5,375.5C 175.5,382.833 175.5,390.167 175.5,397.5C 168.5,397.5 161.5,397.5 154.5,397.5C 154.5,390.167 154.5,382.833 154.5,375.5 Z"/></g>
<g><path style="opacity:1" fill="#d8d9d8" d="M 239.5,376.5 C 246.5,376.5 253.5,376.5 260.5,376.5C 260.5,383.5 260.5,390.5 260.5,397.5C 253.5,397.5 246.5,397.5 239.5,397.5C 239.5,390.5 239.5,383.5 239.5,376.5 Z"/></g>
<g><path style="opacity:1" fill="#d8d9d8" d="M 262.5,376.5 C 269.833,376.5 277.167,376.5 284.5,376.5C 284.5,383.5 284.5,390.5 284.5,397.5C 277.167,397.5 269.833,397.5 262.5,397.5C 262.5,390.5 262.5,383.5 262.5,376.5 Z"/></g>
<g><path style="opacity:1" fill="#d8d9d8" d="M 286.5,376.5 C 293.5,376.5 300.5,376.5 307.5,376.5C 307.5,383.5 307.5,390.5 307.5,397.5C 300.5,397.5 293.5,397.5 286.5,397.5C 286.5,390.5 286.5,383.5 286.5,376.5 Z"/></g>
<g><path style="opacity:1" fill="#d8d9d8" d="M 309.5,376.5 C 316.833,376.5 324.167,376.5 331.5,376.5C 331.5,383.5 331.5,390.5 331.5,397.5C 324.167,397.5 316.833,397.5 309.5,397.5C 309.5,390.5 309.5,383.5 309.5,376.5 Z"/></g>
<g><path style="opacity:0.554" fill="#000000" d="M 280.5,402.5 C 282.394,403.048 284.06,404.048 285.5,405.5C 286.814,404.687 287.981,403.687 289,402.5C 289.833,403.333 290.667,404.167 291.5,405C 290.313,406.019 289.313,407.186 288.5,408.5C 289.5,409.833 290.5,411.167 291.5,412.5C 291.291,413.086 290.957,413.586 290.5,414C 288.583,413.973 286.916,413.139 285.5,411.5C 284.167,412.5 282.833,413.5 281.5,414.5C 280.914,414.291 280.414,413.957 280,413.5C 280.027,411.583 280.861,409.916 282.5,408.5C 281.5,407.167 280.5,405.833 279.5,404.5C 279.863,403.817 280.196,403.15 280.5,402.5 Z"/></g>
<g><path style="opacity:1" fill="#000000" d="M 237.5,416.5 C 269.5,416.5 301.5,416.5 333.5,416.5C 333.5,424.833 333.5,433.167 333.5,441.5C 301.5,441.5 269.5,441.5 237.5,441.5C 237.5,433.167 237.5,424.833 237.5,416.5 Z"/></g>
<g><path style="opacity:1" fill="#bf504c" d="M 239.5,418.5 C 246.5,418.5 253.5,418.5 260.5,418.5C 260.5,425.5 260.5,432.5 260.5,439.5C 253.5,439.5 246.5,439.5 239.5,439.5C 239.5,432.5 239.5,425.5 239.5,418.5 Z"/></g>
<g><path style="opacity:1" fill="#d89693" d="M 262.5,418.5 C 269.833,418.5 277.167,418.5 284.5,418.5C 284.5,425.5 284.5,432.5 284.5,439.5C 277.167,439.5 269.833,439.5 262.5,439.5C 262.5,432.5 262.5,425.5 262.5,418.5 Z"/></g>
<g><path style="opacity:1" fill="#e5b9b7" d="M 286.5,418.5 C 293.5,418.5 300.5,418.5 307.5,418.5C 307.5,425.5 307.5,432.5 307.5,439.5C 300.5,439.5 293.5,439.5 286.5,439.5C 286.5,432.5 286.5,425.5 286.5,418.5 Z"/></g>
<g><path style="opacity:1" fill="#f1dcda" d="M 309.5,418.5 C 316.833,418.5 324.167,418.5 331.5,418.5C 331.5,425.5 331.5,432.5 331.5,439.5C 324.167,439.5 316.833,439.5 309.5,439.5C 309.5,432.5 309.5,425.5 309.5,418.5 Z"/></g>
<g><path style="opacity:0.694" fill="#000000" d="M 20.5,435.5 C 21.675,435.281 22.675,435.614 23.5,436.5C 19.5794,444.183 19.5794,451.85 23.5,459.5C 20.7521,460.644 18.9187,459.644 18,456.5C 15.4487,449.051 16.282,442.051 20.5,435.5 Z"/></g>
<g><path style="opacity:0.69" fill="#000000" d="M 38.5,435.5 C 39.9778,435.238 41.3112,435.571 42.5,436.5C 45.8581,442.292 46.6914,448.292 45,454.5C 44.2054,457.115 42.7054,459.115 40.5,460.5C 39.8333,460.333 39.1667,460.167 38.5,460C 42.4707,451.839 42.4707,443.673 38.5,435.5 Z"/></g>
<g><path style="opacity:0.721" fill="#000000" d="M 24.5,436.5 C 26.1667,436.5 27.8333,436.5 29.5,436.5C 29.3398,438.199 29.5065,439.866 30,441.5C 32.279,440.41 34.4457,440.744 36.5,442.5C 39.5167,447.251 38.85,451.417 34.5,455C 31.1996,454.954 27.8663,454.788 24.5,454.5C 24.5,448.5 24.5,442.5 24.5,436.5 Z M 30.5,444.5 C 32.7224,444.559 33.7224,445.725 33.5,448C 32.1667,452.667 30.8333,452.667 29.5,448C 29.6483,446.744 29.9816,445.577 30.5,444.5 Z"/></g>
<g><path style="opacity:0.758" fill="#000000" d="M 55.5,436.5 C 67.9768,433.485 73.1434,438.151 71,450.5C 70.1667,451.5 69.3333,452.5 68.5,453.5C 64.2351,454.439 59.9017,454.772 55.5,454.5C 55.5,448.5 55.5,442.5 55.5,436.5 Z M 60.5,440.5 C 64.7806,439.483 67.114,441.15 67.5,445.5C 67.114,449.85 64.7806,451.517 60.5,450.5C 60.5,447.167 60.5,443.833 60.5,440.5 Z"/></g>
<g><path style="opacity:0.544" fill="#000000" d="M 73.5,436.5 C 75.1667,436.5 76.8333,436.5 78.5,436.5C 78.5,437.833 78.5,439.167 78.5,440.5C 76.8333,440.5 75.1667,440.5 73.5,440.5C 73.5,439.167 73.5,437.833 73.5,436.5 Z"/></g>
<g><path style="opacity:0.682" fill="#000000" d="M 153.5,436.5 C 155.167,436.5 156.833,436.5 158.5,436.5C 158.5,442.5 158.5,448.5 158.5,454.5C 156.833,454.5 155.167,454.5 153.5,454.5C 153.5,448.5 153.5,442.5 153.5,436.5 Z"/></g>
<g><path style="opacity:0.708" fill="#000000" d="M 83.5,440.5 C 86.4822,440.104 89.1489,440.771 91.5,442.5C 92.1347,446.367 92.8013,450.2 93.5,454C 90.4748,454.361 87.4748,454.861 84.5,455.5C 80.3299,454.444 79.1632,452.111 81,448.5C 83.045,447.113 85.2117,445.946 87.5,445C 85.2028,444.982 82.8695,445.149 80.5,445.5C 80.31,443.041 81.31,441.374 83.5,440.5 Z M 84.5,449.5 C 85.675,449.281 86.675,449.614 87.5,450.5C 85.9483,451.798 84.9483,451.465 84.5,449.5 Z"/></g>
<g><path style="opacity:0.763" fill="#000000" d="M 96.5,454.5 C 91.7545,443.239 95.4212,438.906 107.5,441.5C 107.666,446.844 107.499,452.177 107,457.5C 102.121,461.785 97.9539,461.285 94.5,456C 94.8361,454.97 95.5028,454.47 96.5,454.5 Z M 99.5,444.5 C 104.007,445.867 104.507,448.201 101,451.5C 98.4341,449.573 97.9341,447.24 99.5,444.5 Z M 96.5,454.5 C 99.1143,454.295 101.448,454.295 103.5,454.5C 103.113,455.72 102.28,456.387 101,456.5C 99.2725,456.101 97.7725,455.434 96.5,454.5 Z"/></g>
<g><path style="opacity:0.708" fill="#000000" d="M 113.5,440.5 C 120.676,440.173 123.842,443.506 123,450.5C 119.455,456.209 115.121,456.875 110,452.5C 109.333,449.5 109.333,446.5 110,443.5C 111.145,442.364 112.312,441.364 113.5,440.5 Z M 115.5,444.5 C 117.722,444.559 118.722,445.725 118.5,448C 117.164,452.536 115.498,452.536 113.5,448C 113.978,446.697 114.645,445.531 115.5,444.5 Z"/></g>
<g><path style="opacity:0.752" fill="#000000" d="M 131.5,440.5 C 133.582,440.472 135.416,441.139 137,442.5C 137.499,446.486 137.666,450.486 137.5,454.5C 136.167,454.5 134.833,454.5 133.5,454.5C 133.665,451.482 133.498,448.482 133,445.5C 132,444.167 131,444.167 130,445.5C 129.502,448.482 129.335,451.482 129.5,454.5C 127.833,454.5 126.167,454.5 124.5,454.5C 124.5,450.167 124.5,445.833 124.5,441.5C 126.144,441.286 127.644,441.62 129,442.5C 129.995,441.934 130.828,441.267 131.5,440.5 Z"/></g>
<g><path style="opacity:0.708" fill="#000000" d="M 142.5,440.5 C 145.482,440.104 148.149,440.771 150.5,442.5C 151.135,446.367 151.801,450.2 152.5,454C 149.475,454.361 146.475,454.861 143.5,455.5C 139.33,454.444 138.163,452.111 140,448.5C 142.045,447.113 144.212,445.946 146.5,445C 144.203,444.982 141.869,445.149 139.5,445.5C 139.31,443.041 140.31,441.374 142.5,440.5 Z M 143.5,449.5 C 144.675,449.281 145.675,449.614 146.5,450.5C 144.948,451.798 143.948,451.465 143.5,449.5 Z"/></g>
<g><path style="opacity:0.684" fill="#000000" d="M 73.5,441.5 C 75.1667,441.5 76.8333,441.5 78.5,441.5C 78.5,445.833 78.5,450.167 78.5,454.5C 76.8333,454.5 75.1667,454.5 73.5,454.5C 73.5,450.167 73.5,445.833 73.5,441.5 Z"/></g>
<g><path style="opacity:1" fill="#000000" d="M 237.5,530.5 C 269.5,530.5 301.5,530.5 333.5,530.5C 333.5,538.833 333.5,547.167 333.5,555.5C 301.5,555.5 269.5,555.5 237.5,555.5C 237.5,547.167 237.5,538.833 237.5,530.5 Z"/></g>
<g><path style="opacity:1" fill="#91d04f" d="M 239.5,532.5 C 246.5,532.5 253.5,532.5 260.5,532.5C 260.5,539.5 260.5,546.5 260.5,553.5C 253.5,553.5 246.5,553.5 239.5,553.5C 239.5,546.5 239.5,539.5 239.5,532.5 Z"/></g>
<g><path style="opacity:1" fill="#91d04f" d="M 262.5,532.5 C 269.833,532.5 277.167,532.5 284.5,532.5C 284.5,539.5 284.5,546.5 284.5,553.5C 277.167,553.5 269.833,553.5 262.5,553.5C 262.5,546.5 262.5,539.5 262.5,532.5 Z"/></g>
<g><path style="opacity:1" fill="#91d04f" d="M 286.5,532.5 C 293.5,532.5 300.5,532.5 307.5,532.5C 307.5,539.5 307.5,546.5 307.5,553.5C 300.5,553.5 293.5,553.5 286.5,553.5C 286.5,546.5 286.5,539.5 286.5,532.5 Z"/></g>
<g><path style="opacity:1" fill="#91d04f" d="M 309.5,532.5 C 316.833,532.5 324.167,532.5 331.5,532.5C 331.5,539.5 331.5,546.5 331.5,553.5C 324.167,553.5 316.833,553.5 309.5,553.5C 309.5,546.5 309.5,539.5 309.5,532.5 Z"/></g>
<g><path style="opacity:0.826" fill="#7a7a7a" d="M 56.5,558.5 C 57.8333,558.5 59.1667,558.5 60.5,558.5C 61.1546,569.559 62.3213,569.892 64,559.5C 65.6667,558.167 67.3333,558.167 69,559.5C 70.6787,569.892 71.8454,569.559 72.5,558.5C 73.8333,558.5 75.1667,558.5 76.5,558.5C 75.8183,563.893 74.8183,569.227 73.5,574.5C 71.8333,574.5 70.1667,574.5 68.5,574.5C 67.1429,565.204 65.8096,565.204 64.5,574.5C 62.712,574.785 61.0453,574.452 59.5,573.5C 58.0228,568.592 57.0228,563.592 56.5,558.5 Z"/></g>
<g><path style="opacity:0.554" fill="#000000" d="M 280.5,558.5 C 282.394,559.048 284.06,560.048 285.5,561.5C 286.814,560.687 287.981,559.687 289,558.5C 289.833,559.333 290.667,560.167 291.5,561C 290.313,562.019 289.313,563.186 288.5,564.5C 289.5,565.833 290.5,567.167 291.5,568.5C 291.291,569.086 290.957,569.586 290.5,570C 288.583,569.973 286.916,569.139 285.5,567.5C 284.167,568.5 282.833,569.5 281.5,570.5C 280.914,570.291 280.414,569.957 280,569.5C 280.027,567.583 280.861,565.916 282.5,564.5C 281.5,563.167 280.5,561.833 279.5,560.5C 279.863,559.817 280.196,559.15 280.5,558.5 Z"/></g>
<g><path style="opacity:0.804" fill="#7b7b7b" d="M 156.5,563.5 C 160.038,563.215 161.871,564.882 162,568.5C 163.02,567.109 163.853,565.609 164.5,564C 165.944,563.219 167.277,563.386 168.5,564.5C 163.577,577.941 159.577,577.608 156.5,563.5 Z"/></g>
<g><path style="opacity:1" fill="#000000" d="M 237.5,572.5 C 269.5,572.5 301.5,572.5 333.5,572.5C 333.5,581.167 333.5,589.833 333.5,598.5C 301.5,598.5 269.5,598.5 237.5,598.5C 237.5,589.833 237.5,581.167 237.5,572.5 Z"/></g>
<g><path style="opacity:1" fill="#f1dcda" d="M 239.5,574.5 C 246.5,574.5 253.5,574.5 260.5,574.5C 260.5,581.833 260.5,589.167 260.5,596.5C 253.5,596.5 246.5,596.5 239.5,596.5C 239.5,589.167 239.5,581.833 239.5,574.5 Z"/></g>
<g><path style="opacity:1" fill="#e5b9b7" d="M 262.5,574.5 C 269.833,574.5 277.167,574.5 284.5,574.5C 284.5,581.833 284.5,589.167 284.5,596.5C 277.167,596.5 269.833,596.5 262.5,596.5C 262.5,589.167 262.5,581.833 262.5,574.5 Z"/></g>
<g><path style="opacity:1" fill="#d89693" d="M 286.5,574.5 C 293.5,574.5 300.5,574.5 307.5,574.5C 307.5,581.833 307.5,589.167 307.5,596.5C 300.5,596.5 293.5,596.5 286.5,596.5C 286.5,589.167 286.5,581.833 286.5,574.5 Z"/></g>
<g><path style="opacity:1" fill="#bf504c" d="M 309.5,574.5 C 316.833,574.5 324.167,574.5 331.5,574.5C 331.5,581.833 331.5,589.167 331.5,596.5C 324.167,596.5 316.833,596.5 309.5,596.5C 309.5,589.167 309.5,581.833 309.5,574.5 Z"/></g>
<g><path style="opacity:1" fill="#000000" d="M 394.5,576.5 C 426.5,576.5 458.5,576.5 490.5,576.5C 490.5,585.167 490.5,593.833 490.5,602.5C 458.5,602.5 426.5,602.5 394.5,602.5C 394.5,593.833 394.5,585.167 394.5,576.5 Z"/></g>
<g><path style="opacity:1" fill="#d8d9d8" d="M 396.5,578.5 C 403.5,578.5 410.5,578.5 417.5,578.5C 417.5,585.833 417.5,593.167 417.5,600.5C 410.5,600.5 403.5,600.5 396.5,600.5C 396.5,593.167 396.5,585.833 396.5,578.5 Z"/></g>
<g><path style="opacity:1" fill="#bebfbe" d="M 419.5,578.5 C 426.833,578.5 434.167,578.5 441.5,578.5C 441.5,585.833 441.5,593.167 441.5,600.5C 434.167,600.5 426.833,600.5 419.5,600.5C 419.5,593.167 419.5,585.833 419.5,578.5 Z"/></g>
<g><path style="opacity:1" fill="#7e7f7e" d="M 443.5,578.5 C 450.5,578.5 457.5,578.5 464.5,578.5C 464.5,585.833 464.5,593.167 464.5,600.5C 457.5,600.5 450.5,600.5 443.5,600.5C 443.5,593.167 443.5,585.833 443.5,578.5 Z"/></g>
<g><path style="opacity:1" fill="#585958" d="M 466.5,578.5 C 473.833,578.5 481.167,578.5 488.5,578.5C 488.5,585.833 488.5,593.167 488.5,600.5C 481.167,600.5 473.833,600.5 466.5,600.5C 466.5,593.167 466.5,585.833 466.5,578.5 Z"/></g>
<g><path style="opacity:1" fill="#000000" d="M 18.5,585.5 C 50.5,585.5 82.5,585.5 114.5,585.5C 114.5,601.833 114.5,618.167 114.5,634.5C 82.5,634.5 50.5,634.5 18.5,634.5C 18.5,618.167 18.5,601.833 18.5,585.5 Z"/></g>
<g><path style="opacity:1" fill="#000000" d="M 152.5,585.5 C 160.833,585.5 169.167,585.5 177.5,585.5C 177.5,617.5 177.5,649.5 177.5,681.5C 169.167,681.5 160.833,681.5 152.5,681.5C 152.5,649.5 152.5,617.5 152.5,585.5 Z"/></g>
<g><path style="opacity:1" fill="#91d04f" d="M 20.5,587.5 C 27.5,587.5 34.5,587.5 41.5,587.5C 41.5,594.833 41.5,602.167 41.5,609.5C 34.5,609.5 27.5,609.5 20.5,609.5C 20.5,602.167 20.5,594.833 20.5,587.5 Z"/></g>
<g><path style="opacity:1" fill="#feff00" d="M 43.5,587.5 C 50.8333,587.5 58.1667,587.5 65.5,587.5C 65.5,594.833 65.5,602.167 65.5,609.5C 58.1667,609.5 50.8333,609.5 43.5,609.5C 43.5,602.167 43.5,594.833 43.5,587.5 Z"/></g>
<g><path style="opacity:1" fill="#91d04f" d="M 67.5,587.5 C 74.8333,587.5 82.1667,587.5 89.5,587.5C 89.5,594.833 89.5,602.167 89.5,609.5C 82.1667,609.5 74.8333,609.5 67.5,609.5C 67.5,602.167 67.5,594.833 67.5,587.5 Z"/></g>
<g><path style="opacity:1" fill="#feff00" d="M 91.5,587.5 C 98.5,587.5 105.5,587.5 112.5,587.5C 112.5,594.833 112.5,602.167 112.5,609.5C 105.5,609.5 98.5,609.5 91.5,609.5C 91.5,602.167 91.5,594.833 91.5,587.5 Z"/></g>
<g><path style="opacity:1" fill="#f1dcda" d="M 154.5,587.5 C 161.5,587.5 168.5,587.5 175.5,587.5C 175.5,594.833 175.5,602.167 175.5,609.5C 168.5,609.5 161.5,609.5 154.5,609.5C 154.5,602.167 154.5,594.833 154.5,587.5 Z"/></g>
<g><path style="opacity:0.645" fill="#000000" d="M 283.5,602.5 C 284.5,602.5 285.5,602.5 286.5,602.5C 286.5,604.167 286.5,605.833 286.5,607.5C 288.167,607.5 289.833,607.5 291.5,607.5C 291.5,608.5 291.5,609.5 291.5,610.5C 289.833,610.5 288.167,610.5 286.5,610.5C 286.5,612.167 286.5,613.833 286.5,615.5C 285.5,615.5 284.5,615.5 283.5,615.5C 283.5,613.833 283.5,612.167 283.5,610.5C 281.833,610.5 280.167,610.5 278.5,610.5C 278.5,609.5 278.5,608.5 278.5,607.5C 280.167,607.5 281.833,607.5 283.5,607.5C 283.5,605.833 283.5,604.167 283.5,602.5 Z"/></g>
<g><path style="opacity:0.645" fill="#000000" d="M 440.5,604.5 C 441.5,604.5 442.5,604.5 443.5,604.5C 443.5,606.167 443.5,607.833 443.5,609.5C 445.167,609.5 446.833,609.5 448.5,609.5C 448.5,610.5 448.5,611.5 448.5,612.5C 446.833,612.5 445.167,612.5 443.5,612.5C 443.5,614.167 443.5,615.833 443.5,617.5C 442.5,617.5 441.5,617.5 440.5,617.5C 440.5,615.833 440.5,614.167 440.5,612.5C 438.833,612.5 437.167,612.5 435.5,612.5C 435.5,611.5 435.5,610.5 435.5,609.5C 437.167,609.5 438.833,609.5 440.5,609.5C 440.5,607.833 440.5,606.167 440.5,604.5 Z"/></g>
<g><path style="opacity:1" fill="#feff00" d="M 20.5,611.5 C 27.5,611.5 34.5,611.5 41.5,611.5C 41.5,618.5 41.5,625.5 41.5,632.5C 34.5,632.5 27.5,632.5 20.5,632.5C 20.5,625.5 20.5,618.5 20.5,611.5 Z"/></g>
<g><path style="opacity:1" fill="#91d04f" d="M 43.5,611.5 C 50.8333,611.5 58.1667,611.5 65.5,611.5C 65.5,618.5 65.5,625.5 65.5,632.5C 58.1667,632.5 50.8333,632.5 43.5,632.5C 43.5,625.5 43.5,618.5 43.5,611.5 Z"/></g>
<g><path style="opacity:1" fill="#feff00" d="M 67.5,611.5 C 74.8333,611.5 82.1667,611.5 89.5,611.5C 89.5,618.5 89.5,625.5 89.5,632.5C 82.1667,632.5 74.8333,632.5 67.5,632.5C 67.5,625.5 67.5,618.5 67.5,611.5 Z"/></g>
<g><path style="opacity:1" fill="#91d04f" d="M 91.5,611.5 C 98.5,611.5 105.5,611.5 112.5,611.5C 112.5,618.5 112.5,625.5 112.5,632.5C 105.5,632.5 98.5,632.5 91.5,632.5C 91.5,625.5 91.5,618.5 91.5,611.5 Z"/></g>
<g><path style="opacity:1" fill="#e5b9b7" d="M 154.5,611.5 C 161.5,611.5 168.5,611.5 175.5,611.5C 175.5,618.5 175.5,625.5 175.5,632.5C 168.5,632.5 161.5,632.5 154.5,632.5C 154.5,625.5 154.5,618.5 154.5,611.5 Z"/></g>
<g><path style="opacity:1" fill="#000000" d="M 237.5,619.5 C 269.5,619.5 301.5,619.5 333.5,619.5C 333.5,628.167 333.5,636.833 333.5,645.5C 301.5,645.5 269.5,645.5 237.5,645.5C 237.5,636.833 237.5,628.167 237.5,619.5 Z"/></g>
<g><path style="opacity:1" fill="#000000" d="M 394.5,619.5 C 426.5,619.5 458.5,619.5 490.5,619.5C 490.5,627.833 490.5,636.167 490.5,644.5C 458.5,644.5 426.5,644.5 394.5,644.5C 394.5,636.167 394.5,627.833 394.5,619.5 Z"/></g>
<g><path style="opacity:0.969" fill="#bebebe" d="M 364.5,620.5 C 369.282,623.447 373.282,627.28 376.5,632C 373.365,636.302 369.699,640.136 365.5,643.5C 364.548,641.955 364.215,640.288 364.5,638.5C 360.5,638.5 356.5,638.5 352.5,638.5C 352.5,634.167 352.5,629.833 352.5,625.5C 356.5,625.5 360.5,625.5 364.5,625.5C 364.5,623.833 364.5,622.167 364.5,620.5 Z"/></g>
<g><path style="opacity:0.967" fill="#bebebe" d="M 209.5,621.5 C 214.282,624.447 218.282,628.28 221.5,633C 218.365,637.302 214.699,641.136 210.5,644.5C 209.548,642.955 209.215,641.288 209.5,639.5C 205.833,639.5 202.167,639.5 198.5,639.5C 198.5,635.167 198.5,630.833 198.5,626.5C 202.167,626.5 205.833,626.5 209.5,626.5C 209.5,624.833 209.5,623.167 209.5,621.5 Z"/></g>
<g><path style="opacity:1" fill="#feff00" d="M 239.5,621.5 C 246.5,621.5 253.5,621.5 260.5,621.5C 260.5,628.833 260.5,636.167 260.5,643.5C 253.5,643.5 246.5,643.5 239.5,643.5C 239.5,636.167 239.5,628.833 239.5,621.5 Z"/></g>
<g><path style="opacity:1" fill="#feff00" d="M 262.5,621.5 C 269.833,621.5 277.167,621.5 284.5,621.5C 284.5,628.833 284.5,636.167 284.5,643.5C 277.167,643.5 269.833,643.5 262.5,643.5C 262.5,636.167 262.5,628.833 262.5,621.5 Z"/></g>
<g><path style="opacity:1" fill="#feff00" d="M 286.5,621.5 C 293.5,621.5 300.5,621.5 307.5,621.5C 307.5,628.833 307.5,636.167 307.5,643.5C 300.5,643.5 293.5,643.5 286.5,643.5C 286.5,636.167 286.5,628.833 286.5,621.5 Z"/></g>
<g><path style="opacity:1" fill="#feff00" d="M 309.5,621.5 C 316.833,621.5 324.167,621.5 331.5,621.5C 331.5,628.833 331.5,636.167 331.5,643.5C 324.167,643.5 316.833,643.5 309.5,643.5C 309.5,636.167 309.5,628.833 309.5,621.5 Z"/></g>
<g><path style="opacity:1" fill="#7e7f7e" d="M 396.5,621.5 C 403.5,621.5 410.5,621.5 417.5,621.5C 417.5,628.5 417.5,635.5 417.5,642.5C 410.5,642.5 403.5,642.5 396.5,642.5C 396.5,635.5 396.5,628.5 396.5,621.5 Z"/></g>
<g><path style="opacity:1" fill="#585958" d="M 419.5,621.5 C 426.833,621.5 434.167,621.5 441.5,621.5C 441.5,628.5 441.5,635.5 441.5,642.5C 434.167,642.5 426.833,642.5 419.5,642.5C 419.5,635.5 419.5,628.5 419.5,621.5 Z"/></g>
<g><path style="opacity:1" fill="#d8d9d8" d="M 443.5,621.5 C 450.5,621.5 457.5,621.5 464.5,621.5C 464.5,628.5 464.5,635.5 464.5,642.5C 457.5,642.5 450.5,642.5 443.5,642.5C 443.5,635.5 443.5,628.5 443.5,621.5 Z"/></g>
<g><path style="opacity:1" fill="#a5a6a5" d="M 466.5,621.5 C 473.833,621.5 481.167,621.5 488.5,621.5C 488.5,628.5 488.5,635.5 488.5,642.5C 481.167,642.5 473.833,642.5 466.5,642.5C 466.5,635.5 466.5,628.5 466.5,621.5 Z"/></g>
<g><path style="opacity:0.582" fill="#000000" d="M 129.5,624.5 C 142.982,624.781 146.815,631.115 141,643.5C 133.977,648.165 127.977,647.165 123,640.5C 120.632,633.296 122.798,627.962 129.5,624.5 Z M 132.5,626.5 C 137.81,627.143 140.81,630.143 141.5,635.5C 139.304,643.514 134.637,645.514 127.5,641.5C 124.26,638.206 123.76,634.539 126,630.5C 127.792,628.372 129.958,627.039 132.5,626.5 Z"/></g>
<g><path style="opacity:0.447" fill="#000000" d="M 131.5,630.5 C 133.711,630.967 135.711,631.967 137.5,633.5C 136.289,634.72 136.289,635.887 137.5,637C 136.747,638.487 135.914,638.654 135,637.5C 134.612,638.428 133.945,639.095 133,639.5C 131.674,638.027 130.174,637.194 128.5,637C 131.028,635.684 131.028,634.517 128.5,633.5C 129.993,632.859 130.993,631.859 131.5,630.5 Z"/></g>
<g><path style="opacity:1" fill="#d89693" d="M 154.5,634.5 C 161.5,634.5 168.5,634.5 175.5,634.5C 175.5,641.833 175.5,649.167 175.5,656.5C 168.5,656.5 161.5,656.5 154.5,656.5C 154.5,649.167 154.5,641.833 154.5,634.5 Z"/></g>
<g><path style="opacity:0.554" fill="#000000" d="M 280.5,647.5 C 282.394,648.048 284.06,649.048 285.5,650.5C 286.814,649.687 287.981,648.687 289,647.5C 289.833,648.333 290.667,649.167 291.5,650C 290.313,651.019 289.313,652.186 288.5,653.5C 289.5,654.833 290.5,656.167 291.5,657.5C 291.291,658.086 290.957,658.586 290.5,659C 288.583,658.973 286.916,658.139 285.5,656.5C 284.167,657.5 282.833,658.5 281.5,659.5C 280.914,659.291 280.414,658.957 280,658.5C 280.027,656.583 280.861,654.916 282.5,653.5C 281.5,652.167 280.5,650.833 279.5,649.5C 279.863,648.817 280.196,648.15 280.5,647.5 Z"/></g>
<g><path style="opacity:0.621" fill="#000000" d="M 436.5,649.5 C 440.833,649.5 445.167,649.5 449.5,649.5C 449.5,650.5 449.5,651.5 449.5,652.5C 445.167,652.5 440.833,652.5 436.5,652.5C 436.5,651.5 436.5,650.5 436.5,649.5 Z"/></g>
<g><path style="opacity:0.621" fill="#000000" d="M 436.5,654.5 C 440.833,654.5 445.167,654.5 449.5,654.5C 449.5,655.5 449.5,656.5 449.5,657.5C 445.167,657.5 440.833,657.5 436.5,657.5C 436.5,656.5 436.5,655.5 436.5,654.5 Z"/></g>
<g><path style="opacity:1" fill="#bf504c" d="M 154.5,658.5 C 161.5,658.5 168.5,658.5 175.5,658.5C 175.5,665.5 175.5,672.5 175.5,679.5C 168.5,679.5 161.5,679.5 154.5,679.5C 154.5,672.5 154.5,665.5 154.5,658.5 Z"/></g>
<g><path style="opacity:1" fill="#000000" d="M 237.5,661.5 C 269.5,661.5 301.5,661.5 333.5,661.5C 333.5,670.167 333.5,678.833 333.5,687.5C 301.5,687.5 269.5,687.5 237.5,687.5C 237.5,678.833 237.5,670.167 237.5,661.5 Z"/></g>
<g><path style="opacity:1" fill="#e5b9b7" d="M 239.5,663.5 C 246.5,663.5 253.5,663.5 260.5,663.5C 260.5,670.833 260.5,678.167 260.5,685.5C 253.5,685.5 246.5,685.5 239.5,685.5C 239.5,678.167 239.5,670.833 239.5,663.5 Z"/></g>
<g><path style="opacity:1" fill="#d89693" d="M 262.5,663.5 C 269.833,663.5 277.167,663.5 284.5,663.5C 284.5,670.833 284.5,678.167 284.5,685.5C 277.167,685.5 269.833,685.5 262.5,685.5C 262.5,678.167 262.5,670.833 262.5,663.5 Z"/></g>
<g><path style="opacity:1" fill="#bf504c" d="M 286.5,663.5 C 293.5,663.5 300.5,663.5 307.5,663.5C 307.5,670.833 307.5,678.167 307.5,685.5C 300.5,685.5 293.5,685.5 286.5,685.5C 286.5,678.167 286.5,670.833 286.5,663.5 Z"/></g>
<g><path style="opacity:1" fill="#f1dcda" d="M 309.5,663.5 C 316.833,663.5 324.167,663.5 331.5,663.5C 331.5,670.833 331.5,678.167 331.5,685.5C 324.167,685.5 316.833,685.5 309.5,685.5C 309.5,678.167 309.5,670.833 309.5,663.5 Z"/></g>
<g><path style="opacity:1" fill="#000000" d="M 394.5,665.5 C 426.5,665.5 458.5,665.5 490.5,665.5C 490.5,673.833 490.5,682.167 490.5,690.5C 458.5,690.5 426.5,690.5 394.5,690.5C 394.5,682.167 394.5,673.833 394.5,665.5 Z"/></g>
<g><path style="opacity:1" fill="#dbe6f1" d="M 396.5,667.5 C 403.5,667.5 410.5,667.5 417.5,667.5C 417.5,674.5 417.5,681.5 417.5,688.5C 410.5,688.5 403.5,688.5 396.5,688.5C 396.5,681.5 396.5,674.5 396.5,667.5 Z"/></g>
<g><path style="opacity:1" fill="#b8cde4" d="M 419.5,667.5 C 426.833,667.5 434.167,667.5 441.5,667.5C 441.5,674.5 441.5,681.5 441.5,688.5C 434.167,688.5 426.833,688.5 419.5,688.5C 419.5,681.5 419.5,674.5 419.5,667.5 Z"/></g>
<g><path style="opacity:1" fill="#fefffe" d="M 443.5,667.5 C 450.5,667.5 457.5,667.5 464.5,667.5C 464.5,674.5 464.5,681.5 464.5,688.5C 457.5,688.5 450.5,688.5 443.5,688.5C 443.5,681.5 443.5,674.5 443.5,667.5 Z"/></g>
<g><path style="opacity:1" fill="#fefffe" d="M 466.5,667.5 C 473.833,667.5 481.167,667.5 488.5,667.5C 488.5,674.5 488.5,681.5 488.5,688.5C 481.167,688.5 473.833,688.5 466.5,688.5C 466.5,681.5 466.5,674.5 466.5,667.5 Z"/></g>
<g><path style="opacity:0.621" fill="#000000" d="M 278.5,692.5 C 282.833,692.5 287.167,692.5 291.5,692.5C 291.5,693.5 291.5,694.5 291.5,695.5C 287.167,695.5 282.833,695.5 278.5,695.5C 278.5,694.5 278.5,693.5 278.5,692.5 Z"/></g>
<g><path style="opacity:0.621" fill="#000000" d="M 278.5,697.5 C 282.833,697.5 287.167,697.5 291.5,697.5C 291.5,698.5 291.5,699.5 291.5,700.5C 287.167,700.5 282.833,700.5 278.5,700.5C 278.5,699.5 278.5,698.5 278.5,697.5 Z"/></g>
<g><path style="opacity:0.826" fill="#7a7a7a" d="M 444.5,705.5 C 443.055,708.937 442.055,712.603 441.5,716.5C 439.833,716.5 438.167,716.5 436.5,716.5C 435.143,707.204 433.81,707.204 432.5,716.5C 430.712,716.785 429.045,716.452 427.5,715.5C 426.023,710.592 425.023,705.592 424.5,700.5C 425.833,700.5 427.167,700.5 428.5,700.5C 429.155,711.559 430.321,711.892 432,701.5C 433.667,700.167 435.333,700.167 437,701.5C 438.679,711.892 439.845,711.559 440.5,700.5C 441.833,700.5 443.167,700.5 444.5,700.5C 444.5,702.167 444.5,703.833 444.5,705.5 Z"/></g>
<g><path style="opacity:0.804" fill="#7b7b7b" d="M 444.5,705.5 C 448.038,705.215 449.871,706.882 450,710.5C 451.02,709.109 451.853,707.609 452.5,706C 453.944,705.219 455.277,705.386 456.5,706.5C 451.577,719.941 447.577,719.608 444.5,705.5 Z"/></g>
<g><path style="opacity:1" fill="#000000" d="M 237.5,707.5 C 269.5,707.5 301.5,707.5 333.5,707.5C 333.5,716.167 333.5,724.833 333.5,733.5C 301.5,733.5 269.5,733.5 237.5,733.5C 237.5,724.833 237.5,716.167 237.5,707.5 Z"/></g>
<g><path style="opacity:0.694" fill="#000000" d="M 19.5,709.5 C 20.675,709.281 21.675,709.614 22.5,710.5C 18.5794,718.183 18.5794,725.85 22.5,733.5C 19.7521,734.644 17.9187,733.644 17,730.5C 14.4487,723.051 15.282,716.051 19.5,709.5 Z"/></g>
<g><path style="opacity:0.69" fill="#000000" d="M 36.5,709.5 C 37.9778,709.238 39.3112,709.571 40.5,710.5C 43.8581,716.292 44.6914,722.292 43,728.5C 42.2054,731.115 40.7054,733.115 38.5,734.5C 37.8333,734.333 37.1667,734.167 36.5,734C 40.4707,725.839 40.4707,717.673 36.5,709.5 Z"/></g>
<g><path style="opacity:1" fill="#d8d9d8" d="M 239.5,709.5 C 246.5,709.5 253.5,709.5 260.5,709.5C 260.5,716.833 260.5,724.167 260.5,731.5C 253.5,731.5 246.5,731.5 239.5,731.5C 239.5,724.167 239.5,716.833 239.5,709.5 Z"/></g>
<g><path style="opacity:1" fill="#bebfbe" d="M 262.5,709.5 C 269.833,709.5 277.167,709.5 284.5,709.5C 284.5,716.833 284.5,724.167 284.5,731.5C 277.167,731.5 269.833,731.5 262.5,731.5C 262.5,724.167 262.5,716.833 262.5,709.5 Z"/></g>
<g><path style="opacity:1" fill="#7e7f7e" d="M 286.5,709.5 C 293.5,709.5 300.5,709.5 307.5,709.5C 307.5,716.833 307.5,724.167 307.5,731.5C 300.5,731.5 293.5,731.5 286.5,731.5C 286.5,724.167 286.5,716.833 286.5,709.5 Z"/></g>
<g><path style="opacity:1" fill="#585958" d="M 309.5,709.5 C 316.833,709.5 324.167,709.5 331.5,709.5C 331.5,716.833 331.5,724.167 331.5,731.5C 324.167,731.5 316.833,731.5 309.5,731.5C 309.5,724.167 309.5,716.833 309.5,709.5 Z"/></g>
<g><path style="opacity:0.739" fill="#000000" d="M 52.5,710.5 C 54.1667,710.5 55.8333,710.5 57.5,710.5C 57.5,712.833 57.5,715.167 57.5,717.5C 59.5,717.5 61.5,717.5 63.5,717.5C 63.5,715.167 63.5,712.833 63.5,710.5C 65.1667,710.5 66.8333,710.5 68.5,710.5C 68.5,716.5 68.5,722.5 68.5,728.5C 66.8333,728.5 65.1667,728.5 63.5,728.5C 63.5,726.167 63.5,723.833 63.5,721.5C 61.5,721.5 59.5,721.5 57.5,721.5C 57.5,723.833 57.5,726.167 57.5,728.5C 55.8333,728.5 54.1667,728.5 52.5,728.5C 52.5,722.5 52.5,716.5 52.5,710.5 Z"/></g>
<g><path style="opacity:0.721" fill="#000000" d="M 84.5,710.5 C 86.1667,710.5 87.8333,710.5 89.5,710.5C 89.3398,712.199 89.5065,713.866 90,715.5C 92.279,714.41 94.4457,714.744 96.5,716.5C 99.5167,721.251 98.85,725.417 94.5,729C 91.1996,728.954 87.8663,728.788 84.5,728.5C 84.5,722.5 84.5,716.5 84.5,710.5 Z M 90.5,718.5 C 92.7224,718.559 93.7224,719.725 93.5,722C 92.1667,726.667 90.8333,726.667 89.5,722C 89.6483,720.744 89.9816,719.577 90.5,718.5 Z"/></g>
<g><path style="opacity:0.544" fill="#000000" d="M 109.5,710.5 C 111.167,710.5 112.833,710.5 114.5,710.5C 114.5,711.833 114.5,713.167 114.5,714.5C 112.833,714.5 111.167,714.5 109.5,714.5C 109.5,713.167 109.5,711.833 109.5,710.5 Z"/></g>
<g><path style="opacity:0.798" fill="#000000" d="M 125.5,710.5 C 126.833,710.5 128.167,710.5 129.5,710.5C 129.5,716.5 129.5,722.5 129.5,728.5C 119.197,731.614 115.03,727.947 117,717.5C 119.061,714.872 121.561,714.205 124.5,715.5C 125.452,713.955 125.785,712.288 125.5,710.5 Z M 121.5,718.5 C 123.849,718.458 125.182,719.625 125.5,722C 124.978,724.97 123.478,725.804 121,724.5C 120.322,722.402 120.489,720.402 121.5,718.5 Z"/></g>
<g><path style="opacity:0.696" fill="#000000" d="M 28.5,714.5 C 32.227,714.195 34.8937,715.695 36.5,719C 34.2655,720.994 32.0988,720.828 30,718.5C 27.6807,719.409 27.0141,721.075 28,723.5C 28.3879,724.428 29.0546,725.095 30,725.5C 31.9973,723.621 34.164,723.288 36.5,724.5C 33.2249,730.253 29.0582,730.92 24,726.5C 23.3333,723.5 23.3333,720.5 24,717.5C 25.4087,716.219 26.9087,715.219 28.5,714.5 Z"/></g>
<g><path style="opacity:0.714" fill="#000000" d="M 105.5,714.5 C 108.423,715.163 109.09,716.83 107.5,719.5C 106.575,718.359 105.741,718.359 105,719.5C 104.502,722.482 104.335,725.482 104.5,728.5C 102.833,728.5 101.167,728.5 99.5,728.5C 99.5,724.167 99.5,719.833 99.5,715.5C 101.735,715.795 103.735,715.461 105.5,714.5 Z"/></g>
<g><path style="opacity:0.741" fill="#000000" d="M 69.5,715.5 C 71.1667,715.5 72.8333,715.5 74.5,715.5C 75.8333,723.5 77.1667,723.5 78.5,715.5C 80.288,715.215 81.9547,715.548 83.5,716.5C 81.4548,722.14 79.1215,727.64 76.5,733C 74.6547,734.128 72.6547,734.628 70.5,734.5C 70.7066,731.761 71.7066,729.427 73.5,727.5C 71.9592,723.544 70.6259,719.544 69.5,715.5 Z"/></g>
<g><path style="opacity:0.684" fill="#000000" d="M 109.5,715.5 C 111.167,715.5 112.833,715.5 114.5,715.5C 114.5,719.833 114.5,724.167 114.5,728.5C 112.833,728.5 111.167,728.5 109.5,728.5C 109.5,724.167 109.5,719.833 109.5,715.5 Z"/></g>
</svg>
